<?xml version="1.0" encoding="UTF-8" standalone="no"?>
<svg
   xmlns:dc="http://purl.org/dc/elements/1.1/"
   xmlns:cc="http://creativecommons.org/ns#"
   xmlns:rdf="http://www.w3.org/1999/02/22-rdf-syntax-ns#"
   xmlns:svg="http://www.w3.org/2000/svg"
   xmlns="http://www.w3.org/2000/svg"
   xmlns:sodipodi="http://sodipodi.sourceforge.net/DTD/sodipodi-0.dtd"
   xmlns:inkscape="http://www.inkscape.org/namespaces/inkscape"
   version="1.1"
   x="0px"
   y="0px"
   width="206.60001"
   height="53.41"
   viewBox="0 0 206.60001 53.41"
   enable-background="new 0 0 220 100"
   xml:space="preserve"
   id="svg2"
   inkscape:version="0.91 r13725"
   sodipodi:docname="logo.aaa.svg"><metadata
     id="metadata73"><rdf:RDF><cc:Work
         rdf:about=""><dc:format>image/svg+xml</dc:format><dc:type
           rdf:resource="http://purl.org/dc/dcmitype/StillImage" /><dc:title></dc:title></cc:Work></rdf:RDF></metadata><defs
     id="defs71" /><sodipodi:namedview
     pagecolor="#ffffff"
     bordercolor="#666666"
     borderopacity="1"
     objecttolerance="10"
     gridtolerance="10"
     guidetolerance="10"
     inkscape:pageopacity="0"
     inkscape:pageshadow="2"
     inkscape:window-width="869"
     inkscape:window-height="480"
     id="namedview69"
     showgrid="false"
     fit-margin-top="0"
     fit-margin-left="0"
     fit-margin-right="0"
     fit-margin-bottom="0"
     inkscape:zoom="2.36"
     inkscape:cx="103.3"
     inkscape:cy="26.72"
     inkscape:window-x="0"
     inkscape:window-y="0"
     inkscape:window-maximized="0"
     inkscape:current-layer="svg2" /><g
     id="AAA"
     style="fill:#ffffff"
     transform="translate(-6.7,-23.31)"><path
       d="m 103.9,35.51 3.16,-7.37 1,0 3.16,7.37 -1.48,0 -0.69,-1.63 -2.96,0 -0.7,1.63 -1.49,0 z m 2.71,-2.9 1.87,0 -0.94,-2.18 -0.93,2.18 z"
       id="path5"
       inkscape:connector-curvature="0" /><path
       d="m 115.58,31.82 c 0,1.43 1.09,2.53 2.51,2.53 0.96,0 1.65,-0.46 2.08,-1.02 l 0.98,0.88 c -0.65,0.83 -1.75,1.41 -3.1,1.41 -2.29,0 -3.9,-1.67 -3.9,-3.79 0,-2.12 1.59,-3.79 3.88,-3.79 1.1,0 2.03,0.41 2.7,1.05 l -0.92,0.97 c -0.44,-0.44 -1.06,-0.76 -1.79,-0.76 -1.39,0 -2.44,1.12 -2.44,2.52 z"
       id="path7"
       inkscape:connector-curvature="0" /><path
       d="m 125.95,31.82 c 0,1.43 1.09,2.53 2.52,2.53 0.96,0 1.65,-0.46 2.08,-1.02 l 0.97,0.88 c -0.65,0.83 -1.74,1.41 -3.09,1.41 -2.29,0 -3.9,-1.67 -3.9,-3.79 0,-2.12 1.59,-3.79 3.88,-3.79 1.1,0 2.03,0.41 2.7,1.05 l -0.91,0.97 c -0.44,-0.44 -1.06,-0.76 -1.79,-0.76 -1.41,0 -2.46,1.12 -2.46,2.52 z"
       id="path9"
       inkscape:connector-curvature="0" /><path
       d="m 136.89,29.4 0,1.53 2.27,0 0,1.26 -2.27,0 0,2.06 3.1,0 0,1.26 -4.52,0 0,-7.37 4.42,0 0,1.26 -3,0 z"
       id="path11"
       inkscape:connector-curvature="0" /><path
       d="m 144.5,33.54 c 0.42,0.46 1.06,0.81 1.74,0.81 0.63,0 1.08,-0.39 1.08,-0.93 0,-0.95 -1.37,-1.06 -2.36,-1.64 -0.58,-0.34 -1.04,-0.84 -1.04,-1.67 0,-1.32 1.21,-2.07 2.43,-2.07 0.75,0 1.44,0.18 2.14,0.69 l -0.74,1.05 c -0.29,-0.27 -0.79,-0.48 -1.27,-0.48 -0.54,0 -1.13,0.23 -1.13,0.8 0,1.19 3.4,0.82 3.4,3.3 0,1.31 -1.17,2.21 -2.5,2.21 -0.99,0 -1.9,-0.41 -2.66,-1.11 l 0.91,-0.96 z"
       id="path13"
       inkscape:connector-curvature="0" /><path
       d="m 152.87,33.54 c 0.42,0.46 1.06,0.81 1.74,0.81 0.63,0 1.07,-0.39 1.07,-0.93 0,-0.95 -1.37,-1.06 -2.36,-1.64 -0.58,-0.34 -1.04,-0.84 -1.04,-1.67 0,-1.32 1.21,-2.07 2.43,-2.07 0.75,0 1.44,0.18 2.13,0.69 l -0.73,1.05 c -0.29,-0.27 -0.79,-0.48 -1.27,-0.48 -0.54,0 -1.14,0.23 -1.14,0.8 0,1.19 3.4,0.82 3.4,3.3 0,1.31 -1.17,2.21 -2.5,2.21 -0.99,0 -1.9,-0.41 -2.66,-1.11 l 0.93,-0.96 z"
       id="path15"
       inkscape:connector-curvature="0" /><path
       d="m 103.9,47.79 3.16,-7.37 1,0 3.16,7.37 -1.48,0 -0.69,-1.63 -2.96,0 -0.7,1.63 -1.49,0 z m 2.71,-2.9 1.87,0 -0.94,-2.18 -0.93,2.18 z"
       id="path17"
       inkscape:connector-curvature="0" /><path
       d="m 114.95,40.42 1.42,0 0,6.11 3.11,0 0,1.26 -4.53,0 0,-7.37 z"
       id="path19"
       inkscape:connector-curvature="0" /><path
       d="m 123.47,40.42 1.42,0 0,6.11 3.1,0 0,1.26 -4.53,0 0,-7.37 z"
       id="path21"
       inkscape:connector-curvature="0" /><path
       d="m 103.9,60.07 3.16,-7.37 1,0 3.16,7.37 -1.48,0 -0.69,-1.63 -2.96,0 -0.7,1.63 -1.49,0 z m 2.71,-2.9 1.87,0 -0.94,-2.18 -0.93,2.18 z"
       id="path23"
       inkscape:connector-curvature="0" /><path
       d="m 116.37,56.8 0,3.26 -1.42,0 0,-7.36 2.68,0 c 0.76,0 1.24,0.21 1.61,0.55 0.4,0.38 0.65,0.91 0.65,1.5 0,0.59 -0.25,1.13 -0.65,1.51 -0.2,0.19 -0.44,0.34 -0.74,0.43 l 2.76,3.38 -1.76,0 -2.62,-3.26 -0.51,0 z m 1.18,-1.26 c 0.41,0 0.59,-0.08 0.71,-0.22 0.13,-0.13 0.21,-0.35 0.21,-0.55 0,-0.22 -0.08,-0.44 -0.21,-0.57 -0.13,-0.13 -0.3,-0.23 -0.71,-0.23 l -1.18,0 0,1.58 1.18,0 z"
       id="path25"
       inkscape:connector-curvature="0" /><path
       d="m 126.32,53.96 0,1.53 2.26,0 0,1.26 -2.26,0 0,2.05 3.1,0 0,1.26 -4.52,0 0,-7.36 4.42,0 0,1.27 -3,0 z"
       id="path27"
       inkscape:connector-curvature="0" /><path
       d="m 133.05,60.07 3.16,-7.37 1,0 3.16,7.37 -1.48,0 -0.7,-1.63 -2.96,0 -0.7,1.63 -1.48,0 z m 2.72,-2.9 1.87,0 -0.93,-2.18 -0.94,2.18 z"
       id="path29"
       inkscape:connector-curvature="0" /><path
       d="m 144.61,58.1 c 0.42,0.46 1.06,0.81 1.74,0.81 0.63,0 1.07,-0.39 1.07,-0.93 0,-0.95 -1.37,-1.06 -2.36,-1.64 -0.58,-0.34 -1.04,-0.84 -1.04,-1.67 0,-1.32 1.21,-2.07 2.43,-2.07 0.75,0 1.44,0.18 2.14,0.69 l -0.74,1.05 c -0.29,-0.27 -0.79,-0.49 -1.27,-0.49 -0.54,0 -1.14,0.23 -1.14,0.8 0,1.19 3.4,0.82 3.4,3.3 0,1.3 -1.17,2.21 -2.5,2.21 -0.99,0 -1.91,-0.41 -2.66,-1.11 l 0.93,-0.95 z"
       id="path31"
       inkscape:connector-curvature="0" /><path
       d="m 25.68,73.33 13.51,0 2.32,3.31 5.06,0 -13.92,-19.89 18.15,0 2.32,3.31 5.06,0 L 32.44,23.31 6.7,60.07 l 5.06,0 2.32,-3.31 13.51,0 2.32,3.31 -11.61,16.57 5.06,0 2.32,-3.31 z m 22.22,-20.72 -18.16,0 -6.38,-9.12 9.08,-12.96 15.46,22.08 z m -30.92,0 3.86,-5.5 3.85,5.5 -7.71,0 z m 19.31,16.57 -7.71,0 3.85,-5.5 3.86,5.5 z"
       id="path33"
       inkscape:connector-curvature="0" /><path
       d="m 105.48,72.96 c 0.59,0 0.97,0.13 1.27,0.35 0.45,0.34 0.73,0.88 0.73,1.49 0,0.61 -0.28,1.16 -0.73,1.49 -0.3,0.22 -0.68,0.35 -1.27,0.35 l -1.16,0 0,-3.68 1.16,0 z M 106.5,74 c -0.21,-0.26 -0.51,-0.41 -0.95,-0.41 l -0.52,0 0,2.42 0.52,0 c 0.44,0 0.74,-0.15 0.95,-0.41 0.17,-0.21 0.27,-0.5 0.27,-0.8 0,-0.3 -0.1,-0.59 -0.27,-0.8 z"
       id="path35"
       inkscape:connector-curvature="0" /><path
       d="m 111.66,73.59 0,0.77 1.13,0 0,0.63 -1.13,0 0,1.03 1.55,0 0,0.63 -2.26,0 0,-3.68 2.21,0 0,0.63 -1.5,0 z"
       id="path37"
       inkscape:connector-curvature="0" /><path
       d="m 116.91,75.66 c 0.21,0.23 0.53,0.41 0.87,0.41 0.32,0 0.54,-0.2 0.54,-0.46 0,-0.47 -0.68,-0.53 -1.18,-0.82 -0.29,-0.17 -0.52,-0.42 -0.52,-0.84 0,-0.65 0.61,-1.03 1.21,-1.03 0.38,0 0.72,0.09 1.07,0.35 l -0.37,0.53 c -0.15,-0.14 -0.4,-0.24 -0.64,-0.24 -0.27,0 -0.57,0.12 -0.57,0.4 0,0.6 1.7,0.41 1.7,1.65 0,0.65 -0.58,1.11 -1.25,1.11 -0.49,0 -0.95,-0.21 -1.33,-0.55 l 0.47,-0.51 z"
       id="path39"
       inkscape:connector-curvature="0" /><path
       d="m 122.53,72.96 0.71,0 0,3.68 -0.71,0 0,-3.68 z"
       id="path41"
       inkscape:connector-curvature="0" /><path
       d="m 127.42,74.8 c 0,0.71 0.54,1.26 1.25,1.26 0.33,0 0.61,-0.12 0.82,-0.29 l 0,-0.79 -0.95,0 0,-0.63 1.66,0 0,1.63 c -0.33,0.42 -0.87,0.71 -1.55,0.71 -1.15,0 -1.95,-0.84 -1.95,-1.89 0,-1.06 0.79,-1.89 1.94,-1.89 0.55,0 1.02,0.21 1.35,0.53 l -0.46,0.49 c -0.22,-0.22 -0.53,-0.38 -0.89,-0.38 -0.69,-0.01 -1.22,0.55 -1.22,1.25 z"
       id="path43"
       inkscape:connector-curvature="0" /><path
       d="m 133.84,72.96 0.5,0 2.05,2.4 0,-2.4 0.71,0 0,3.68 -0.5,0 -2.05,-2.4 0,2.4 -0.71,0 0,-3.68 z"
       id="path45"
       inkscape:connector-curvature="0" /><path
       d="m 145.15,72.96 0.71,0 0,3.68 -0.71,0 0,-3.68 z"
       id="path47"
       inkscape:connector-curvature="0" /><path
       d="m 149.6,72.96 0.5,0 2.05,2.4 0,-2.4 0.71,0 0,3.68 -0.5,0 -2.05,-2.4 0,2.4 -0.71,0 0,-3.68 z"
       id="path49"
       inkscape:connector-curvature="0" /><path
       d="m 160.44,72.96 0.72,0 0.76,2.3 0.81,-2.3 0.5,0 0.81,2.3 0.76,-2.3 0.72,0 -1.22,3.68 -0.5,0 -0.82,-2.33 -0.81,2.33 -0.5,0 -1.23,-3.68 z"
       id="path51"
       inkscape:connector-curvature="0" /><path
       d="m 168.89,72.96 0.71,0 0,3.68 -0.71,0 0,-3.68 z"
       id="path53"
       inkscape:connector-curvature="0" /><path
       d="m 174.04,73.59 0,0.77 1.13,0 0,0.63 -1.13,0 0,1.03 1.55,0 0,0.63 -2.26,0 0,-3.68 2.21,0 0,0.63 -1.5,0 z"
       id="path55"
       inkscape:connector-curvature="0" /><path
       d="m 179.3,75.66 c 0.21,0.23 0.53,0.41 0.87,0.41 0.32,0 0.54,-0.2 0.54,-0.46 0,-0.47 -0.69,-0.53 -1.18,-0.82 -0.29,-0.17 -0.52,-0.42 -0.52,-0.84 0,-0.65 0.6,-1.03 1.22,-1.03 0.37,0 0.72,0.09 1.07,0.35 l -0.37,0.53 c -0.15,-0.14 -0.39,-0.24 -0.64,-0.24 -0.27,0 -0.57,0.12 -0.57,0.4 0,0.6 1.7,0.41 1.7,1.65 0,0.65 -0.58,1.11 -1.25,1.11 -0.49,0 -0.95,-0.21 -1.33,-0.55 l 0.46,-0.51 z"
       id="path57"
       inkscape:connector-curvature="0" /><path
       d="m 186.16,72.96 c 0.41,0 0.65,0.1 0.83,0.26 0.21,0.18 0.34,0.44 0.34,0.74 0,0.24 -0.12,0.49 -0.24,0.62 0.33,0.16 0.55,0.53 0.55,0.94 0,0.31 -0.13,0.59 -0.34,0.79 -0.2,0.21 -0.49,0.33 -0.96,0.33 l -1.44,0 0,-3.68 1.26,0 z m -0.54,1.42 0.5,0 c 0.22,0 0.32,-0.05 0.39,-0.13 0.06,-0.07 0.11,-0.16 0.11,-0.26 0,-0.1 -0.04,-0.2 -0.11,-0.26 -0.07,-0.08 -0.17,-0.13 -0.39,-0.13 l -0.5,0 0,0.78 z m 0.71,1.63 c 0.24,0 0.38,-0.06 0.47,-0.16 0.08,-0.09 0.13,-0.21 0.13,-0.34 0,-0.13 -0.05,-0.25 -0.13,-0.34 -0.09,-0.1 -0.23,-0.16 -0.47,-0.16 l -0.71,0 0,1 0.71,0 z"
       id="path59"
       inkscape:connector-curvature="0" /><path
       d="m 190.65,76.64 1.58,-3.68 0.5,0 1.58,3.68 -0.74,0 -0.35,-0.82 -1.48,0 -0.35,0.82 -0.74,0 z m 1.36,-1.45 0.94,0 -0.47,-1.09 -0.47,1.09 z"
       id="path61"
       inkscape:connector-curvature="0" /><path
       d="m 198.78,72.96 c 0.58,0 0.97,0.13 1.27,0.35 0.45,0.34 0.73,0.88 0.73,1.49 0,0.61 -0.28,1.16 -0.73,1.49 -0.3,0.22 -0.68,0.35 -1.27,0.35 l -1.16,0 0,-3.68 1.16,0 z M 199.8,74 c -0.21,-0.26 -0.51,-0.41 -0.94,-0.41 l -0.52,0 0,2.42 0.52,0 c 0.44,0 0.74,-0.15 0.94,-0.41 0.17,-0.21 0.27,-0.5 0.27,-0.8 0,-0.3 -0.1,-0.59 -0.27,-0.8 z"
       id="path63"
       inkscape:connector-curvature="0" /><path
       d="m 204.96,73.59 0,0.77 1.13,0 0,0.63 -1.13,0 0,1.03 1.55,0 0,0.63 -2.26,0 0,-3.68 2.21,0 0,0.63 -1.5,0 z"
       id="path65"
       inkscape:connector-curvature="0" /><path
       d="m 210.04,72.96 0.5,0 2.05,2.4 0,-2.4 0.71,0 0,3.68 -0.5,0 -2.05,-2.4 0,2.4 -0.71,0 0,-3.68 z"
       id="path67"
       inkscape:connector-curvature="0" /></g></svg>