<?xml version="1.0" encoding="UTF-8" standalone="no"?>
<svg
   xmlns:dc="http://purl.org/dc/elements/1.1/"
   xmlns:cc="http://creativecommons.org/ns#"
   xmlns:rdf="http://www.w3.org/1999/02/22-rdf-syntax-ns#"
   xmlns:svg="http://www.w3.org/2000/svg"
   xmlns="http://www.w3.org/2000/svg"
   viewBox="0 0 1766.7125 456.53751"
   height="456.53751"
   width="1766.7125"
   xml:space="preserve"
   version="1.1"
   id="svg2"><metadata
     id="metadata8"><rdf:RDF><cc:Work
         rdf:about=""><dc:format>image/svg+xml</dc:format><dc:type
           rdf:resource="http://purl.org/dc/dcmitype/StillImage" /><dc:title></dc:title></cc:Work></rdf:RDF></metadata><defs
     id="defs6" /><g
     transform="matrix(1.25,0,0,-1.25,0,456.5375)"
     id="g10"><g
       style="fill:#ffffff"
       transform="scale(0.1,0.1)"
       id="g12"><path
         id="path14"
         style="fill:#ffffff;fill-opacity:1;fill-rule:nonzero;stroke:none"
         d="m 6835.17,3015.48 128.17,0 -64.08,149.06 -64.09,-149.06 z m -185.78,-198.02 216.03,504.05 68.4,0 216.02,-504.05 -101.53,0 -47.52,111.62 -202.34,0 -47.53,-111.62 -101.53,0" /><path
         id="path16"
         style="fill:#ffffff;fill-opacity:1;fill-rule:nonzero;stroke:none"
         d="m 7448.6,3069.49 c 0,-97.93 74.9,-172.81 172.1,-172.81 65.53,0 113.05,31.68 142.57,69.84 l 66.96,-59.77 c -44.63,-56.88 -119.53,-96.48 -211.69,-96.48 -156.98,0 -267.14,114.48 -267.14,259.22 0,144.73 108.73,259.22 265.7,259.22 74.89,0 138.97,-28.08 184.34,-72.01 l -62.65,-66.25 c -30.24,30.25 -72.73,51.85 -122.4,51.85 -95.78,0 -167.79,-77.04 -167.79,-172.81" /><path
         id="path18"
         style="fill:#ffffff;fill-opacity:1;fill-rule:nonzero;stroke:none"
         d="m 8157.81,3069.49 c 0,-97.93 74.89,-172.81 172.09,-172.81 65.53,0 113.06,31.68 142.58,69.84 l 66.97,-59.77 c -44.65,-56.88 -119.53,-96.48 -211.7,-96.48 -156.97,0 -267.14,114.48 -267.14,259.22 0,144.73 108.73,259.22 265.7,259.22 74.88,0 138.97,-28.08 184.33,-72.01 L 8448,3190.45 c -30.25,30.25 -72.73,51.85 -122.41,51.85 -95.77,0 -167.78,-77.04 -167.78,-172.81" /><path
         id="path20"
         style="fill:#ffffff;fill-opacity:1;fill-rule:nonzero;stroke:none"
         d="m 8906.61,3235.1 0,-104.41 154.82,0 0,-86.41 -154.82,0 0,-140.41 212.41,0 0,-86.41 -309.62,0 0,504.05 302.43,0 0,-86.41 -205.22,0" /><path
         id="path22"
         style="fill:#ffffff;fill-opacity:1;fill-rule:nonzero;stroke:none"
         d="m 9427.16,2952.11 c 28.8,-31.68 72.72,-55.43 118.81,-55.43 43.2,0 73.44,26.64 73.44,63.36 0,64.8 -93.6,72.73 -161.28,112.33 -39.61,23.04 -71.29,57.61 -71.29,114.49 0,90.01 82.8,141.85 166.32,141.85 51.14,0 98.66,-12.24 146.19,-47.52 l -50.41,-72.01 c -20.16,18.73 -54.01,33.12 -87.13,33.12 -36.72,0 -77.77,-15.84 -77.77,-54.73 0,-81.36 232.58,-56.16 232.58,-226.09 0,-89.29 -79.92,-151.21 -170.65,-151.21 -67.69,0 -130.34,28.07 -182.18,75.61 l 63.37,66.23" /><path
         id="path24"
         style="fill:#ffffff;fill-opacity:1;fill-rule:nonzero;stroke:none"
         d="m 9999.55,2952.11 c 28.75,-31.68 72.75,-55.43 118.85,-55.43 43.2,0 73.4,26.64 73.4,63.36 0,64.8 -93.6,72.73 -161.3,112.33 -39.59,23.04 -71.27,57.61 -71.27,114.49 0,90.01 82.77,141.85 166.37,141.85 51.1,0 98.6,-12.24 146.1,-47.52 l -50.4,-72.01 c -20.1,18.73 -54,33.12 -87.1,33.12 -36.7,0 -77.8,-15.84 -77.8,-54.73 0,-81.36 232.6,-56.16 232.6,-226.09 0,-89.29 -79.9,-151.21 -170.6,-151.21 -67.7,0 -130.37,28.07 -182.22,75.61 l 63.37,66.23" /><path
         id="path26"
         style="fill:#ffffff;fill-opacity:1;fill-rule:nonzero;stroke:none"
         d="m 6835.17,2175.48 128.17,0 -64.08,149.06 -64.09,-149.06 z m -185.78,-198.01 216.03,504.04 68.4,0 216.02,-504.04 -101.53,0 -47.52,111.61 -202.34,0 -47.53,-111.61 -101.53,0" /><path
         id="path28"
         style="fill:#ffffff;fill-opacity:1;fill-rule:nonzero;stroke:none"
         d="m 7405.39,2481.51 97.21,0 0,-417.64 212.42,0 0,-86.4 -309.63,0 0,504.04" /><path
         id="path30"
         style="fill:#ffffff;fill-opacity:1;fill-rule:nonzero;stroke:none"
         d="m 7988.58,2481.51 97.22,0 0,-417.64 212.41,0 0,-86.4 -309.63,0 0,504.04" /><path
         id="path32"
         style="fill:#ffffff;fill-opacity:1;fill-rule:nonzero;stroke:none"
         d="m 6835.17,1335.49 128.17,0 -64.08,149.04 -64.09,-149.04 z m -185.78,-198.03 216.03,504.04 68.4,0 216.02,-504.04 -101.53,0 -47.52,111.62 -202.34,0 -47.53,-111.62 -101.53,0" /><path
         id="path34"
         style="fill:#ffffff;fill-opacity:1;fill-rule:nonzero;stroke:none"
         d="m 7583.24,1447.09 c 28.09,0 40.33,5.76 48.97,15.12 8.65,9.37 14.41,23.77 14.41,38.16 0,15.14 -5.76,29.53 -14.41,38.89 -8.64,9.35 -20.88,15.84 -48.97,15.84 l -80.64,0 0,-108.01 80.64,0 z m -80.64,-86.41 0,-223.22 -97.21,0 0,504.04 183.61,0 c 51.86,0 84.97,-14.39 110.18,-37.44 27.36,-25.92 44.65,-62.63 44.65,-102.97 0,-40.31 -17.29,-77.05 -44.65,-102.97 -13.68,-12.94 -30.24,-23.04 -50.41,-29.51 l 188.66,-231.15 -120.25,0 -179.29,223.22 -35.29,0" /><path
         id="path36"
         style="fill:#ffffff;fill-opacity:1;fill-rule:nonzero;stroke:none"
         d="m 8183.01,1555.1 0,-104.42 154.8,0 0,-86.4 -154.8,0 0,-140.41 212.41,0 0,-86.41 -309.63,0 0,504.04 302.43,0 0,-86.4 -205.21,0" /><path
         id="path38"
         style="fill:#ffffff;fill-opacity:1;fill-rule:nonzero;stroke:none"
         d="m 8829.55,1335.49 128.16,0 -64.08,149.04 -64.08,-149.04 z m -185.78,-198.03 216.02,504.04 68.41,0 216.02,-504.04 -101.52,0 -47.53,111.62 -202.34,0 -47.53,-111.62 -101.53,0" /><path
         id="path40"
         style="fill:#ffffff;fill-opacity:1;fill-rule:nonzero;stroke:none"
         d="m 9434.34,1272.11 c 28.8,-31.68 72.73,-55.43 118.81,-55.43 43.21,0 73.45,26.64 73.45,63.36 0,64.8 -93.61,72.73 -161.3,112.32 -39.6,23.05 -71.29,57.62 -71.29,114.5 0,90.01 82.82,141.85 166.34,141.85 51.12,0 98.65,-12.25 146.17,-47.52 l -50.4,-72.01 c -20.16,18.73 -54,33.12 -87.13,33.12 -36.72,0 -77.77,-15.84 -77.77,-54.72 0,-81.37 232.59,-56.17 232.59,-226.1 0,-89.29 -79.93,-151.21 -170.66,-151.21 -67.68,0 -130.33,28.07 -182.17,75.61 l 63.36,66.23" /><path
         id="path42"
         style="fill:#ffffff;fill-opacity:1;fill-rule:nonzero;stroke:none"
         d="m 2024.51,513.852 -527.26,0 263.63,376.519 263.63,-376.519 z M 703.32,1647.71 l 263.633,376.5 263.637,-376.5 -527.27,0 z m 2115.14,0 -1241.84,0 -436.62,623.59 620.88,886.8 1057.58,-1510.39 z m -1519.69,-1417.3 924.22,0 158.79,-226.80062 346.05,0 -952.69,1360.63062 1241.79,0 158.79,-226.76 346.06,0 -1760.9,2514.8 L 0,1137.48 l 346.055,0 158.789,226.76 924.236,0 158.79,-226.76 L 793.926,3.60938 1140,3.60938 1298.77,230.41" /><path
         id="path44"
         style="fill:#ffffff;fill-opacity:1;fill-rule:nonzero;stroke:none"
         d="m 6827.21,184.301 c -14.04,17.629 -34.55,28.058 -64.43,28.058 l -35.99,0 0,-165.5582 35.99,0 c 29.88,0 50.39,10.4297 64.43,28.0586 11.52,14.4219 18.36,33.8516 18.36,54.7306 0,20.879 -6.84,40.308 -18.36,54.711 z m -69.83,71.269 c 39.95,0 66.23,-8.64 86.75,-23.75 30.96,-23.05 50.04,-60.488 50.04,-102.23 0,-41.7619 -19.08,-79.1994 -50.04,-102.2306 C 6823.61,12.25 6797.33,3.58984 6757.38,3.58984 l -79.19,0 0,251.98016 79.19,0" /><path
         id="path46"
         style="fill:#ffffff;fill-opacity:1;fill-rule:nonzero;stroke:none"
         d="m 7180.38,212.359 0,-52.179 77.39,0 0,-43.192 -77.39,0 0,-70.1872 106.18,0 0,-43.21096 -154.77,0 0,251.98016 151.18,0 0,-43.211 -102.59,0" /><path
         id="path48"
         style="fill:#ffffff;fill-opacity:1;fill-rule:nonzero;stroke:none"
         d="m 7539.67,70.9219 c 14.39,-15.8399 36.35,-27.7227 59.39,-27.7227 21.59,0 36.71,13.3008 36.71,31.6602 0,32.4106 -46.79,36.3706 -80.63,56.1606 -19.79,11.519 -35.63,28.8 -35.63,57.242 0,44.976 41.39,70.898 83.15,70.898 25.55,0 49.31,-6.109 73.06,-23.75 l -25.19,-36 c -10.08,9.36 -26.99,16.57 -43.56,16.57 -18.36,0 -38.86,-7.929 -38.86,-27.371 0,-40.66 116.26,-28.058 116.26,-113.0192 C 7684.37,30.9609 7644.41,0 7599.06,0 c -33.85,0 -65.15,14.0391 -91.07,37.7891 l 31.68,33.1328" /><path
         id="path50"
         style="fill:#ffffff;fill-opacity:1;fill-rule:nonzero;stroke:none"
         d="m 7923.78,255.57 48.6,0 0,-251.98016 -48.6,0 0,251.98016" /><path
         id="path52"
         style="fill:#ffffff;fill-opacity:1;fill-rule:nonzero;stroke:none"
         d="m 8258.58,129.59 c 0,-48.9689 37.44,-86.3908 86.03,-86.3908 23.04,0 41.76,7.9102 56.15,19.4414 l 0,54.3474 -64.78,0 0,43.192 113.38,0 0,-111.9417 C 8427.04,19.8008 8389.61,0 8343.54,0 c -78.48,0 -133.55,57.2305 -133.55,129.59 0,72.34 54.35,129.57 132.82,129.57 37.44,0 69.48,-14.019 92.15,-36 l -31.32,-33.101 c -15.11,15.121 -36.35,25.921 -61.19,25.921 -47.88,0 -83.87,-38.519 -83.87,-86.39" /><path
         id="path54"
         style="fill:#ffffff;fill-opacity:1;fill-rule:nonzero;stroke:none"
         d="m 8697.78,255.57 34.19,0 140.39,-164.1403 0,164.1403 48.6,0 0,-251.98016 -34.2,0 -140.38,164.14016 0,-164.14016 -48.6,0 0,251.98016" /><path
         id="path56"
         style="fill:#ffffff;fill-opacity:1;fill-rule:nonzero;stroke:none"
         d="m 9471.78,255.57 48.59,0 0,-251.98016 -48.59,0 0,251.98016" /><path
         id="path58"
         style="fill:#ffffff;fill-opacity:1;fill-rule:nonzero;stroke:none"
         d="m 9775.99,255.57 34.19,0 140.39,-164.1403 0,164.1403 48.59,0 0,-251.98016 -34.2,0 -140.38,164.14016 0,-164.14016 -48.59,0 0,251.98016" /><path
         id="path60"
         style="fill:#ffffff;fill-opacity:1;fill-rule:nonzero;stroke:none"
         d="m 10517.6,255.57 48.9,0 52.2,-157.3083 55.5,157.3083 34.2,0 55.4,-157.3083 52.2,157.3083 48.9,0 -83.5,-251.98016 -34.2,0 -56.1,159.48016 -55.8,-159.48016 -34.2,0 -83.5,251.98016" /><path
         id="path62"
         style="fill:#ffffff;fill-opacity:1;fill-rule:nonzero;stroke:none"
         d="m 11095.4,255.57 48.6,0 0,-251.98016 -48.6,0 0,251.98016" /><path
         id="path64"
         style="fill:#ffffff;fill-opacity:1;fill-rule:nonzero;stroke:none"
         d="m 11448.2,212.359 0,-52.179 77.4,0 0,-43.192 -77.4,0 0,-70.1872 106.2,0 0,-43.21096 -154.8,0 0,251.98016 151.2,0 0,-43.211 -102.6,0" /><path
         id="path66"
         style="fill:#ffffff;fill-opacity:1;fill-rule:nonzero;stroke:none"
         d="m 11807.5,70.9219 c 14.4,-15.8399 36.3,-27.7227 59.3,-27.7227 21.6,0 36.8,13.3008 36.8,31.6602 0,32.4106 -46.8,36.3706 -80.7,56.1606 -19.8,11.519 -35.6,28.8 -35.6,57.242 0,44.976 41.4,70.898 83.1,70.898 25.6,0 49.4,-6.109 73.1,-23.75 l -25.2,-36 c -10.1,9.36 -27,16.57 -43.5,16.57 -18.4,0 -38.9,-7.929 -38.9,-27.371 0,-40.66 116.3,-28.058 116.3,-113.0192 0,-44.6289 -40,-75.5898 -85.4,-75.5898 -33.8,0 -65.1,14.0391 -91,37.7891 l 31.7,33.1328" /><path
         id="path68"
         style="fill:#ffffff;fill-opacity:1;fill-rule:nonzero;stroke:none"
         d="m 12288.8,46.8008 c 16.9,0 26.2,4.3086 32.4,11.1484 5.7,6.1094 9,14.0391 9,23.0508 0,8.9805 -3.3,16.9102 -9,23.02 -6.2,6.839 -15.5,11.16 -32.4,11.16 l -48.6,0 0,-68.3792 48.6,0 z m -48.6,111.5782 34.2,0 c 15.1,0 21.9,3.59 27,9 4.3,4.672 7.2,11.152 7.2,17.992 0,6.84 -2.9,13.32 -7.2,18.008 -5.1,5.391 -11.9,8.98 -27,8.98 l -34.2,0 0,-53.98 z m 37,97.191 c 28.5,0 44.3,-6.84 56.6,-17.64 14,-12.25 23.3,-30.231 23.3,-50.758 0,-16.551 -7.9,-33.481 -16.2,-42.113 22.4,-11.149 37.9,-36.348 37.9,-64.4379 0,-21.2305 -9.1,-40.6602 -23.1,-54.3516 -14,-14.0195 -33.5,-22.67966 -65.9,-22.67966 l -98.2,0 0,251.98016 85.6,0" /><path
         id="path70"
         style="fill:#ffffff;fill-opacity:1;fill-rule:nonzero;stroke:none"
         d="m 12676.8,102.582 64.1,0 -32,74.508 -32.1,-74.508 z M 12584,3.58984 12692,255.57 l 34.2,0 107.9,-251.98016 -50.7,0 -23.8,55.80076 -101.1,0 -23.8,-55.80076 -50.7,0" /><path
         id="path72"
         style="fill:#ffffff;fill-opacity:1;fill-rule:nonzero;stroke:none"
         d="m 13210,184.301 c -14.1,17.629 -34.6,28.058 -64.4,28.058 l -36,0 0,-165.5582 36,0 c 29.8,0 50.3,10.4297 64.4,28.0586 11.5,14.4219 18.3,33.8516 18.3,54.7306 0,20.879 -6.8,40.308 -18.3,54.711 z m -69.8,71.269 c 39.9,0 66.2,-8.64 86.7,-23.75 31,-23.05 50,-60.488 50,-102.23 0,-41.7619 -19,-79.1994 -50,-102.2306 -20.5,-15.1094 -46.8,-23.76956 -86.7,-23.76956 l -79.2,0 0,251.98016 79.2,0" /><path
         id="path74"
         style="fill:#ffffff;fill-opacity:1;fill-rule:nonzero;stroke:none"
         d="m 13563.2,212.359 0,-52.179 77.3,0 0,-43.192 -77.3,0 0,-70.1872 106.1,0 0,-43.21096 -154.7,0 0,251.98016 151.1,0 0,-43.211 -102.5,0" /><path
         id="path76"
         style="fill:#ffffff;fill-opacity:1;fill-rule:nonzero;stroke:none"
         d="m 13910.6,255.57 34.2,0 140.3,-164.1403 0,164.1403 48.6,0 0,-251.98016 -34.2,0 -140.3,164.14016 0,-164.14016 -48.6,0 0,251.98016" /></g></g></svg>