<?xml version="1.0" encoding="UTF-8" standalone="no"?>
<svg
   xmlns:dc="http://purl.org/dc/elements/1.1/"
   xmlns:cc="http://creativecommons.org/ns#"
   xmlns:rdf="http://www.w3.org/1999/02/22-rdf-syntax-ns#"
   xmlns:svg="http://www.w3.org/2000/svg"
   xmlns="http://www.w3.org/2000/svg"
   xmlns:sodipodi="http://sodipodi.sourceforge.net/DTD/sodipodi-0.dtd"
   xmlns:inkscape="http://www.inkscape.org/namespaces/inkscape"
   version="1.1"
   x="0px"
   y="0px"
   width="64.700027"
   height="45.299999"
   viewBox="0 0 64.700027 45.299999"
   enable-background="new 0 0 220 100"
   xml:space="preserve"
   id="svg149"
   inkscape:version="0.91 r13725"
   sodipodi:docname="logo.db.svg"><metadata
     id="metadata164"><rdf:RDF><cc:Work
         rdf:about=""><dc:format>image/svg+xml</dc:format><dc:type
           rdf:resource="http://purl.org/dc/dcmitype/StillImage" /><dc:title></dc:title></cc:Work></rdf:RDF></metadata><defs
     id="defs162" /><sodipodi:namedview
     pagecolor="#ffffff"
     bordercolor="#666666"
     borderopacity="1"
     objecttolerance="10"
     gridtolerance="10"
     guidetolerance="10"
     inkscape:pageopacity="0"
     inkscape:pageshadow="2"
     inkscape:window-width="640"
     inkscape:window-height="480"
     id="namedview160"
     showgrid="false"
     fit-margin-top="0"
     fit-margin-left="0"
     fit-margin-right="0"
     fit-margin-bottom="0"
     inkscape:zoom="2.36"
     inkscape:cx="32.35"
     inkscape:cy="22.65"
     inkscape:window-x="0"
     inkscape:window-y="0"
     inkscape:window-maximized="0"
     inkscape:current-layer="svg149" /><g
     id="DB"
     style="fill:#ffffff"
     transform="translate(-77.65,-27.35)"><path
       d="m 135.85,27.35 -51.7,0 c -3.56,0 -6.5,2.81 -6.5,6.45 l 0,32.33 c 0,3.64 2.95,6.52 6.5,6.52 l 51.7,0 c 3.56,0 6.5,-2.88 6.5,-6.52 l 0,-32.33 c 0.01,-3.64 -2.94,-6.45 -6.5,-6.45 z m 1.78,38.78 c 0,1.03 -0.75,1.86 -1.78,1.86 l -51.7,0 c -1.03,0 -1.78,-0.83 -1.78,-1.86 l 0,-32.33 c 0,-1.03 0.75,-1.85 1.78,-1.85 l 51.7,0 c 1.03,0 1.78,0.82 1.78,1.85 l 0,32.33 z"
       id="path152"
       inkscape:connector-curvature="0" /><g
       id="g154"><path
         d="m 97.44,64.82 -10.89,0 0,-29.65 10.89,0 c 7.67,0 11.9,4.8 11.9,14.69 0,8.58 -2.87,14.9 -11.9,14.96 z m 4.72,-14.34 c 0,-5.97 -0.62,-10.64 -7.05,-10.64 l -1.44,0 0,20.18 2.53,0 c 3.77,0 5.96,-3.02 5.96,-9.54 z"
         id="path156"
         inkscape:connector-curvature="0" /></g><path
       d="m 128.15,49.31 c 2.1,-0.55 5.18,-2.95 5.18,-6.9 0,-0.62 -0.13,-7.23 -8.47,-7.23 l -12.41,0 0,29.64 10.48,0 c 2.78,0 11.43,0 11.43,-8.33 0.01,-2.08 -0.84,-6 -6.21,-7.18 z m -8.64,-9.55 2.24,0 c 3.19,0 4.46,1.11 4.46,3.57 0,1.95 -1.39,3.58 -3.87,3.58 l -2.83,0 0,-7.15 z m 2.92,20.26 -2.92,0 0,-7.62 3.11,0 c 3.7,0 4.6,2.16 4.6,3.81 0,3.81 -3.66,3.81 -4.79,3.81 z"
       id="path158"
       inkscape:connector-curvature="0" /></g></svg>