<?xml version="1.0" encoding="UTF-8" standalone="no"?>
<svg
   xmlns:dc="http://purl.org/dc/elements/1.1/"
   xmlns:cc="http://creativecommons.org/ns#"
   xmlns:rdf="http://www.w3.org/1999/02/22-rdf-syntax-ns#"
   xmlns:svg="http://www.w3.org/2000/svg"
   xmlns="http://www.w3.org/2000/svg"
   xmlns:sodipodi="http://sodipodi.sourceforge.net/DTD/sodipodi-0.dtd"
   xmlns:inkscape="http://www.inkscape.org/namespaces/inkscape"
   version="1.1"
   x="0px"
   y="0px"
   width="64.370003"
   height="57.459999"
   viewBox="0 0 64.370003 57.459999"
   enable-background="new 0 0 220 100"
   xml:space="preserve"
   id="svg183"
   inkscape:version="0.91 r13725"
   sodipodi:docname="logo.dpc.svg"><metadata
     id="metadata200"><rdf:RDF><cc:Work
         rdf:about=""><dc:format>image/svg+xml</dc:format><dc:type
           rdf:resource="http://purl.org/dc/dcmitype/StillImage" /><dc:title></dc:title></cc:Work></rdf:RDF></metadata><defs
     id="defs198" /><sodipodi:namedview
     pagecolor="#ffffff"
     bordercolor="#666666"
     borderopacity="1"
     objecttolerance="10"
     gridtolerance="10"
     guidetolerance="10"
     inkscape:pageopacity="0"
     inkscape:pageshadow="2"
     inkscape:window-width="869"
     inkscape:window-height="480"
     id="namedview196"
     showgrid="false"
     fit-margin-top="0"
     fit-margin-left="0"
     fit-margin-right="0"
     fit-margin-bottom="0"
     inkscape:zoom="2.36"
     inkscape:cx="32.18"
     inkscape:cy="28.73"
     inkscape:window-x="0"
     inkscape:window-y="0"
     inkscape:window-maximized="0"
     inkscape:current-layer="svg183" /><g
     id="DPC"
     style="fill:#ffffff"
     transform="translate(-77.82,-21.27)"><path
       d="m 119.82,64.03 c -0.75,0.75 -1.84,1.12 -3.08,1.12 l -4.18,0 0,-11.9 4.18,0 c 1.23,0 2.32,0.37 3.08,1.12 1.29,1.29 1.2,3.02 1.2,4.75 0,1.72 0.08,3.63 -1.2,4.91 z m -1.24,-8.36 c -0.5,-0.55 -1.17,-0.8 -2.02,-0.8 l -2.19,0 0,8.66 2.19,0 c 0.85,0 1.52,-0.25 2.02,-0.8 0.62,-0.69 0.63,-1.97 0.63,-3.61 0,-1.64 -0.01,-2.76 -0.63,-3.45 z"
       id="path186"
       inkscape:connector-curvature="0" /><path
       d="m 128,60.47 -2.71,0 0,4.68 -1.8,0 0,-11.9 4.51,0 c 2.32,0 3.81,1.54 3.81,3.61 0.01,2.07 -1.48,3.61 -3.81,3.61 z m -0.1,-5.6 -2.61,0 0,3.96 2.61,0 c 1.26,0 2.11,-0.72 2.11,-1.97 0,-1.25 -0.85,-1.99 -2.11,-1.99 z"
       id="path188"
       inkscape:connector-curvature="0" /><path
       d="m 137.94,65.25 c -1.23,0 -2.3,-0.45 -3.13,-1.27 -1.17,-1.17 -1.15,-2.49 -1.15,-4.78 0,-2.29 -0.02,-3.61 1.15,-4.78 0.82,-0.82 1.89,-1.27 3.13,-1.27 2.19,0 3.83,1.29 4.25,3.66 l -1.84,0 c -0.29,-1.2 -1.09,-2.04 -2.41,-2.04 -0.7,0 -1.34,0.27 -1.76,0.72 -0.58,0.64 -0.72,1.32 -0.72,3.71 0,2.39 0.14,3.07 0.72,3.71 0.42,0.45 1.05,0.72 1.76,0.72 1.32,0 2.14,-0.84 2.43,-2.04 l 1.82,0 c -0.41,2.37 -2.1,3.66 -4.25,3.66 z"
       id="path190"
       inkscape:connector-curvature="0" /><path
       d="m 125.48,28.03 c -0.78,-1.69 -1.78,-3 -3.03,-3.91 -1.48,-1.21 -2.94,-2.01 -4.38,-2.4 -1.45,-0.3 -2.95,-0.45 -4.5,-0.45 l -14.3,0 0,19.04 -9.1,0 c -4.06,0.07 -7.15,1.41 -9.26,4.02 -2.06,2.47 -3.09,5.22 -3.09,8.24 0,2.23 0.41,4.17 1.22,5.81 0.77,1.7 1.78,3 3.02,3.91 1.48,1.21 2.94,2.01 4.39,2.4 1.45,0.29 2.95,0.45 4.5,0.45 l 14.3,0 0,-19.04 9.1,0 c 4.06,-0.07 7.15,-1.41 9.26,-4.02 2.06,-2.47 3.09,-5.22 3.09,-8.24 -0.01,-2.24 -0.42,-4.17 -1.22,-5.81 z m -26.21,31.29 -8.65,0 c -1.63,0.04 -3.06,-0.35 -4.29,-1.15 -0.81,-0.49 -1.44,-1.15 -1.89,-1.99 -0.44,-0.94 -0.65,-2.09 -0.65,-3.45 0,-1.64 0.53,-3.14 1.6,-4.49 1.12,-1.38 2.79,-2.1 5.01,-2.13 l 8.87,0 0,13.21 z m 19.85,-21.16 c -1.12,1.38 -2.79,2.1 -5.01,2.13 l -8.87,0 0,-13.21 8.65,0 c 1.63,-0.04 3.05,0.35 4.28,1.15 0.81,0.49 1.45,1.15 1.9,1.99 0.44,0.94 0.65,2.09 0.65,3.45 0,1.65 -0.53,3.14 -1.6,4.49 z"
       id="path192"
       inkscape:connector-curvature="0" /><path
       d="m 99.28,78.73 0,-10.62 5.98,0 0,5.72 -5.98,4.9 z"
       id="path194"
       inkscape:connector-curvature="0" /></g></svg>