<?xml version="1.0" encoding="UTF-8" standalone="no"?>
<svg
   xmlns:dc="http://purl.org/dc/elements/1.1/"
   xmlns:cc="http://creativecommons.org/ns#"
   xmlns:rdf="http://www.w3.org/1999/02/22-rdf-syntax-ns#"
   xmlns:svg="http://www.w3.org/2000/svg"
   xmlns="http://www.w3.org/2000/svg"
   xmlns:sodipodi="http://sodipodi.sourceforge.net/DTD/sodipodi-0.dtd"
   xmlns:inkscape="http://www.inkscape.org/namespaces/inkscape"
   version="1.1"
   x="0px"
   y="0px"
   width="88.980003"
   height="39.209999"
   viewBox="0 0 88.980003 39.209999"
   enable-background="new 0 0 220 100"
   xml:space="preserve"
   id="svg75"
   inkscape:version="0.91 r13725"
   sodipodi:docname="logo.giinco.svg"><metadata
     id="metadata98"><rdf:RDF><cc:Work
         rdf:about=""><dc:format>image/svg+xml</dc:format><dc:type
           rdf:resource="http://purl.org/dc/dcmitype/StillImage" /><dc:title></dc:title></cc:Work></rdf:RDF></metadata><defs
     id="defs96" /><sodipodi:namedview
     pagecolor="#ffffff"
     bordercolor="#666666"
     borderopacity="1"
     objecttolerance="10"
     gridtolerance="10"
     guidetolerance="10"
     inkscape:pageopacity="0"
     inkscape:pageshadow="2"
     inkscape:window-width="640"
     inkscape:window-height="480"
     id="namedview94"
     showgrid="false"
     fit-margin-top="0"
     fit-margin-left="0"
     fit-margin-right="0"
     fit-margin-bottom="0"
     inkscape:zoom="2.36"
     inkscape:cx="44.49"
     inkscape:cy="19.6"
     inkscape:window-x="0"
     inkscape:window-y="0"
     inkscape:window-maximized="0"
     inkscape:current-layer="svg75" /><g
     id="giinco"
     style="fill:#ffffff"
     transform="translate(-65.51,-30.39)"><path
       d="m 83.73,39.48 0,-1.72 -6.47,0 c -0.89,-0.28 -1.87,-0.47 -3.03,-0.47 -4.52,0 -7.68,2.51 -7.68,7.17 0,2.7 1.12,4.71 2.93,5.87 -1.3,1.12 -2.61,2.56 -2.61,4.7 0,1.02 0.37,1.86 1.02,2.46 0.3,0.26 0.72,0.54 1.32,0.74 0.68,0.23 1.17,0.31 2.39,0.34 l 4.58,0 c 2.84,0 4.33,1.21 4.33,3.77 0,3.35 -2.14,5.03 -6.38,5.03 -4.56,0 -5.82,-1.68 -5.82,-4.19 0,-1.12 0.27,-2.01 0.71,-2.77 -0.3,-0.05 -0.56,-0.12 -0.86,-0.22 -0.51,-0.17 -0.9,-0.4 -1.18,-0.63 -0.86,0.97 -1.47,2.2 -1.47,3.8 0,3.63 2.7,6.24 8.66,6.24 6.01,0 9.18,-2.79 9.18,-7.31 0,-4.19 -2.75,-6.33 -7.5,-6.33 l -4.47,0 c -1.44,0 -1.91,-0.6 -1.91,-1.49 0,-1.25 0.79,-2.51 1.68,-3.4 0.93,0.32 1.96,0.46 3.07,0.46 4.47,0 7.55,-2.47 7.55,-7.08 0,-1.67 -0.47,-3.21 -1.35,-4.42 l 3.31,-0.55 0,0 z m -4.8,4.89 c 0,3.59 -1.86,5.08 -4.8,5.08 -2.79,0 -4.75,-1.31 -4.75,-4.89 0,-3.63 1.91,-5.03 4.8,-5.03 3.03,-0.01 4.75,1.16 4.75,4.84 l 0,0 z"
       id="path78"
       inkscape:connector-curvature="0" /><polygon
       points="86.66,37.75 86.66,39.52 89.83,39.94 89.83,60.02 89.83,60.02 92.63,60.02 92.63,37.75 "
       id="polygon80" /><path
       d="m 90.61,34.29 c 1.13,0 1.93,-0.84 1.93,-1.93 0,-1.13 -0.79,-1.97 -1.93,-1.97 -1.09,0 -1.89,0.84 -1.89,1.97 0.01,1.09 0.81,1.93 1.89,1.93 l 0,0 z"
       id="path82"
       inkscape:connector-curvature="0" /><path
       d="m 116.43,60.02 0,-17 c 0,-3.87 -2.33,-5.73 -5.5,-5.73 -1.77,0 -3.38,0.65 -4.88,1.68 l 0,2.29 c 1.37,-0.9 2.79,-1.5 4.22,-1.5 2.29,0 3.36,1.02 3.36,4 l 0,16.26 2.8,0 0,0 z"
       id="path84"
       inkscape:connector-curvature="0" /><path
       d="m 134.55,39.06 c -1.44,-1.14 -3.06,-1.77 -5.31,-1.77 -5.08,0 -8.71,3.21 -8.71,11.64 0,8.34 3.59,11.55 8.71,11.55 2.3,0 4.02,-0.66 5.36,-1.68 -0.35,-0.77 -0.65,-1.62 -0.9,-2.54 -1,0.97 -2.22,1.84 -4.31,1.84 -3.96,0 -5.91,-2.14 -5.91,-9.27 0,-7.12 2,-9.17 5.68,-9.17 2.11,0 3.27,0.69 4.51,1.98 0.23,-0.93 0.53,-1.79 0.88,-2.58 l 0,0 z"
       id="path86"
       inkscape:connector-curvature="0" /><path
       d="m 154.49,48.88 c 0,-8.29 -3.82,-11.6 -8.94,-11.6 -5.17,0 -8.8,3.36 -8.8,11.64 0,8.25 3.73,11.55 8.89,11.55 5.21,0.01 8.85,-3.34 8.85,-11.59 l 0,0 z m -2.94,0.1 c 0,6.99 -2.05,9.27 -5.92,9.27 -3.86,0 -5.96,-2.38 -5.96,-9.41 0,-7.04 2.05,-9.32 5.92,-9.32 3.87,0 5.96,2.42 5.96,9.46 l 0,0 z"
       id="path88"
       inkscape:connector-curvature="0" /><polygon
       points="97.31,37.75 97.31,39.52 100.47,39.94 100.47,60.02 100.47,60.02 103.27,60.02 103.27,37.75 "
       id="polygon90" /><path
       d="m 101.26,34.29 c 1.13,0 1.93,-0.84 1.93,-1.93 0,-1.13 -0.8,-1.97 -1.93,-1.97 -1.09,0 -1.89,0.84 -1.89,1.97 0.01,1.09 0.8,1.93 1.89,1.93 l 0,0 z"
       id="path92"
       inkscape:connector-curvature="0" /></g></svg>