<?xml version="1.0" encoding="UTF-8" standalone="no"?>
<svg
   xmlns:dc="http://purl.org/dc/elements/1.1/"
   xmlns:cc="http://creativecommons.org/ns#"
   xmlns:rdf="http://www.w3.org/1999/02/22-rdf-syntax-ns#"
   xmlns:svg="http://www.w3.org/2000/svg"
   xmlns="http://www.w3.org/2000/svg"
   viewBox="0 0 570.57166 131.60338"
   height="131.60338"
   width="570.57166"
   xml:space="preserve"
   version="1.1"
   id="svg2"><metadata
     id="metadata8"><rdf:RDF><cc:Work
         rdf:about=""><dc:format>image/svg+xml</dc:format><dc:type
           rdf:resource="http://purl.org/dc/dcmitype/StillImage" /><dc:title></dc:title></cc:Work></rdf:RDF></metadata><defs
     id="defs6"><clipPath
       id="clipPath34"
       clipPathUnits="userSpaceOnUse"><path
         id="path36"
         d="m 0,127.552 481.89,0 L 481.89,0 0,0 0,127.552 Z" /></clipPath></defs><g
     transform="matrix(1.25,0,0,-1.25,-17.321,143.62375)"
     id="g10"><g
       style="fill:#ffffff"
       transform="translate(66.5894,107.5781)"
       id="g12"><path
         id="path14"
         style="fill:#ffffff;fill-opacity:1;fill-rule:nonzero;stroke:none"
         d="m 0,0 0,-60.247 -4.701,0 0,28.546 -40.198,0 0,-28.546 -4.658,0 0,60.247 4.658,0 0,-27.819 40.198,0 L -4.701,0 0,0 Z" /></g><g
       style="fill:#ffffff"
       transform="translate(182.5806,107.5781)"
       id="g16"><path
         id="path18"
         style="fill:#ffffff;fill-opacity:1;fill-rule:nonzero;stroke:none"
         d="m 0,0 0,-3.882 -26.353,0 0,-22.902 23.765,0 0,-3.882 -23.765,0 0,-29.581 -4.658,0 0,60.247 L 0,0 Z" /></g><g
       style="fill:#ffffff"
       transform="translate(194.2598,107.5781)"
       id="g20"><path
         id="path22"
         style="fill:#ffffff;fill-opacity:1;fill-rule:nonzero;stroke:none"
         d="m 0,0 0,-56.368 29.803,0 0,-3.879 -34.461,0 L -4.658,0 0,0 Z" /></g><path
       id="path24"
       style="fill:#ffffff;fill-opacity:1;fill-rule:nonzero;stroke:none"
       d="m 235.339,47.331 -4.658,0 0,60.247 4.658,0 0,-60.247 z" /><g
       style="fill:#ffffff"
       transform="translate(303.3882,107.5781)"
       id="g26"><path
         id="path28"
         style="fill:#ffffff;fill-opacity:1;fill-rule:nonzero;stroke:none"
         d="m 0,0 0,-60.247 -3.834,0 -45.815,52.656 0,-52.656 -4.658,0 0,60.247 3.946,0 L -4.658,-52.663 -4.658,0 0,0 Z" /></g><g
       style="fill:#ffffff"
       id="g30"><g
         style="fill:#ffffff"
         clip-path="url(#clipPath34)"
         id="g32"><g
           style="fill:#ffffff"
           transform="translate(366.9526,103.2217)"
           id="g38"><path
             id="path40"
             style="fill:#ffffff;fill-opacity:1;fill-rule:nonzero;stroke:none"
             d="m 0,0 0,-5.262 c -7.131,4.054 -14.248,6.081 -21.35,6.081 -7.619,0 -13.959,-2.53 -19.019,-7.59 -5.061,-5.062 -7.592,-11.402 -7.592,-19.021 0,-7.62 2.502,-13.953 7.506,-18.999 5.002,-5.047 11.803,-7.564 20.4,-7.564 6.211,0 11.717,1.233 16.52,3.704 l 0,16.259 -12.725,0 0,3.882 17.426,0 0,-23.071 c -7.103,-3.39 -14.234,-5.086 -21.393,-5.086 -9.345,0 -17.144,2.96 -23.398,8.878 -6.254,5.923 -9.381,13.312 -9.381,22.169 0,8.799 3.068,16.124 9.207,21.975 6.139,5.851 13.852,8.778 23.141,8.778 C -14.334,5.133 -7.447,3.422 0,0" /></g><g
           style="fill:#ffffff"
           transform="translate(413.1929,107.5781)"
           id="g42"><path
             id="path44"
             style="fill:#ffffff;fill-opacity:1;fill-rule:nonzero;stroke:none"
             d="m 0,0 0,-3.882 -28.207,0 0,-24.11 27.475,0 0,-3.925 -27.475,0 0,-24.451 28.898,0 0,-3.879 -33.556,0 0,60.247 L 0,0 Z" /></g><g
           style="fill:#ffffff"
           transform="translate(426.9233,103.6963)"
           id="g46"><path
             id="path48"
             style="fill:#ffffff;fill-opacity:1;fill-rule:nonzero;stroke:none"
             d="m 0,0 0,-23.593 10.006,0 c 5.09,0 8.976,1.028 11.666,3.084 2.689,2.056 4.033,4.967 4.033,8.735 0,3.709 -1.367,6.598 -4.098,8.669 C 18.875,-1.035 14.951,0 9.832,0 L 0,0 Z m -4.658,3.882 15.439,0 c 6.471,0 11.416,-1.403 14.838,-4.205 3.42,-2.804 5.133,-6.593 5.133,-11.365 0,-6.959 -3.826,-11.847 -11.473,-14.666 1.983,-0.948 4.657,-4.01 8.022,-9.186 l 13.629,-20.825 -5.514,0 -10.496,16.507 c -3.506,5.522 -6.236,8.966 -8.191,10.334 -1.956,1.366 -4.815,2.049 -8.581,2.049 l -8.148,0 0,-28.89 -4.658,0 0,60.247 z" /></g><g
           style="fill:#ffffff"
           transform="translate(131.708,99.3613)"
           id="g50"><path
             id="path52"
             style="fill:#ffffff;fill-opacity:1;fill-rule:nonzero;stroke:none"
             d="m 0,0 c -4.304,4.167 -9.267,6.883 -14.883,8.153 l 0,-4.465 c 4.278,-1.178 8.076,-3.41 11.389,-6.707 5.157,-5.132 7.736,-11.437 7.736,-18.913 0,-7.447 -2.579,-13.737 -7.736,-18.87 -5.157,-5.133 -11.485,-7.693 -18.984,-7.693 -7.527,0 -13.898,2.56 -19.113,7.693 -5.215,5.133 -7.822,11.423 -7.822,18.87 0,7.476 2.607,13.781 7.822,18.913 3.312,3.259 7.091,5.479 11.335,6.669 l 0,4.532 C -35.908,6.924 -40.896,4.2 -45.214,0 c -6.163,-5.995 -9.245,-13.306 -9.245,-21.932 0,-8.597 3.082,-15.893 9.245,-21.888 6.164,-5.989 13.685,-8.987 22.564,-8.987 8.908,0 16.458,2.998 22.65,8.987 6.192,5.995 9.289,13.291 9.289,21.888 C 9.289,-13.306 6.192,-5.995 0,0" /></g><g
           style="fill:#ffffff"
           transform="translate(20.5708,31.998)"
           id="g54"><path
             id="path56"
             style="fill:#ffffff;fill-opacity:1;fill-rule:nonzero;stroke:none"
             d="m 0,0 -6.714,0 0,1.029 14.535,0 0,-1.029 -6.715,0 0,-16.979 -1.106,0 L 0,0 Z" /></g><g
           style="fill:#ffffff"
           transform="translate(42.3389,22.6338)"
           id="g58"><path
             id="path60"
             style="fill:#ffffff;fill-opacity:1;fill-rule:nonzero;stroke:none"
             d="M 0,0 C -0.129,3.139 -2.007,4.554 -4.142,4.554 -6.509,4.554 -8.696,3.01 -9.159,0 L 0,0 Z m -4.116,5.557 c 3.498,0 5.248,-2.753 5.248,-5.866 0,-0.283 -0.052,-0.695 -0.052,-0.695 l -10.316,0 c 0,-3.729 2.521,-5.865 5.506,-5.865 2.469,0 3.987,1.621 3.987,1.621 l 0.592,-0.9 c 0,0 -1.801,-1.776 -4.579,-1.776 -3.628,0 -6.638,2.624 -6.638,6.715 0,4.348 2.959,6.766 6.252,6.766" /></g><g
           style="fill:#ffffff"
           transform="translate(57.0186,28.1904)"
           id="g62"><path
             id="path64"
             style="fill:#ffffff;fill-opacity:1;fill-rule:nonzero;stroke:none"
             d="M 0,0 C 3.062,0 4.605,-1.826 4.605,-1.826 L 3.936,-2.701 c 0,0 -1.466,1.646 -3.936,1.646 -3.01,0 -5.505,-2.238 -5.505,-5.711 0,-3.422 2.495,-5.66 5.505,-5.66 2.83,0 4.296,1.853 4.296,1.853 l 0.566,-0.901 c 0,0 -1.672,-2.006 -4.862,-2.006 -3.627,0 -6.638,2.624 -6.638,6.714 C -6.638,-2.676 -3.576,0 0,0" /></g><g
           style="fill:#ffffff"
           transform="translate(69.2061,33.0273)"
           id="g66"><path
             id="path68"
             style="fill:#ffffff;fill-opacity:1;fill-rule:nonzero;stroke:none"
             d="m 0,0 1.08,0 0,-7.409 c 0,-0.592 -0.102,-1.055 -0.102,-1.055 l 0.051,0 c 0.437,1.209 2.238,3.627 5.454,3.627 3.344,0 4.245,-1.98 4.245,-5.017 l 0,-8.155 -1.081,0 0,7.77 c 0,2.238 -0.283,4.347 -3.164,4.347 -2.419,0 -4.554,-1.698 -5.197,-4.09 -0.154,-0.54 -0.206,-1.132 -0.206,-1.749 l 0,-6.278 -1.08,0 L 0,0 Z" /></g><g
           style="fill:#ffffff"
           transform="translate(88.4473,27.8818)"
           id="g70"><path
             id="path72"
             style="fill:#ffffff;fill-opacity:1;fill-rule:nonzero;stroke:none"
             d="m 0,0 1.08,0 0,-2.264 c 0,-0.591 -0.102,-1.054 -0.102,-1.054 l 0.051,0 c 0.437,1.209 2.238,3.627 5.454,3.627 3.344,0 4.245,-1.981 4.245,-5.017 l 0,-8.155 -1.081,0 0,7.769 c 0,2.239 -0.283,4.348 -3.164,4.348 -2.419,0 -4.554,-1.698 -5.197,-4.091 C 1.132,-5.377 1.08,-5.969 1.08,-6.586 l 0,-6.277 -1.08,0 L 0,0 Z" /></g><g
           style="fill:#ffffff"
           transform="translate(113.4717,15.7646)"
           id="g74"><path
             id="path76"
             style="fill:#ffffff;fill-opacity:1;fill-rule:nonzero;stroke:none"
             d="m 0,0 c 3.062,0 5.531,2.495 5.531,5.763 0,3.19 -2.469,5.608 -5.531,5.608 -3.062,0 -5.531,-2.418 -5.531,-5.608 C -5.531,2.495 -3.062,0 0,0 m 0,12.426 c 3.679,0 6.663,-2.907 6.663,-6.663 0,-3.833 -2.984,-6.818 -6.663,-6.818 -3.679,0 -6.663,2.985 -6.663,6.818 0,3.756 2.984,6.663 6.663,6.663" /></g><g
           style="fill:#ffffff"
           transform="translate(127.8076,33.0273)"
           id="g78"><path
             id="path80"
             style="fill:#ffffff;fill-opacity:1;fill-rule:nonzero;stroke:none"
             d="m 0,0 1.081,0 0,-15.076 c 0,-1.801 0.926,-2.007 1.518,-2.007 0.205,0 0.385,0.026 0.385,0.026 l 0,-1.004 c 0,0 -0.231,-0.05 -0.463,-0.05 C 1.775,-18.111 0,-17.829 0,-15.41 L 0,0 Z" /></g><g
           style="fill:#ffffff"
           transform="translate(143.5083,15.7646)"
           id="g82"><path
             id="path84"
             style="fill:#ffffff;fill-opacity:1;fill-rule:nonzero;stroke:none"
             d="m 0,0 c 3.062,0 5.531,2.495 5.531,5.763 0,3.19 -2.469,5.608 -5.531,5.608 -3.062,0 -5.531,-2.418 -5.531,-5.608 C -5.531,2.495 -3.062,0 0,0 m 0,12.426 c 3.679,0 6.663,-2.907 6.663,-6.663 0,-3.833 -2.984,-6.818 -6.663,-6.818 -3.679,0 -6.663,2.985 -6.663,6.818 0,3.756 2.984,6.663 6.663,6.663" /></g><g
           style="fill:#ffffff"
           transform="translate(167.229,21.6563)"
           id="g86"><path
             id="path88"
             style="fill:#ffffff;fill-opacity:1;fill-rule:nonzero;stroke:none"
             d="m 0,0 c 0,4.142 -1.955,5.479 -4.476,5.479 -2.753,0 -4.399,-2.006 -4.399,-5.479 0,-3.474 1.903,-5.583 4.656,-5.583 C -1.955,-5.583 0,-4.168 0,0 m -4.914,-10.985 c 2.753,0 4.889,1.311 4.889,4.424 l 0,1.493 c 0,0.591 0.102,1.054 0.102,1.054 l -0.051,0 c -0.772,-1.569 -2.187,-2.624 -4.322,-2.624 -3.345,0 -5.711,2.624 -5.711,6.638 0,4.013 2.186,6.534 5.531,6.534 C -0.823,6.534 0,4.013 0,4.013 l 0.052,0 c 0,0 -0.077,0.18 -0.077,0.489 l 0,1.724 1.08,0 0,-12.787 c 0,-3.936 -2.83,-5.479 -5.891,-5.479 -1.415,0 -2.779,0.36 -4.039,1.003 l 0.514,0.952 c 0,0 1.595,-0.9 3.447,-0.9" /></g><g
           style="fill:#ffffff"
           transform="translate(175.4521,11.2627)"
           id="g90"><path
             id="path92"
             style="fill:#ffffff;fill-opacity:1;fill-rule:nonzero;stroke:none"
             d="m 0,0 c 0,0 0.72,-0.617 1.595,-0.617 1.235,0 2.007,1.105 2.521,2.315 l 0.926,2.135 -5.325,12.786 1.158,0 L 5.119,6.354 C 5.376,5.736 5.583,5.146 5.583,5.146 l 0.051,0 c 0,0 0.18,0.59 0.437,1.208 l 4.245,10.265 1.158,0 L 4.862,0.746 C 4.296,-0.592 3.216,-1.646 1.595,-1.646 c -1.235,0 -2.084,0.719 -2.084,0.719 L 0,0 Z" /></g><g
           style="fill:#ffffff"
           transform="translate(205.4756,27.8818)"
           id="g94"><path
             id="path96"
             style="fill:#ffffff;fill-opacity:1;fill-rule:nonzero;stroke:none"
             d="m 0,0 1.08,0 0,-2.264 c 0,-0.591 -0.102,-1.054 -0.102,-1.054 l 0.051,0 c 0.643,1.928 2.932,3.627 4.939,3.627 2.573,0 3.782,-1.209 4.065,-3.499 l 0.051,0 c 0.721,1.8 2.676,3.499 4.889,3.499 3.318,0 4.296,-1.955 4.296,-5.017 l 0,-8.155 -1.081,0 0,7.769 c 0,2.418 -0.489,4.4 -3.215,4.4 -2.136,0 -3.962,-1.905 -4.528,-3.911 -0.18,-0.592 -0.257,-1.235 -0.257,-1.981 l 0,-6.277 -1.081,0 0,7.769 c 0,2.212 -0.309,4.4 -3.139,4.4 -2.289,0 -4.09,-2.007 -4.682,-4.143 C 1.132,-5.377 1.08,-5.969 1.08,-6.586 l 0,-6.277 -1.08,0 L 0,0 Z" /></g><g
           style="fill:#ffffff"
           transform="translate(242.8437,22.6338)"
           id="g98"><path
             id="path100"
             style="fill:#ffffff;fill-opacity:1;fill-rule:nonzero;stroke:none"
             d="M 0,0 C -0.128,3.139 -2.006,4.554 -4.142,4.554 -6.508,4.554 -8.695,3.01 -9.158,0 L 0,0 Z m -4.116,5.557 c 3.499,0 5.248,-2.753 5.248,-5.866 0,-0.283 -0.051,-0.695 -0.051,-0.695 l -10.316,0 c 0,-3.729 2.521,-5.865 5.505,-5.865 2.47,0 3.987,1.621 3.987,1.621 l 0.592,-0.9 c 0,0 -1.801,-1.776 -4.579,-1.776 -3.627,0 -6.638,2.624 -6.638,6.715 0,4.348 2.959,6.766 6.252,6.766" /></g><g
           style="fill:#ffffff"
           transform="translate(261.2549,22.6338)"
           id="g102"><path
             id="path104"
             style="fill:#ffffff;fill-opacity:1;fill-rule:nonzero;stroke:none"
             d="M 0,0 C -0.129,3.139 -2.007,4.554 -4.143,4.554 -6.509,4.554 -8.696,3.01 -9.159,0 L 0,0 Z m -4.116,5.557 c 3.498,0 5.248,-2.753 5.248,-5.866 0,-0.283 -0.052,-0.695 -0.052,-0.695 l -10.316,0 c 0,-3.729 2.521,-5.865 5.506,-5.865 2.469,0 3.987,1.621 3.987,1.621 l 0.592,-0.9 c 0,0 -1.801,-1.776 -4.579,-1.776 -3.628,0 -6.638,2.624 -6.638,6.715 0,4.348 2.959,6.766 6.252,6.766" /></g><g
           style="fill:#ffffff"
           transform="translate(270.2803,26.8271)"
           id="g106"><path
             id="path108"
             style="fill:#ffffff;fill-opacity:1;fill-rule:nonzero;stroke:none"
             d="m 0,0 -1.698,0 0,0.978 1.698,0 0,3.653 1.08,0 0,-3.653 3.37,0 0,-0.978 -3.37,0 0,-7.075 c 0,-3.396 2.032,-3.833 3.062,-3.833 0.36,0 0.591,0.052 0.591,0.052 l 0,-1.004 c 0,0 -0.256,-0.051 -0.643,-0.051 -1.337,0 -4.09,0.488 -4.09,4.759 L 0,0 Z" /></g><g
           style="fill:#ffffff"
           transform="translate(282.0479,17.3857)"
           id="g110"><path
             id="path112"
             style="fill:#ffffff;fill-opacity:1;fill-rule:nonzero;stroke:none"
             d="m 0,0 c 0,0 1.44,-1.621 3.988,-1.621 1.569,0 2.959,0.823 2.959,2.418 0,3.267 -7.076,2.342 -7.076,6.535 0,2.289 1.93,3.473 4.117,3.473 2.624,0 3.807,-1.39 3.807,-1.39 L 7.152,8.541 c 0,0 -1.055,1.209 -3.241,1.209 -1.467,0 -2.908,-0.669 -2.908,-2.341 0,-3.345 7.076,-2.342 7.076,-6.612 0,-2.058 -1.75,-3.473 -4.117,-3.473 -3.113,0 -4.657,1.853 -4.657,1.853 L 0,0 Z" /></g><g
           style="fill:#ffffff"
           transform="translate(319.0181,22.6338)"
           id="g114"><path
             id="path116"
             style="fill:#ffffff;fill-opacity:1;fill-rule:nonzero;stroke:none"
             d="M 0,0 C -0.129,3.139 -2.007,4.554 -4.143,4.554 -6.509,4.554 -8.695,3.01 -9.159,0 L 0,0 Z m -4.116,5.557 c 3.499,0 5.248,-2.753 5.248,-5.866 0,-0.283 -0.052,-0.695 -0.052,-0.695 l -10.316,0 c 0,-3.729 2.521,-5.865 5.506,-5.865 2.469,0 3.987,1.621 3.987,1.621 l 0.592,-0.9 c 0,0 -1.801,-1.776 -4.579,-1.776 -3.628,0 -6.638,2.624 -6.638,6.715 0,4.348 2.959,6.766 6.252,6.766" /></g><g
           style="fill:#ffffff"
           transform="translate(330.8911,21.8105)"
           id="g118"><path
             id="path120"
             style="fill:#ffffff;fill-opacity:1;fill-rule:nonzero;stroke:none"
             d="m 0,0 -4.143,6.071 1.313,0 3.113,-4.682 C 0.488,1.055 0.72,0.669 0.72,0.669 l 0.051,0 c 0,0 0.232,0.386 0.438,0.72 l 3.113,4.682 1.312,0 L 1.492,0 l 4.631,-6.792 -1.338,0 -3.551,5.325 c -0.231,0.361 -0.463,0.746 -0.463,0.746 l -0.051,0 c 0,0 -0.205,-0.36 -0.463,-0.746 l -3.55,-5.325 -1.338,0 L 0,0 Z" /></g><g
           style="fill:#ffffff"
           transform="translate(349.5942,15.7646)"
           id="g122"><path
             id="path124"
             style="fill:#ffffff;fill-opacity:1;fill-rule:nonzero;stroke:none"
             d="m 0,0 c 2.521,0 4.579,2.084 4.579,5.686 0,3.472 -1.851,5.685 -4.475,5.685 -2.368,0 -4.581,-1.672 -4.581,-5.711 C -4.477,2.804 -2.881,0 0,0 m -5.531,12.117 1.081,0 0,-1.544 c 0,-0.592 -0.077,-1.029 -0.077,-1.029 l 0.05,0 c 0,0 1.055,2.882 4.631,2.882 3.448,0 5.557,-2.753 5.557,-6.74 0,-4.091 -2.393,-6.741 -5.711,-6.741 -3.345,0 -4.502,2.908 -4.502,2.908 l -0.052,0 c 0,0 0.104,-0.463 0.104,-1.132 l 0,-6.613 -1.081,0 0,18.009 z" /></g><g
           style="fill:#ffffff"
           transform="translate(372.7827,22.6338)"
           id="g126"><path
             id="path128"
             style="fill:#ffffff;fill-opacity:1;fill-rule:nonzero;stroke:none"
             d="M 0,0 C -0.129,3.139 -2.007,4.554 -4.143,4.554 -6.509,4.554 -8.695,3.01 -9.159,0 L 0,0 Z m -4.116,5.557 c 3.498,0 5.248,-2.753 5.248,-5.866 0,-0.283 -0.052,-0.695 -0.052,-0.695 l -10.316,0 c 0,-3.729 2.521,-5.865 5.506,-5.865 2.469,0 3.987,1.621 3.987,1.621 l 0.592,-0.9 c 0,0 -1.801,-1.776 -4.579,-1.776 -3.628,0 -6.638,2.624 -6.638,6.715 0,4.348 2.959,6.766 6.252,6.766" /></g><g
           style="fill:#ffffff"
           transform="translate(381.7075,27.8818)"
           id="g130"><path
             id="path132"
             style="fill:#ffffff;fill-opacity:1;fill-rule:nonzero;stroke:none"
             d="m 0,0 1.081,0 0,-2.444 c 0,-0.592 -0.103,-1.055 -0.103,-1.055 l 0.051,0 c 0.644,1.981 2.084,3.602 4.117,3.602 0.385,0 0.746,-0.078 0.746,-0.078 l 0,-1.08 c 0,0 -0.309,0.051 -0.592,0.051 -2.007,0 -3.268,-1.697 -3.833,-3.601 C 1.184,-5.506 1.081,-6.457 1.081,-7.307 l 0,-5.556 -1.081,0 L 0,0 Z" /></g><path
           id="path134"
           style="fill:#ffffff;fill-opacity:1;fill-rule:nonzero;stroke:none"
           d="m 394.535,27.882 1.081,0 0,-12.863 -1.081,0 0,12.863 z m -0.103,5.145 1.286,0 0,-1.878 -1.286,0 0,1.878 z" /><g
           style="fill:#ffffff"
           transform="translate(413.7427,22.6338)"
           id="g136"><path
             id="path138"
             style="fill:#ffffff;fill-opacity:1;fill-rule:nonzero;stroke:none"
             d="M 0,0 C -0.129,3.139 -2.007,4.554 -4.143,4.554 -6.509,4.554 -8.695,3.01 -9.159,0 L 0,0 Z m -4.116,5.557 c 3.499,0 5.248,-2.753 5.248,-5.866 0,-0.283 -0.052,-0.695 -0.052,-0.695 l -10.316,0 c 0,-3.729 2.521,-5.865 5.506,-5.865 2.469,0 3.987,1.621 3.987,1.621 l 0.592,-0.9 c 0,0 -1.801,-1.776 -4.579,-1.776 -3.628,0 -6.638,2.624 -6.638,6.715 0,4.348 2.959,6.766 6.252,6.766" /></g><g
           style="fill:#ffffff"
           transform="translate(422.6675,27.8818)"
           id="g140"><path
             id="path142"
             style="fill:#ffffff;fill-opacity:1;fill-rule:nonzero;stroke:none"
             d="m 0,0 1.081,0 0,-2.264 c 0,-0.591 -0.103,-1.054 -0.103,-1.054 l 0.051,0 c 0.438,1.209 2.239,3.627 5.454,3.627 3.345,0 4.246,-1.981 4.246,-5.017 l 0,-8.155 -1.082,0 0,7.769 c 0,2.239 -0.283,4.348 -3.164,4.348 -2.418,0 -4.553,-1.698 -5.197,-4.091 -0.154,-0.54 -0.205,-1.132 -0.205,-1.749 l 0,-6.277 -1.081,0 L 0,0 Z" /></g><g
           style="fill:#ffffff"
           transform="translate(447.7388,28.1904)"
           id="g144"><path
             id="path146"
             style="fill:#ffffff;fill-opacity:1;fill-rule:nonzero;stroke:none"
             d="M 0,0 C 3.062,0 4.604,-1.826 4.604,-1.826 L 3.936,-2.701 c 0,0 -1.466,1.646 -3.936,1.646 -3.01,0 -5.506,-2.238 -5.506,-5.711 0,-3.422 2.496,-5.66 5.506,-5.66 2.83,0 4.296,1.853 4.296,1.853 l 0.566,-0.901 c 0,0 -1.672,-2.006 -4.862,-2.006 -3.628,0 -6.638,2.624 -6.638,6.714 C -6.638,-2.676 -3.576,0 0,0" /></g><g
           style="fill:#ffffff"
           transform="translate(469.1821,22.6338)"
           id="g148"><path
             id="path150"
             style="fill:#ffffff;fill-opacity:1;fill-rule:nonzero;stroke:none"
             d="M 0,0 C -0.129,3.139 -2.007,4.554 -4.143,4.554 -6.509,4.554 -8.695,3.01 -9.159,0 L 0,0 Z m -4.116,5.557 c 3.499,0 5.248,-2.753 5.248,-5.866 0,-0.283 -0.052,-0.695 -0.052,-0.695 l -10.316,0 c 0,-3.729 2.521,-5.865 5.506,-5.865 2.469,0 3.987,1.621 3.987,1.621 l 0.592,-0.9 c 0,0 -1.801,-1.776 -4.579,-1.776 -3.628,0 -6.638,2.624 -6.638,6.715 0,4.348 2.959,6.766 6.252,6.766" /></g></g></g><path
       id="path152"
       style="fill:#ffffff;fill-opacity:1;fill-rule:nonzero;stroke:none"
       d="m 111.467,84.588 -4.658,0 0,30.311 4.658,0 0,-30.311 z" /></g></svg>