<?xml version="1.0" encoding="UTF-8" standalone="no"?>
<svg
   xmlns:dc="http://purl.org/dc/elements/1.1/"
   xmlns:cc="http://creativecommons.org/ns#"
   xmlns:rdf="http://www.w3.org/1999/02/22-rdf-syntax-ns#"
   xmlns:svg="http://www.w3.org/2000/svg"
   xmlns="http://www.w3.org/2000/svg"
   xmlns:sodipodi="http://sodipodi.sourceforge.net/DTD/sodipodi-0.dtd"
   xmlns:inkscape="http://www.inkscape.org/namespaces/inkscape"
   version="1.1"
   x="0px"
   y="0px"
   width="195.64999"
   height="37.291233"
   viewBox="0 0 195.64999 37.291233"
   enable-background="new 0 0 220 100"
   xml:space="preserve"
   id="svg100"
   inkscape:version="0.91 r13725"
   sodipodi:docname="logo.hsrm.svg"><metadata
     id="metadata147"><rdf:RDF><cc:Work
         rdf:about=""><dc:format>image/svg+xml</dc:format><dc:type
           rdf:resource="http://purl.org/dc/dcmitype/StillImage" /><dc:title></dc:title></cc:Work></rdf:RDF></metadata><defs
     id="defs145" /><sodipodi:namedview
     pagecolor="#ffffff"
     bordercolor="#666666"
     borderopacity="1"
     objecttolerance="10"
     gridtolerance="10"
     guidetolerance="10"
     inkscape:pageopacity="0"
     inkscape:pageshadow="2"
     inkscape:window-width="640"
     inkscape:window-height="480"
     id="namedview143"
     showgrid="false"
     fit-margin-top="0"
     fit-margin-left="0"
     fit-margin-right="0"
     fit-margin-bottom="0"
     inkscape:zoom="2.36"
     inkscape:cx="97.82"
     inkscape:cy="18.65"
     inkscape:window-x="0"
     inkscape:window-y="0"
     inkscape:window-maximized="0"
     inkscape:current-layer="svg100" /><g
     id="HSRM"
     style="fill:#ffffff"
     transform="translate(-12.18,-31.358767)"><path
       d="m 49.33,49.19 -1,-1.72 C 48.1,47.09 47.68,46.83 47.19,46.82 l 0,0 -13.5,0 2.18,-3.78 c 0.24,-0.41 0.23,-0.9 0.01,-1.3 l 0,0 -1,-1.73 C 34.76,39.79 34.59,39.6 34.36,39.46 34.13,39.33 33.88,39.27 33.63,39.28 l -1.99,0 c -0.45,0.01 -0.88,0.25 -1.13,0.66 l -2.18,3.78 -6.75,-11.7 0,0 c -0.24,-0.41 -0.67,-0.65 -1.12,-0.66 l -2,0 c -0.25,-0.01 -0.5,0.04 -0.73,0.18 -0.23,0.13 -0.4,0.33 -0.52,0.54 l -1,1.72 c -0.22,0.39 -0.23,0.89 0.01,1.31 l 6.76,11.7 -8.45,0 c -0.48,0 -0.9,0.27 -1.14,0.65 l -1,1.72 c -0.13,0.21 -0.21,0.46 -0.21,0.72 0,0.27 0.08,0.52 0.21,0.72 l 1,1.73 0,0 c 0.23,0.38 0.65,0.63 1.13,0.64 l 8.45,0 -6.76,11.71 c -0.23,0.42 -0.22,0.91 -0.01,1.3 l 0,0.01 1,1.72 c 0.11,0.22 0.29,0.41 0.52,0.54 0.23,0.13 0.48,0.19 0.73,0.18 l 2,0 c 0.45,-0.01 0.88,-0.25 1.12,-0.66 l 6.75,-11.7 2.18,3.78 c 0.24,0.41 0.68,0.65 1.13,0.66 l 1.99,0 c 0.25,0.01 0.5,-0.05 0.73,-0.18 0.23,-0.13 0.41,-0.32 0.52,-0.54 l 1,-1.73 0,0 c 0.22,-0.39 0.22,-0.88 -0.01,-1.3 l 0,0 L 33.68,53 47.2,53 c 0.48,0 0.9,-0.26 1.13,-0.64 l 1,-1.73 c 0.13,-0.21 0.21,-0.46 0.21,-0.72 0,-0.26 -0.07,-0.51 -0.21,-0.72"
       id="path103"
       inkscape:connector-curvature="0" /><polygon
       points="56.34,62.21 56.34,57.44 57.59,57.44 57.59,68.44 56.34,68.44 56.34,63.3 50.77,63.3 50.77,68.44 49.52,68.44 49.52,57.44 50.77,57.44 50.77,62.21 "
       id="polygon105" /><path
       d="m 65.03,65.57 0,-2.05 c 0,-1.17 -0.7,-2 -2.08,-2 -1.28,0 -2.07,0.75 -2.07,2.06 l 0,2.04 c 0,1.22 0.74,2.03 2.11,2.03 1.29,0 2.04,-0.69 2.04,-2.08 m -5.31,0.08 0,-2.01 c 0,-2.04 1.48,-3.1 3.22,-3.1 1.91,0 3.25,1.13 3.25,3.09 l 0,1.9 c 0,2.02 -1.45,3.12 -3.21,3.12 -1.88,-0.01 -3.26,-1.04 -3.26,-3"
       id="path107"
       inkscape:connector-curvature="0" /><path
       d="m 67.86,65.51 0,-1.73 c 0,-2.05 1.33,-3.24 3.21,-3.24 1.77,0 3.05,1 3.05,2.68 l 0,0.2 -1.11,0 0,-0.26 c 0,-0.87 -0.65,-1.66 -1.93,-1.66 -1.28,0 -2.04,0.88 -2.04,2.17 l 0,1.86 c 0,1.25 0.67,2.12 2.05,2.12 1.28,0 1.92,-0.79 1.92,-1.65 l 0,-0.22 1.11,0 0,0.17 c 0,1.67 -1.24,2.68 -3.03,2.68 -1.92,0.01 -3.23,-1.12 -3.23,-3.12"
       id="path109"
       inkscape:connector-curvature="0" /><path
       d="m 75.95,57.42 1.14,0 0,4.62 0.05,0 c 0.52,-1 1.51,-1.51 2.5,-1.51 1.65,0 2.48,1.08 2.48,2.56 l 0,5.35 -1.15,0 0,-4.92 c 0,-1.37 -0.65,-1.99 -1.68,-1.99 -1.17,0 -2.19,0.88 -2.19,2.34 l 0,4.57 -1.14,0 0,-11.02 z"
       id="path111"
       inkscape:connector-curvature="0" /><path
       d="m 83.89,67.39 0.79,-0.65 c 0.62,0.63 1.35,0.96 2.34,0.96 0.92,0 1.88,-0.48 1.88,-1.39 0,-0.87 -0.54,-1.11 -1.6,-1.31 l -0.9,-0.19 c -1.34,-0.26 -2.18,-0.88 -2.18,-1.99 0,-1.34 1.1,-2.31 2.78,-2.31 1.18,0 2.1,0.28 2.7,0.97 l -0.79,0.6 c -0.49,-0.43 -1.09,-0.68 -1.97,-0.68 -0.94,0 -1.59,0.51 -1.59,1.25 0,0.74 0.63,0.99 1.68,1.2 l 1.15,0.25 c 1.14,0.25 1.9,0.86 1.9,2.01 0,1.68 -1.56,2.52 -3.05,2.52 -1.26,-0.01 -2.41,-0.34 -3.14,-1.24"
       id="path113"
       inkscape:connector-curvature="0" /><path
       d="m 91.65,65.51 0,-1.73 c 0,-2.05 1.33,-3.24 3.21,-3.24 1.77,0 3.05,1 3.05,2.68 l 0,0.2 -1.11,0 0,-0.26 c 0,-0.87 -0.65,-1.66 -1.93,-1.66 -1.28,0 -2.04,0.88 -2.04,2.17 l 0,1.86 c 0,1.25 0.66,2.12 2.05,2.12 1.28,0 1.92,-0.79 1.92,-1.65 l 0,-0.22 1.11,0 0,0.17 c 0,1.67 -1.23,2.68 -3.03,2.68 -1.92,0.01 -3.23,-1.12 -3.23,-3.12"
       id="path115"
       inkscape:connector-curvature="0" /><path
       d="m 99.74,57.42 1.14,0 0,4.62 0.04,0 c 0.53,-1 1.51,-1.51 2.5,-1.51 1.65,0 2.48,1.08 2.48,2.56 l 0,5.35 -1.16,0 0,-4.92 c 0,-1.37 -0.65,-1.99 -1.68,-1.99 -1.17,0 -2.19,0.88 -2.19,2.34 l 0,4.57 -1.14,0 0,-11.02 z"
       id="path117"
       inkscape:connector-curvature="0" /><path
       d="m 108.16,66.04 0,-5.34 1.16,0 0,4.92 c 0,1.37 0.66,1.97 1.69,1.97 1.16,0 2.18,-0.88 2.18,-2.35 l 0,-4.54 1.14,0 0,7.74 -1.11,0 0,-1.34 -0.03,0 c -0.54,1.02 -1.52,1.53 -2.54,1.53 -1.65,-0.01 -2.49,-1.12 -2.49,-2.59"
       id="path119"
       inkscape:connector-curvature="0" /><path
       d="m 116.72,66.54 0,-9.11 1.15,0 0,9.16 c 0,0.54 0.29,0.96 1,0.96 0.3,0 0.57,-0.04 0.85,-0.07 l 0,0.88 c -0.39,0.13 -0.87,0.19 -1.24,0.19 -1.47,-0.02 -1.76,-1.12 -1.76,-2.01"
       id="path121"
       inkscape:connector-curvature="0" /><path
       d="m 126.26,63.99 0,-0.45 c 0,-1.17 -0.69,-2.04 -1.99,-2.04 -1.25,0 -2.07,0.92 -2.07,2.15 l 0,0.34 4.06,0 z m -5.24,1.5 0,-1.63 c 0,-2.13 1.45,-3.32 3.32,-3.32 1.71,0 3.07,1.03 3.07,3.04 l 0,1.22 -5.2,0 0,0.8 c 0,1.27 0.86,2.05 2.22,2.05 0.9,0 1.54,-0.46 1.96,-0.99 l 0.88,0.52 c -0.69,1.08 -1.8,1.45 -2.91,1.45 -1.9,0.01 -3.34,-1.01 -3.34,-3.14"
       id="path123"
       inkscape:connector-curvature="0" /><path
       d="m 137.92,62.59 c 1.19,0 1.97,-0.57 1.97,-1.71 0,-1.29 -0.87,-1.71 -2.01,-1.71 l -2.02,0 0,3.42 2.06,0 z m -4.11,-5.15 4.35,0 c 2.06,0 3.73,1.2 3.73,3.46 0,1.31 -0.69,2.67 -2.17,3.19 l 2.73,4.35 -2.24,0 -2.58,-4.12 -1.77,0 0,4.12 -2.05,0 0,-11 z"
       id="path125"
       inkscape:connector-curvature="0" /><path
       d="m 144,57.44 1.88,0 0,4.07 0.05,0 c 0.52,-0.76 1.36,-1.13 2.17,-1.13 1.78,0 2.76,1.12 2.76,2.99 l 0,5.06 -1.88,0 0,-4.58 c 0,-1.19 -0.51,-1.82 -1.47,-1.82 -1.03,0 -1.63,0.63 -1.63,1.97 l 0,4.43 -1.88,0 0,-10.99 z"
       id="path127"
       inkscape:connector-curvature="0" /><path
       d="m 157.82,63.72 0,-0.22 c 0,-1.08 -0.75,-1.51 -1.53,-1.51 -0.8,0 -1.66,0.43 -1.66,1.62 l 0,0.11 3.19,0 z m -5.15,1.68 0,-1.54 c 0,-2.22 1.67,-3.46 3.62,-3.46 1.71,0 3.41,1 3.41,3.1 l 0,1.53 -5.07,0 0,0.44 c 0,1 0.82,1.59 1.82,1.59 0.63,0 1.29,-0.42 1.71,-1.02 l 1.45,0.84 c -0.62,1.23 -1.87,1.76 -3.25,1.76 -1.95,-0.02 -3.69,-1.08 -3.69,-3.24"
       id="path129"
       inkscape:connector-curvature="0" /><path
       d="m 161.64,60.54 1.88,0 0,7.9 -1.88,0 0,-7.9 z m 0,-3.21 1.88,0 0,2.01 -1.88,0 0,-2.01 z"
       id="path131"
       inkscape:connector-curvature="0" /><path
       d="m 165.79,60.54 1.84,0 0,0.97 0.03,0 c 0.53,-0.76 1.36,-1.13 2.23,-1.13 1.78,0 2.76,1.12 2.76,2.99 l 0,5.06 -1.88,0 0,-4.58 c 0,-1.19 -0.51,-1.82 -1.46,-1.82 -1.03,0 -1.63,0.63 -1.63,1.97 l 0,4.43 -1.88,0 0,-7.89 z"
       id="path133"
       inkscape:connector-curvature="0" /><polygon
       points="180.6,64.32 183.36,57.44 185.86,57.44 185.86,68.44 183.89,68.44 183.89,61.11 183.86,61.11 181.36,67.17 179.74,67.17 177.24,61.14 177.21,61.14 177.21,68.44 175.23,68.44 175.23,57.44 177.73,57.44 180.57,64.32 "
       id="polygon135" /><path
       d="m 192.73,65.52 0,-0.39 -1.85,0 c -0.8,0 -1.33,0.28 -1.33,0.97 0,0.66 0.54,1.01 1.42,1.01 1.51,0 1.76,-0.74 1.76,-1.59 m -5.01,0.68 c 0,-1.53 1.39,-2.44 2.91,-2.44 l 2.1,0 0,-0.72 c 0,-0.83 -0.56,-1.19 -1.51,-1.19 -0.82,0 -1.42,0.28 -1.42,0.79 l 0,0.28 -1.7,0 0,-0.22 c 0,-1.73 1.65,-2.32 3.13,-2.32 1.76,0 3.38,0.59 3.38,2.51 l 0,3.84 c 0,0.36 0.05,1.53 0.14,1.7 l -1.86,0 c -0.03,-0.13 -0.06,-0.6 -0.08,-0.73 l -0.03,0 c -0.7,0.73 -1.29,0.88 -2.31,0.88 -1.65,0.01 -2.75,-0.88 -2.75,-2.38"
       id="path137"
       inkscape:connector-curvature="0" /><path
       d="m 196.81,60.54 1.88,0 0,7.9 -1.88,0 0,-7.9 z m 0,-3.21 1.88,0 0,2.01 -1.88,0 0,-2.01 z"
       id="path139"
       inkscape:connector-curvature="0" /><path
       d="m 200.96,60.54 1.84,0 0,0.97 0.03,0 c 0.53,-0.76 1.36,-1.13 2.24,-1.13 1.78,0 2.76,1.12 2.76,2.99 l 0,5.06 -1.88,0 0,-4.58 c 0,-1.19 -0.51,-1.82 -1.46,-1.82 -1.04,0 -1.63,0.63 -1.63,1.97 l 0,4.43 -1.88,0 0,-7.89 z"
       id="path141"
       inkscape:connector-curvature="0" /></g></svg>