<?xml version="1.0" encoding="UTF-8" standalone="no"?>
<!-- Created with Inkscape (http://www.inkscape.org/) -->

<svg
   xmlns:dc="http://purl.org/dc/elements/1.1/"
   xmlns:cc="http://creativecommons.org/ns#"
   xmlns:rdf="http://www.w3.org/1999/02/22-rdf-syntax-ns#"
   xmlns:svg="http://www.w3.org/2000/svg"
   xmlns="http://www.w3.org/2000/svg"
   xmlns:sodipodi="http://sodipodi.sourceforge.net/DTD/sodipodi-0.dtd"
   xmlns:inkscape="http://www.inkscape.org/namespaces/inkscape"
   id="svg2"
   version="1.1"
   inkscape:version="0.91 r13725"
   xml:space="preserve"
   width="247.48924"
   height="47.151913"
   viewBox="0 0 247.48924 47.151911"
   sodipodi:docname="hsrm.svg"><metadata
     id="metadata8"><rdf:RDF><cc:Work
         rdf:about=""><dc:format>image/svg+xml</dc:format><dc:type
           rdf:resource="http://purl.org/dc/dcmitype/StillImage" /><dc:title></dc:title></cc:Work></rdf:RDF></metadata><defs
     id="defs6"><clipPath
       clipPathUnits="userSpaceOnUse"
       id="clipPath16"><path
         d="m 0,841.89 595.28,0 L 595.28,0 0,0 0,841.89 Z"
         id="path18"
         inkscape:connector-curvature="0" /></clipPath></defs><sodipodi:namedview
     pagecolor="#ffffff"
     bordercolor="#666666"
     borderopacity="1"
     objecttolerance="10"
     gridtolerance="10"
     guidetolerance="10"
     inkscape:pageopacity="0"
     inkscape:pageshadow="2"
     inkscape:window-width="1920"
     inkscape:window-height="1135"
     id="namedview4"
     showgrid="false"
     fit-margin-top="0"
     fit-margin-left="0"
     fit-margin-right="0"
     fit-margin-bottom="0"
     inkscape:zoom="1.2685909"
     inkscape:cx="111.1881"
     inkscape:cy="135.92702"
     inkscape:window-x="0"
     inkscape:window-y="0"
     inkscape:window-maximized="1"
     inkscape:current-layer="g10" /><g
     id="g10"
     inkscape:groupmode="layer"
     inkscape:label="Logo"
     transform="matrix(1.25,0,0,-1.25,-265.09712,359.15629)"><path
       inkscape:connector-curvature="0"
       id="path310"
       style="fill:#ffffff;fill-opacity:1;fill-rule:nonzero;stroke:none"
       d="m 249.6787,269.2822 -1.009,1.744 c -0.235,0.391 -0.661,0.652 -1.151,0.656 l 0,0.002 -13.672,0 2.205,3.824 c 0.238,0.42 0.23,0.916 0.012,1.315 l 0.002,0 -1.012,1.752 c -0.115,0.225 -0.291,0.418 -0.525,0.555 -0.233,0.134 -0.491,0.187 -0.74,0.177 l -2.016,0 c -0.456,-0.008 -0.896,-0.248 -1.143,-0.668 l -2.209,-3.822 -6.835,11.838 -0.002,0 c -0.245,0.418 -0.679,0.656 -1.132,0.668 l -2.021,0 c -0.252,0.013 -0.508,-0.043 -0.744,-0.178 -0.233,-0.134 -0.408,-0.328 -0.526,-0.549 l -1.006,-1.748 c -0.22,-0.398 -0.232,-0.9 0.005,-1.326 l 6.838,-11.838 -8.546,0 c -0.49,-0.004 -0.915,-0.267 -1.152,-0.658 l -1.009,-1.744 c -0.134,-0.211 -0.212,-0.461 -0.213,-0.729 0,-0.271 0.08,-0.521 0.216,-0.736 l 1.012,-1.748 0.002,0 c 0.237,-0.387 0.66,-0.643 1.144,-0.648 l 8.546,0 -6.836,-11.843 c -0.239,-0.423 -0.227,-0.923 -0.005,-1.319 l -0.002,-0.004 1.006,-1.745 c 0.118,-0.222 0.293,-0.416 0.526,-0.552 0.236,-0.135 0.49,-0.19 0.744,-0.18 l 2.021,0 c 0.453,0.016 0.889,0.254 1.134,0.67 l 6.835,11.84 2.209,-3.823 c 0.247,-0.419 0.687,-0.658 1.143,-0.666 l 2.016,-0.005 c 0.249,-0.009 0.505,0.047 0.74,0.183 0.234,0.135 0.41,0.328 0.527,0.551 l 1.01,1.752 -0.002,0 c 0.218,0.398 0.226,0.896 -0.012,1.318 l 0.002,0 -2.205,3.823 13.67,0 c 0.484,0.005 0.91,0.263 1.147,0.648 l 1.011,1.748 c 0.135,0.215 0.217,0.465 0.217,0.736 0,0.266 -0.08,0.518 -0.215,0.729" /><path
       inkscape:connector-curvature="0"
       id="path314"
       style="fill:#ffffff;fill-opacity:1;fill-rule:nonzero;stroke:none"
       d="m 249.8721,260.9355 1.265,0 0,-4.823 5.635,0 0,4.823 1.264,0 0,-11.129 -1.264,0 0,5.198 -5.635,0 0,-5.198 -1.265,0 0,11.129 z" /><path
       inkscape:connector-curvature="0"
       id="path318"
       style="fill:#ffffff;fill-opacity:1;fill-rule:nonzero;stroke:none"
       d="m 260.1963,252.6318 0,2.029 c 0,2.059 1.498,3.137 3.262,3.137 1.935,0 3.292,-1.141 3.292,-3.121 l 0,-1.92 c 0,-2.043 -1.466,-3.152 -3.245,-3.152 -1.921,0 -3.309,1.044 -3.309,3.027 m 5.367,0.08 0,2.074 c 0,1.186 -0.701,2.029 -2.105,2.029 -1.295,0 -2.091,-0.765 -2.091,-2.09 l 0,-2.062 c 0,-1.232 0.749,-2.059 2.138,-2.059 1.295,0 2.058,0.7 2.058,2.108" /><path
       inkscape:connector-curvature="0"
       id="path322"
       style="fill:#ffffff;fill-opacity:1;fill-rule:nonzero;stroke:none"
       d="m 268.4258,252.7725 0,1.748 c 0,2.076 1.344,3.277 3.247,3.277 1.795,0 3.092,-1.013 3.092,-2.714 l 0,-0.202 -1.125,0 0,0.262 c 0,0.876 -0.656,1.686 -1.951,1.686 -1.296,0 -2.06,-0.889 -2.06,-2.2 l 0,-1.886 c 0,-1.267 0.671,-2.14 2.073,-2.14 1.297,0 1.938,0.796 1.938,1.669 l 0,0.221 1.125,0 0,-0.175 c 0,-1.685 -1.251,-2.715 -3.063,-2.715 -1.949,0 -3.276,1.14 -3.276,3.169" /><path
       inkscape:connector-curvature="0"
       id="path326"
       style="fill:#ffffff;fill-opacity:1;fill-rule:nonzero;stroke:none"
       d="m 276.6104,260.9512 1.154,0 0,-4.667 0.047,0 c 0.529,1.015 1.528,1.529 2.528,1.529 1.669,0 2.511,-1.091 2.511,-2.591 l 0,-5.417 -1.17,0 0,4.981 c 0,1.39 -0.654,2.013 -1.701,2.013 -1.184,0 -2.215,-0.888 -2.215,-2.372 l 0,-4.622 -1.154,0 0,11.146 z" /><path
       inkscape:connector-curvature="0"
       id="path330"
       style="fill:#ffffff;fill-opacity:1;fill-rule:nonzero;stroke:none"
       d="m 284.6514,250.8682 0.797,0.656 c 0.625,-0.638 1.372,-0.967 2.372,-0.967 0.936,0 1.905,0.485 1.905,1.403 0,0.875 -0.547,1.125 -1.623,1.327 l -0.906,0.186 c -1.359,0.268 -2.202,0.891 -2.202,2.016 0,1.356 1.11,2.339 2.809,2.339 1.187,0 2.125,-0.28 2.733,-0.983 l -0.795,-0.607 c -0.499,0.435 -1.11,0.687 -1.998,0.687 -0.953,0 -1.61,-0.515 -1.61,-1.264 0,-0.75 0.641,-0.999 1.702,-1.218 l 1.171,-0.25 c 1.155,-0.25 1.92,-0.875 1.92,-2.029 0,-1.702 -1.576,-2.545 -3.091,-2.545 -1.278,0 -2.45,0.343 -3.184,1.249" /><path
       inkscape:connector-curvature="0"
       id="path334"
       style="fill:#ffffff;fill-opacity:1;fill-rule:nonzero;stroke:none"
       d="m 292.5049,252.7725 0,1.748 c 0,2.076 1.345,3.277 3.248,3.277 1.795,0 3.092,-1.013 3.092,-2.714 l 0,-0.202 -1.123,0 0,0.262 c 0,0.876 -0.656,1.686 -1.952,1.686 -1.297,0 -2.062,-0.889 -2.062,-2.2 l 0,-1.886 c 0,-1.267 0.672,-2.14 2.076,-2.14 1.297,0 1.938,0.796 1.938,1.669 l 0,0.221 1.123,0 0,-0.175 c 0,-1.685 -1.249,-2.715 -3.061,-2.715 -1.951,0 -3.279,1.14 -3.279,3.169" /><path
       inkscape:connector-curvature="0"
       id="path338"
       style="fill:#ffffff;fill-opacity:1;fill-rule:nonzero;stroke:none"
       d="m 300.6895,260.9512 1.155,0 0,-4.667 0.048,0 c 0.53,1.015 1.528,1.529 2.528,1.529 1.67,0 2.513,-1.091 2.513,-2.591 l 0,-5.417 -1.171,0 0,4.981 c 0,1.39 -0.656,2.013 -1.7,2.013 -1.186,0 -2.218,-0.888 -2.218,-2.372 l 0,-4.622 -1.155,0 0,11.146 z" /><path
       inkscape:connector-curvature="0"
       id="path342"
       style="fill:#ffffff;fill-opacity:1;fill-rule:nonzero;stroke:none"
       d="m 309.2168,252.2275 0,5.414 1.171,0 0,-4.978 c 0,-1.389 0.672,-1.997 1.715,-1.997 1.172,0 2.202,0.889 2.202,2.373 l 0,4.602 1.155,0 0,-7.836 -1.124,0 0,1.36 -0.031,0 c -0.547,-1.032 -1.53,-1.546 -2.575,-1.546 -1.67,0 -2.513,1.125 -2.513,2.608" /><path
       inkscape:connector-curvature="0"
       id="path346"
       style="fill:#ffffff;fill-opacity:1;fill-rule:nonzero;stroke:none"
       d="m 317.8682,251.7275 0,9.223 1.171,0 0,-9.271 c 0,-0.547 0.297,-0.966 1.014,-0.966 0.311,0 0.579,0.046 0.86,0.077 l 0,-0.889 c -0.391,-0.125 -0.875,-0.187 -1.249,-0.187 -1.498,0 -1.796,1.107 -1.796,2.013" /><path
       inkscape:connector-curvature="0"
       id="path350"
       style="fill:#ffffff;fill-opacity:1;fill-rule:nonzero;stroke:none"
       d="m 322.2256,252.7881 0,1.654 c 0,2.155 1.469,3.356 3.355,3.356 1.733,0 3.108,-1.045 3.108,-3.073 l 0,-1.234 -5.262,0 0,-0.812 c 0,-1.28 0.873,-2.077 2.248,-2.077 0.905,0 1.561,0.469 1.983,1 l 0.889,-0.531 c -0.702,-1.094 -1.825,-1.467 -2.95,-1.467 -1.92,0 -3.371,1.03 -3.371,3.184 m 5.308,1.514 0,0.453 c 0,1.185 -0.704,2.074 -2.015,2.074 -1.265,0 -2.092,-0.936 -2.092,-2.184 l 0,-0.343 4.107,0 z" /><path
       inkscape:connector-curvature="0"
       id="path354"
       style="fill:#ffffff;fill-opacity:1;fill-rule:nonzero;stroke:none"
       d="m 335.1729,260.9355 4.401,0 c 2.091,0 3.777,-1.218 3.777,-3.496 0,-1.327 -0.701,-2.7 -2.2,-3.23 l 2.762,-4.403 -2.262,0 -2.607,4.167 -1.795,0 0,-4.167 -2.076,0 0,11.129 z m 4.151,-5.214 c 1.203,0 1.998,0.578 1.998,1.733 0,1.312 -0.875,1.731 -2.03,1.731 l -2.043,0 0,-3.464 2.075,0 z" /><path
       inkscape:connector-curvature="0"
       id="path358"
       style="fill:#ffffff;fill-opacity:1;fill-rule:nonzero;stroke:none"
       d="m 345.4805,260.9355 1.902,0 0,-4.122 0.048,0 c 0.529,0.768 1.375,1.141 2.199,1.141 1.797,0 2.795,-1.125 2.795,-3.028 l 0,-5.12 -1.904,0 0,4.636 c 0,1.201 -0.515,1.842 -1.483,1.842 -1.044,0 -1.655,-0.641 -1.655,-1.998 l 0,-4.48 -1.902,0 0,11.129 z" /><path
       inkscape:connector-curvature="0"
       id="path362"
       style="fill:#ffffff;fill-opacity:1;fill-rule:nonzero;stroke:none"
       d="m 354.2568,252.8838 0,1.559 c 0,2.246 1.686,3.496 3.668,3.496 1.731,0 3.449,-1.014 3.449,-3.137 l 0,-1.545 -5.136,0 0,-0.439 c 0,-1.014 0.828,-1.605 1.843,-1.605 0.64,0 1.311,0.421 1.732,1.03 l 1.467,-0.843 c -0.625,-1.25 -1.888,-1.781 -3.294,-1.781 -1.967,0 -3.729,1.077 -3.729,3.265 m 5.213,1.7 0,0.218 c 0,1.092 -0.765,1.53 -1.545,1.53 -0.812,0 -1.687,-0.438 -1.687,-1.639 l 0,-0.109 3.232,0 z" /><path
       d="m 363.329,261.044 1.904,0 0,-2.029 -1.904,0 0,2.029 z m 0,-3.246 1.904,0 0,-7.992 -1.904,0 0,7.992 z"
       style="fill:#ffffff;fill-opacity:1;fill-rule:nonzero;stroke:none"
       id="path364"
       inkscape:connector-curvature="0" /><path
       inkscape:connector-curvature="0"
       id="path368"
       style="fill:#ffffff;fill-opacity:1;fill-rule:nonzero;stroke:none"
       d="m 367.5293,257.7979 1.857,0 0,-0.984 0.033,0 c 0.531,0.767 1.375,1.14 2.262,1.14 1.796,0 2.795,-1.125 2.795,-3.027 l 0,-5.121 -1.905,0 0,4.637 c 0,1.201 -0.514,1.841 -1.482,1.841 -1.046,0 -1.655,-0.64 -1.655,-1.998 l 0,-4.48 -1.905,0 0,7.992 z" /><path
       inkscape:connector-curvature="0"
       id="path372"
       style="fill:#ffffff;fill-opacity:1;fill-rule:nonzero;stroke:none"
       d="m 377.0879,260.9355 2.528,0 2.873,-6.962 0.031,0 2.795,6.962 2.528,0 0,-11.129 -1.998,0 0,7.413 -0.031,0 -2.53,-6.133 -1.637,0 -2.531,6.101 -0.03,0 0,-7.381 -1.998,0 0,11.129 z" /><path
       inkscape:connector-curvature="0"
       id="path376"
       style="fill:#ffffff;fill-opacity:1;fill-rule:nonzero;stroke:none"
       d="m 389.7217,252.0713 c 0,1.543 1.405,2.467 2.949,2.467 l 2.124,0 0,0.732 c 0,0.842 -0.56,1.201 -1.529,1.201 -0.827,0 -1.437,-0.281 -1.437,-0.796 l 0,-0.282 -1.715,0 0,0.219 c 0,1.746 1.67,2.342 3.168,2.342 1.78,0 3.418,-0.596 3.418,-2.543 l 0,-3.887 c 0,-0.359 0.047,-1.547 0.139,-1.719 l -1.888,0 c -0.03,0.127 -0.063,0.611 -0.078,0.737 l -0.032,0 c -0.702,-0.737 -1.309,-0.893 -2.341,-0.893 -1.655,0 -2.778,0.908 -2.778,2.422 m 5.073,0.686 0,0.388 -1.872,0 c -0.811,0 -1.342,-0.279 -1.342,-0.98 0,-0.672 0.545,-1.018 1.435,-1.018 1.529,0 1.779,0.752 1.779,1.61" /><path
       d="m 398.921,261.044 1.903,0 0,-2.029 -1.903,0 0,2.029 z m 0,-3.246 1.903,0 0,-7.992 -1.903,0 0,7.992 z"
       style="fill:#ffffff;fill-opacity:1;fill-rule:nonzero;stroke:none"
       id="path378"
       inkscape:connector-curvature="0" /><path
       inkscape:connector-curvature="0"
       id="path382"
       style="fill:#ffffff;fill-opacity:1;fill-rule:nonzero;stroke:none"
       d="m 403.1221,257.7979 1.856,0 0,-0.984 0.031,0 c 0.532,0.767 1.375,1.14 2.264,1.14 1.797,0 2.796,-1.125 2.796,-3.027 l 0,-5.121 -1.906,0 0,4.637 c 0,1.201 -0.516,1.841 -1.484,1.841 -1.044,0 -1.652,-0.64 -1.652,-1.998 l 0,-4.48 -1.905,0 0,7.992 z" /></g></svg>