<?xml version="1.0" encoding="UTF-8" standalone="no"?>
<svg
   xmlns:dc="http://purl.org/dc/elements/1.1/"
   xmlns:cc="http://creativecommons.org/ns#"
   xmlns:rdf="http://www.w3.org/1999/02/22-rdf-syntax-ns#"
   xmlns:svg="http://www.w3.org/2000/svg"
   xmlns="http://www.w3.org/2000/svg"
   xmlns:sodipodi="http://sodipodi.sourceforge.net/DTD/sodipodi-0.dtd"
   xmlns:inkscape="http://www.inkscape.org/namespaces/inkscape"
   version="1.1"
   x="0px"
   y="0px"
   width="127.75"
   height="52.400002"
   viewBox="0 0 127.75 52.400002"
   enable-background="new 0 0 220 100"
   xml:space="preserve"
   id="svg202"
   inkscape:version="0.91 r13725"
   sodipodi:docname="logo.lindenkaffee.svg"><metadata
     id="metadata217"><rdf:RDF><cc:Work
         rdf:about=""><dc:format>image/svg+xml</dc:format><dc:type
           rdf:resource="http://purl.org/dc/dcmitype/StillImage" /><dc:title></dc:title></cc:Work></rdf:RDF></metadata><defs
     id="defs215" /><sodipodi:namedview
     pagecolor="#ffffff"
     bordercolor="#666666"
     borderopacity="1"
     objecttolerance="10"
     gridtolerance="10"
     guidetolerance="10"
     inkscape:pageopacity="0"
     inkscape:pageshadow="2"
     inkscape:window-width="640"
     inkscape:window-height="480"
     id="namedview213"
     showgrid="false"
     fit-margin-top="0"
     fit-margin-left="0"
     fit-margin-right="0"
     fit-margin-bottom="0"
     inkscape:zoom="2.36"
     inkscape:cx="63.87"
     inkscape:cy="26.2"
     inkscape:window-x="0"
     inkscape:window-y="0"
     inkscape:window-maximized="0"
     inkscape:current-layer="svg202" /><g
     id="Lindenkaffee"
     style="fill:#ffffff"
     transform="translate(-46.13,-23.8)"><path
       d="m 166.07,69.32 c 0.32,-1.78 1.59,-2.74 3.16,-2.74 1.34,0 2.46,0.96 2.52,2.74 l -5.68,0 z m -2.21,1.25 c 0,3.19 2.31,5.63 5.71,5.63 2.55,0 4.14,-1.57 4.14,-1.57 l -0.89,-1.46 c 0,0 -1.29,1.25 -3.14,1.25 -1.91,0 -3.56,-1.3 -3.69,-3.59 l 7.82,0 c 0,0 0.07,-0.58 0.07,-0.85 0,-2.78 -1.61,-5.03 -4.62,-5.03 -3.07,0 -5.4,2.21 -5.4,5.62 m -9.51,-1.25 c 0.31,-1.78 1.59,-2.74 3.16,-2.74 1.34,0 2.46,0.96 2.52,2.74 l -5.68,0 z m -2.2,1.25 c 0,3.19 2.31,5.63 5.7,5.63 2.55,0 4.14,-1.57 4.14,-1.57 l -0.89,-1.46 c 0,0 -1.29,1.25 -3.13,1.25 -1.91,0 -3.56,-1.3 -3.69,-3.59 l 7.83,0 c 0,0 0.07,-0.58 0.07,-0.85 0,-2.78 -1.61,-5.03 -4.63,-5.03 -3.07,0 -5.4,2.21 -5.4,5.62 m -12.06,5.37 2.06,0 0,-9.08 4.62,0 0,9.08 2.06,0 0,-9.08 2.52,0 0,-1.65 -2.52,0 0,-0.3 c 0,-1.99 1.44,-2.27 2.25,-2.27 0.3,0 0.53,0.04 0.53,0.04 l 0,-1.76 c 0,0 -0.32,-0.07 -0.79,-0.07 -1.36,0 -4.05,0.45 -4.05,3.99 l 0,0.36 -4.62,0 0,-0.3 c 0,-1.99 1.45,-2.27 2.25,-2.27 0.32,0 0.53,0.04 0.53,0.04 l 0,-1.76 c 0,0 -0.32,-0.07 -0.78,-0.07 -1.36,0 -4.05,0.45 -4.05,3.99 l 0,0.36 -1.33,0 0,1.65 1.33,0 0,9.1 z m -10.48,-3.11 c 0,-1.98 2.8,-2.06 4.35,-2.06 l 0.53,0 0,0.36 c 0,1.59 -1.13,3.42 -2.87,3.42 -1.35,-0.01 -2.01,-0.86 -2.01,-1.72 m -2.07,0.1 c 0,2.14 1.8,3.27 3.65,3.27 2.57,0 3.42,-2.13 3.42,-2.13 l 0.04,0 c 0,0 -0.04,0.28 -0.04,0.63 0,0.77 0.38,1.23 1.34,1.23 l 1.93,0 0,-1.76 -0.88,0 c -0.29,0 -0.47,-0.15 -0.47,-0.47 l 0,-4.55 c 0,-2.38 -0.93,-4.21 -4.42,-4.21 -1.04,0 -3.71,0.26 -3.71,2.02 l 0,1.06 1.93,0 0,-0.62 c 0,-0.7 1.25,-0.83 1.76,-0.83 1.68,0 2.38,0.68 2.38,2.57 l 0,0.1 -0.47,0 c -1.8,0.02 -6.46,0.23 -6.46,3.69 m -11.57,3.01 2.12,0 0,-6.87 1.27,0 c 0.61,0 1.08,0.06 1.33,0.55 l 2.59,5.2 c 0.49,0.97 0.91,1.12 2.08,1.12 l 1.17,0 0,-1.82 -0.4,0 c -0.51,0 -0.85,-0.04 -1.07,-0.49 l -2.25,-4.5 c -0.42,-0.82 -0.85,-0.93 -0.85,-0.93 l 0,-0.04 c 0,0 0.43,-0.23 0.85,-0.98 l 3.63,-6.22 -2.38,0 -3.33,5.79 c -0.25,0.42 -0.68,0.51 -1.23,0.51 l -1.42,0 0,-4.95 c 0,-0.95 -0.4,-1.36 -1.36,-1.36 l -2.14,0 0,1.82 0.91,0 c 0.3,0 0.47,0.15 0.47,0.47 l 0,12.7 z m -13.66,0 2.06,0 0,-5.03 c 0,-0.53 0.04,-1.02 0.19,-1.44 0.42,-1.55 1.74,-2.63 3.4,-2.63 1.72,0 2.01,1.19 2.01,2.69 l 0,5.05 c 0,0.96 0.4,1.36 1.36,1.36 l 2.04,0 0,-1.76 -0.87,0 c -0.3,0 -0.47,-0.15 -0.47,-0.47 l 0,-4.64 c 0,-2.74 -1.15,-4.12 -3.69,-4.12 -2.33,0 -3.61,1.53 -4.03,2.46 l -0.04,0 c 0,0 0.04,-0.27 0.04,-0.62 l 0,-0.4 c 0,-0.79 -0.45,-1.19 -1.36,-1.19 l -1.98,0 0,1.76 0.87,0 c 0.3,0 0.47,0.15 0.47,0.47 l 0,8.51 z M 91.77,69.32 c 0.32,-1.78 1.59,-2.74 3.16,-2.74 1.34,0 2.46,0.96 2.52,2.74 l -5.68,0 z m -2.21,1.25 c 0,3.19 2.31,5.63 5.71,5.63 2.55,0 4.14,-1.57 4.14,-1.57 l -0.89,-1.46 c 0,0 -1.29,1.25 -3.14,1.25 -1.91,0 -3.56,-1.3 -3.69,-3.59 l 7.83,0 c 0,0 0.07,-0.58 0.07,-0.85 0,-2.78 -1.61,-5.03 -4.62,-5.03 -3.08,0 -5.41,2.21 -5.41,5.62 m -7.68,3.85 c -1.78,0 -3.03,-1.51 -3.03,-3.85 0,-2.44 1.4,-3.83 3.08,-3.83 2.06,0 3.06,1.91 3.06,3.82 -0.01,2.73 -1.52,3.86 -3.11,3.86 m -5.13,-3.85 c 0,3.33 1.83,5.63 4.73,5.63 2.63,0 3.53,-1.96 3.53,-1.96 l 0.04,0 c 0,0 -0.02,0.23 -0.02,0.55 0,0.72 0.38,1.15 1.32,1.15 l 1.97,0 0,-1.76 -0.87,0 c -0.3,0 -0.47,-0.15 -0.47,-0.47 l 0,-11.39 c 0,-0.95 -0.4,-1.36 -1.35,-1.36 l -2.04,0 0,1.76 0.87,0 c 0.3,0 0.46,0.14 0.46,0.46 l 0,2.7 c 0,0.4 0.04,0.72 0.04,0.72 l -0.04,0 c 0,0 -0.83,-1.66 -3.31,-1.66 -2.85,0.01 -4.86,2.22 -4.86,5.63 m -12.27,5.37 2.06,0 0,-5.03 c 0,-0.53 0.04,-1.02 0.19,-1.44 0.42,-1.55 1.74,-2.63 3.39,-2.63 1.72,0 2.02,1.19 2.02,2.69 l 0,5.05 c 0,0.96 0.4,1.36 1.35,1.36 l 2.04,0 0,-1.76 -0.87,0 c -0.3,0 -0.47,-0.15 -0.47,-0.47 l 0,-4.64 c 0,-2.74 -1.15,-4.12 -3.69,-4.12 -2.34,0 -3.61,1.53 -4.04,2.46 l -0.04,0 c 0,0 0.04,-0.27 0.04,-0.62 l 0,-0.4 c 0,-0.79 -0.45,-1.19 -1.36,-1.19 l -1.97,0 0,1.76 0.87,0 c 0.3,0 0.47,0.15 0.47,0.47 l 0,8.51 z m -5.72,-1.36 c 0,0.96 0.4,1.36 1.36,1.36 l 2.02,0 0,-1.76 -0.87,0 c -0.3,0 -0.47,-0.15 -0.47,-0.47 l 0,-7.15 c 0,-0.96 -0.41,-1.36 -1.36,-1.36 l -2.01,0 0,1.76 0.87,0 c 0.29,0 0.47,0.15 0.47,0.47 l 0,7.15 z m -0.01,-11.47 2.03,0 0,-2.14 -2.03,0 0,2.14 z M 47.51,74.58 c 0,0.96 0.4,1.36 1.36,1.36 l 6.41,0 c 0.95,0 1.36,-0.4 1.36,-1.36 l 0,-1.88 -1.94,0 0,0.95 c 0,0.3 -0.17,0.47 -0.46,0.47 l -4.14,0 c -0.3,0 -0.47,-0.17 -0.47,-0.47 l 0,-11.33 c 0,-0.95 -0.4,-1.36 -1.36,-1.36 l -2.14,0 0,1.82 0.92,0 c 0.3,0 0.46,0.15 0.46,0.47 l 0,11.33 z"
       id="path205"
       inkscape:connector-curvature="0" /><path
       d="m 110.05,25.93 c -5.62,0 -10.19,6.13 -10.19,13.67 0,7.53 4.57,13.66 10.19,13.66 5.62,0 10.2,-6.13 10.2,-13.66 0,-7.54 -4.58,-13.67 -10.2,-13.67 z m 0.44,23.37 c -0.82,0.65 -1.41,-0.11 -0.63,-0.95 1.95,-2.09 0.49,-4.62 -0.69,-8.75 -1.19,-4.14 -2.06,-7.56 0.63,-9.7 0.82,-0.65 1.4,0.11 0.62,0.95 -1.94,2.08 -0.46,5.19 0.7,8.75 1.16,3.56 2.05,7.55 -0.63,9.7 z"
       id="path207"
       inkscape:connector-curvature="0" /><path
       d="M 95.09,33.65 C 88.63,25.48 74.21,31.82 65.8,23.8 c -0.46,6.76 9.88,8.41 16.36,8.66 -4.88,0.9 -11.5,0.39 -16.06,-1.55 1.23,5.64 12.4,5.71 16.52,5.04 -4.35,1.55 -8.72,1.65 -13.75,0.97 3.03,4.28 12.72,3.19 15.26,2.02 -2.57,1.59 -5.76,2.66 -10.51,2.71 3.76,2.85 11.48,0.88 12.78,-0.49 -1.19,1.49 -4.03,3.19 -6.73,3.6 3.13,1.28 7.11,0.03 9.51,-1.95 -0.37,1.37 -1.76,2.56 -3.38,3.2 3.93,0.21 4.79,-1.24 7.11,-0.97 1.82,0.21 3.29,1.23 5.67,3.59 -1.31,-2.64 -2.13,-5.72 -2.07,-9.02 0.06,-2.73 -0.19,-4.41 -1.42,-5.96 z"
       id="path209"
       inkscape:connector-curvature="0" /><path
       d="m 137.95,32.47 c 6.48,-0.25 16.83,-1.91 16.37,-8.66 -8.4,8.02 -22.83,1.68 -29.29,9.85 -1.23,1.55 -1.47,3.24 -1.43,5.97 0.05,3.29 -0.76,6.37 -2.07,9.02 2.37,-2.36 3.85,-3.39 5.67,-3.59 2.32,-0.27 3.18,1.18 7.11,0.97 -1.62,-0.64 -3.01,-1.82 -3.38,-3.2 2.4,1.98 6.38,3.23 9.51,1.95 -2.68,-0.41 -5.53,-2.11 -6.72,-3.6 1.31,1.37 9.02,3.34 12.78,0.49 -4.76,-0.05 -7.94,-1.12 -10.52,-2.71 2.54,1.17 12.23,2.27 15.26,-2.02 -5.02,0.68 -9.4,0.58 -13.74,-0.97 4.12,0.68 15.29,0.6 16.52,-5.04 -4.57,1.92 -11.2,2.44 -16.07,1.54 z"
       id="path211"
       inkscape:connector-curvature="0" /></g></svg>