<?xml version="1.0" encoding="UTF-8" standalone="no"?>
<svg
   xmlns:dc="http://purl.org/dc/elements/1.1/"
   xmlns:cc="http://creativecommons.org/ns#"
   xmlns:rdf="http://www.w3.org/1999/02/22-rdf-syntax-ns#"
   xmlns:svg="http://www.w3.org/2000/svg"
   xmlns="http://www.w3.org/2000/svg"
   xmlns:sodipodi="http://sodipodi.sourceforge.net/DTD/sodipodi-0.dtd"
   xmlns:inkscape="http://www.inkscape.org/namespaces/inkscape"
   version="1.1"
   x="0px"
   y="0px"
   width="135.25999"
   height="16.52"
   viewBox="0 0 135.25999 16.52"
   enable-background="new 0 0 220 100"
   xml:space="preserve"
   id="svg219"
   inkscape:version="0.91 r13725"
   sodipodi:docname="logo.mediaman.svg"><metadata
     id="metadata246"><rdf:RDF><cc:Work
         rdf:about=""><dc:format>image/svg+xml</dc:format><dc:type
           rdf:resource="http://purl.org/dc/dcmitype/StillImage" /><dc:title></dc:title></cc:Work></rdf:RDF></metadata><defs
     id="defs244" /><sodipodi:namedview
     pagecolor="#ffffff"
     bordercolor="#666666"
     borderopacity="1"
     objecttolerance="10"
     gridtolerance="10"
     guidetolerance="10"
     inkscape:pageopacity="0"
     inkscape:pageshadow="2"
     inkscape:window-width="640"
     inkscape:window-height="480"
     id="namedview242"
     showgrid="false"
     fit-margin-top="0"
     fit-margin-left="0"
     fit-margin-right="0"
     fit-margin-bottom="0"
     inkscape:zoom="2.36"
     inkscape:cx="67.63"
     inkscape:cy="8.26"
     inkscape:window-x="0"
     inkscape:window-y="0"
     inkscape:window-maximized="0"
     inkscape:current-layer="svg219" /><g
     id="mediaman"
     style="fill:#ffffff"
     transform="translate(-42.37,-41.74)"><path
       d="m 42.37,46.47 2.39,0 0,1.59 0.06,0 c 0.19,-0.28 0.4,-0.54 0.62,-0.77 0.22,-0.24 0.46,-0.43 0.73,-0.6 0.28,-0.16 0.6,-0.28 0.95,-0.37 0.35,-0.1 0.76,-0.15 1.21,-0.15 0.69,0 1.33,0.15 1.92,0.46 0.6,0.31 1.03,0.79 1.28,1.43 0.43,-0.59 0.92,-1.05 1.48,-1.39 0.56,-0.34 1.26,-0.5 2.1,-0.5 1.21,0 2.15,0.29 2.81,0.88 0.68,0.59 1.02,1.58 1.02,2.96 l 0,7.89 -2.52,0 0,-6.67 c 0,-0.46 -0.01,-0.87 -0.04,-1.24 -0.03,-0.38 -0.12,-0.71 -0.26,-0.97 -0.13,-0.28 -0.34,-0.5 -0.62,-0.64 -0.28,-0.15 -0.66,-0.22 -1.15,-0.22 -0.85,0 -1.47,0.27 -1.85,0.8 -0.39,0.53 -0.58,1.28 -0.58,2.25 l 0,6.69 -2.52,0 0,-7.34 c 0,-0.8 -0.15,-1.39 -0.44,-1.79 -0.28,-0.41 -0.8,-0.62 -1.56,-0.62 -0.33,0 -0.64,0.06 -0.96,0.2 -0.29,0.13 -0.56,0.33 -0.79,0.58 -0.22,0.25 -0.41,0.56 -0.55,0.92 -0.13,0.37 -0.2,0.79 -0.2,1.26 l 0,6.78 -2.52,0 0,-11.42 -0.01,0 z"
       id="path222"
       inkscape:connector-curvature="0" /><path
       d="m 69.94,51.17 c -0.03,-0.4 -0.12,-0.78 -0.26,-1.15 -0.13,-0.37 -0.33,-0.68 -0.58,-0.95 -0.23,-0.28 -0.53,-0.5 -0.88,-0.66 -0.34,-0.18 -0.73,-0.27 -1.15,-0.27 -0.44,0 -0.85,0.08 -1.22,0.24 -0.35,0.15 -0.66,0.36 -0.93,0.64 -0.25,0.26 -0.46,0.58 -0.62,0.95 -0.15,0.37 -0.23,0.77 -0.24,1.19 l 5.88,0 0,0.01 0,0 z m -5.87,1.66 c 0,0.44 0.06,0.87 0.18,1.28 0.13,0.41 0.32,0.77 0.57,1.08 0.25,0.31 0.57,0.56 0.95,0.75 0.39,0.18 0.84,0.27 1.37,0.27 0.74,0 1.32,-0.16 1.77,-0.47 0.45,-0.33 0.79,-0.8 1.01,-1.44 l 2.39,0 c -0.13,0.62 -0.36,1.17 -0.68,1.65 -0.33,0.49 -0.71,0.9 -1.17,1.24 -0.45,0.33 -0.97,0.57 -1.54,0.73 -0.56,0.18 -1.15,0.27 -1.77,0.27 -0.9,0 -1.69,-0.15 -2.39,-0.44 -0.69,-0.3 -1.28,-0.71 -1.76,-1.24 -0.47,-0.53 -0.83,-1.16 -1.08,-1.9 -0.24,-0.73 -0.36,-1.54 -0.36,-2.43 0,-0.81 0.12,-1.58 0.38,-2.3 0.27,-0.74 0.63,-1.38 1.11,-1.92 0.49,-0.56 1.07,-1 1.75,-1.32 0.68,-0.32 1.44,-0.48 2.3,-0.48 0.9,0 1.7,0.19 2.41,0.57 0.72,0.37 1.32,0.86 1.79,1.48 0.47,0.62 0.81,1.33 1.02,2.14 0.22,0.8 0.28,1.62 0.18,2.48 l -8.43,0 0,0 0,0 z"
       id="path224"
       inkscape:connector-curvature="0" /><path
       d="m 85.98,57.89 -2.38,0 0,-1.55 -0.05,0 c -0.34,0.66 -0.83,1.14 -1.48,1.44 -0.65,0.28 -1.33,0.42 -2.05,0.42 -0.9,0 -1.69,-0.16 -2.37,-0.47 -0.66,-0.32 -1.22,-0.76 -1.66,-1.3 -0.44,-0.55 -0.77,-1.19 -0.99,-1.92 -0.22,-0.75 -0.33,-1.55 -0.33,-2.41 0,-1.03 0.14,-1.92 0.42,-2.67 0.28,-0.75 0.65,-1.37 1.11,-1.86 0.47,-0.48 1,-0.84 1.59,-1.06 0.61,-0.24 1.22,-0.35 1.84,-0.35 0.35,0 0.71,0.03 1.08,0.11 0.36,0.06 0.72,0.16 1.06,0.31 0.34,0.14 0.65,0.33 0.93,0.57 0.3,0.22 0.54,0.49 0.73,0.8 l 0.04,0 0,-5.83 2.52,0 0,15.77 -0.01,0 z M 77.19,52.3 c 0,0.49 0.06,0.96 0.18,1.43 0.13,0.47 0.32,0.89 0.57,1.26 0.27,0.37 0.6,0.66 0.99,0.88 0.4,0.22 0.87,0.33 1.42,0.33 0.56,0 1.04,-0.12 1.44,-0.36 0.41,-0.23 0.74,-0.54 1,-0.93 0.26,-0.38 0.46,-0.81 0.57,-1.28 0.13,-0.48 0.2,-0.98 0.2,-1.48 0,-1.27 -0.29,-2.26 -0.86,-2.96 -0.56,-0.71 -1.33,-1.06 -2.3,-1.06 -0.59,0 -1.09,0.13 -1.5,0.37 -0.4,0.24 -0.73,0.56 -0.99,0.95 -0.25,0.38 -0.43,0.82 -0.55,1.32 -0.12,0.51 -0.17,1.01 -0.17,1.53 l 0,0 0,0 z"
       id="path226"
       inkscape:connector-curvature="0" /><path
       d="m 89.74,42.11 2.52,0 0,2.39 -2.52,0 0,-2.39 0,0 z m 0,4.36 2.52,0 0,11.42 -2.52,0 0,-11.42 0,0 z"
       id="path228"
       inkscape:connector-curvature="0" /><path
       d="m 105.56,55.35 c 0,0.3 0.04,0.53 0.11,0.66 0.09,0.13 0.25,0.2 0.49,0.2 0.07,0 0.16,0 0.26,0 0.1,0 0.22,-0.02 0.35,-0.05 l 0,1.74 c -0.09,0.03 -0.21,0.06 -0.35,0.09 -0.13,0.04 -0.27,0.08 -0.42,0.11 -0.15,0.03 -0.3,0.05 -0.44,0.06 -0.15,0.02 -0.27,0.02 -0.38,0.02 -0.51,0 -0.94,-0.1 -1.28,-0.31 -0.34,-0.21 -0.56,-0.57 -0.66,-1.08 -0.5,0.49 -1.12,0.84 -1.85,1.06 -0.73,0.22 -1.43,0.34 -2.1,0.34 -0.51,0 -1.01,-0.08 -1.48,-0.22 -0.47,-0.13 -0.89,-0.33 -1.26,-0.59 -0.35,-0.28 -0.64,-0.63 -0.86,-1.04 -0.2,-0.43 -0.31,-0.92 -0.31,-1.48 0,-0.71 0.13,-1.28 0.38,-1.73 0.26,-0.44 0.6,-0.79 1.01,-1.04 0.43,-0.25 0.9,-0.43 1.42,-0.53 0.53,-0.12 1.06,-0.21 1.59,-0.27 0.46,-0.09 0.89,-0.15 1.3,-0.18 0.41,-0.04 0.77,-0.11 1.08,-0.2 0.32,-0.09 0.57,-0.22 0.75,-0.4 0.19,-0.19 0.28,-0.47 0.28,-0.84 0,-0.33 -0.08,-0.59 -0.24,-0.8 -0.14,-0.21 -0.34,-0.36 -0.57,-0.46 -0.22,-0.12 -0.47,-0.19 -0.75,-0.22 -0.28,-0.04 -0.55,-0.06 -0.8,-0.06 -0.71,0 -1.29,0.15 -1.75,0.44 -0.46,0.29 -0.71,0.75 -0.77,1.37 l -2.51,0 c 0.04,-0.74 0.22,-1.35 0.53,-1.84 0.31,-0.48 0.7,-0.88 1.17,-1.17 0.48,-0.29 1.03,-0.5 1.63,-0.62 0.6,-0.12 1.23,-0.17 1.86,-0.17 0.56,0 1.11,0.05 1.65,0.17 0.55,0.12 1.03,0.31 1.46,0.57 0.44,0.27 0.79,0.61 1.06,1.04 0.26,0.41 0.4,0.92 0.4,1.52 l 0,5.91 0,0 0,0 z m -2.52,-3.18 c -0.38,0.25 -0.85,0.4 -1.41,0.47 -0.56,0.04 -1.12,0.11 -1.68,0.22 -0.27,0.04 -0.52,0.11 -0.77,0.2 -0.25,0.07 -0.47,0.18 -0.67,0.33 -0.19,0.13 -0.35,0.31 -0.46,0.55 -0.1,0.22 -0.16,0.49 -0.16,0.82 0,0.28 0.08,0.51 0.25,0.71 0.16,0.19 0.35,0.35 0.57,0.46 0.24,0.1 0.49,0.18 0.75,0.22 0.28,0.04 0.53,0.07 0.75,0.07 0.28,0 0.58,-0.04 0.91,-0.11 0.32,-0.07 0.63,-0.2 0.91,-0.37 0.29,-0.17 0.54,-0.4 0.73,-0.66 0.2,-0.28 0.29,-0.62 0.29,-1.02 l 0,-1.89 -0.01,0 0,0 z"
       id="path230"
       inkscape:connector-curvature="0" /><path
       d="m 109.23,46.47 2.39,0 0,1.59 0.06,0 c 0.19,-0.28 0.4,-0.54 0.62,-0.77 0.22,-0.24 0.47,-0.43 0.73,-0.6 0.28,-0.16 0.6,-0.28 0.95,-0.37 0.35,-0.1 0.76,-0.15 1.22,-0.15 0.69,0 1.33,0.15 1.92,0.46 0.61,0.31 1.03,0.79 1.29,1.43 0.42,-0.59 0.92,-1.05 1.48,-1.39 0.56,-0.34 1.26,-0.5 2.1,-0.5 1.21,0 2.14,0.29 2.81,0.88 0.68,0.59 1.01,1.58 1.01,2.96 l 0,7.89 -2.52,0 0,-6.67 c 0,-0.46 -0.01,-0.87 -0.04,-1.24 -0.03,-0.38 -0.11,-0.71 -0.26,-0.97 -0.13,-0.28 -0.34,-0.5 -0.62,-0.64 -0.28,-0.15 -0.66,-0.22 -1.15,-0.22 -0.85,0 -1.47,0.27 -1.85,0.8 -0.38,0.53 -0.58,1.28 -0.58,2.25 l 0,6.69 -2.52,0 0,-7.34 c 0,-0.8 -0.15,-1.39 -0.44,-1.79 -0.28,-0.41 -0.8,-0.62 -1.57,-0.62 -0.32,0 -0.64,0.06 -0.95,0.2 -0.29,0.13 -0.56,0.33 -0.8,0.58 -0.22,0.25 -0.4,0.56 -0.55,0.92 -0.13,0.37 -0.2,0.79 -0.2,1.26 l 0,6.78 -2.52,0 0,-11.42 -0.01,0 z"
       id="path232"
       inkscape:connector-curvature="0" /><path
       d="m 138.9,55.35 c 0,0.3 0.04,0.53 0.11,0.66 0.09,0.13 0.25,0.2 0.48,0.2 0.08,0 0.16,0 0.27,0 0.11,0 0.22,-0.02 0.35,-0.05 l 0,1.74 c -0.09,0.03 -0.21,0.06 -0.35,0.09 -0.13,0.04 -0.27,0.08 -0.42,0.11 -0.15,0.03 -0.29,0.05 -0.44,0.06 -0.15,0.02 -0.27,0.02 -0.38,0.02 -0.51,0 -0.94,-0.1 -1.28,-0.31 -0.34,-0.21 -0.56,-0.57 -0.66,-1.08 -0.5,0.49 -1.12,0.84 -1.86,1.06 -0.72,0.22 -1.42,0.34 -2.1,0.34 -0.51,0 -1.01,-0.08 -1.48,-0.22 -0.47,-0.13 -0.89,-0.33 -1.26,-0.59 -0.35,-0.28 -0.64,-0.63 -0.86,-1.04 -0.21,-0.43 -0.31,-0.92 -0.31,-1.48 0,-0.71 0.13,-1.28 0.38,-1.73 0.26,-0.44 0.6,-0.79 1.01,-1.04 0.43,-0.25 0.9,-0.43 1.42,-0.53 0.53,-0.12 1.06,-0.21 1.59,-0.27 0.45,-0.09 0.89,-0.15 1.3,-0.18 0.41,-0.04 0.77,-0.11 1.08,-0.2 0.32,-0.09 0.57,-0.22 0.75,-0.4 0.19,-0.19 0.29,-0.47 0.29,-0.84 0,-0.33 -0.08,-0.59 -0.24,-0.8 -0.15,-0.21 -0.34,-0.36 -0.58,-0.46 -0.22,-0.12 -0.47,-0.19 -0.75,-0.22 -0.28,-0.04 -0.54,-0.06 -0.8,-0.06 -0.71,0 -1.29,0.15 -1.74,0.44 -0.46,0.29 -0.72,0.75 -0.77,1.37 l -2.52,0 c 0.04,-0.74 0.22,-1.35 0.53,-1.84 0.31,-0.48 0.7,-0.88 1.17,-1.17 0.49,-0.29 1.03,-0.5 1.63,-0.62 0.61,-0.12 1.22,-0.17 1.86,-0.17 0.56,0 1.11,0.05 1.66,0.17 0.54,0.12 1.03,0.31 1.46,0.57 0.44,0.27 0.8,0.61 1.06,1.04 0.27,0.41 0.4,0.92 0.4,1.52 l 0,5.91 0,0 0,0 z m -2.52,-3.18 c -0.38,0.25 -0.86,0.4 -1.41,0.47 -0.56,0.04 -1.12,0.11 -1.68,0.22 -0.26,0.04 -0.52,0.11 -0.78,0.2 -0.25,0.07 -0.47,0.18 -0.66,0.33 -0.19,0.13 -0.35,0.31 -0.46,0.55 -0.11,0.22 -0.16,0.49 -0.16,0.82 0,0.28 0.08,0.51 0.24,0.71 0.16,0.19 0.35,0.35 0.57,0.46 0.24,0.1 0.49,0.18 0.75,0.22 0.28,0.04 0.53,0.07 0.75,0.07 0.28,0 0.58,-0.04 0.91,-0.11 0.32,-0.07 0.63,-0.2 0.9,-0.37 0.29,-0.17 0.54,-0.4 0.73,-0.66 0.19,-0.28 0.29,-0.62 0.29,-1.02 l 0,-1.89 0.01,0 0,0 z"
       id="path234"
       inkscape:connector-curvature="0" /><path
       d="m 142.72,46.47 2.39,0 0,1.68 0.05,0.04 c 0.38,-0.63 0.88,-1.12 1.5,-1.48 0.62,-0.37 1.3,-0.55 2.05,-0.55 1.25,0 2.24,0.32 2.96,0.97 0.72,0.65 1.08,1.62 1.08,2.92 l 0,7.84 -2.52,0 0,-7.18 c -0.03,-0.9 -0.22,-1.54 -0.58,-1.94 -0.35,-0.41 -0.91,-0.62 -1.65,-0.62 -0.43,0 -0.81,0.08 -1.15,0.24 -0.34,0.15 -0.63,0.36 -0.86,0.64 -0.24,0.26 -0.42,0.58 -0.55,0.95 -0.13,0.37 -0.2,0.76 -0.2,1.17 l 0,6.74 -2.52,0 0,-11.42 0,0 z"
       id="path236"
       inkscape:connector-curvature="0" /><polygon
       points="160.66,58.26 167,41.74 167,41.74 169.41,41.74 163.07,58.26 "
       id="polygon238" /><polygon
       points="168.88,58.26 175.22,41.74 175.22,41.74 177.63,41.74 171.29,58.26 "
       id="polygon240" /></g></svg>