<?xml version="1.0" encoding="UTF-8" standalone="no"?>
<svg
   xmlns:dc="http://purl.org/dc/elements/1.1/"
   xmlns:cc="http://creativecommons.org/ns#"
   xmlns:rdf="http://www.w3.org/1999/02/22-rdf-syntax-ns#"
   xmlns:svg="http://www.w3.org/2000/svg"
   xmlns="http://www.w3.org/2000/svg"
   xmlns:sodipodi="http://sodipodi.sourceforge.net/DTD/sodipodi-0.dtd"
   xmlns:inkscape="http://www.inkscape.org/namespaces/inkscape"
   version="1.1"
   x="0px"
   y="0px"
   width="93.445595"
   height="97.260002"
   viewBox="0 0 93.445595 97.260002"
   enable-background="new 0 0 220 100"
   xml:space="preserve"
   id="svg248"
   inkscape:version="0.91 r13725"
   sodipodi:docname="logo.menschenrechte.svg"><metadata
     id="metadata257"><rdf:RDF><cc:Work
         rdf:about=""><dc:format>image/svg+xml</dc:format><dc:type
           rdf:resource="http://purl.org/dc/dcmitype/StillImage" /><dc:title></dc:title></cc:Work></rdf:RDF></metadata><defs
     id="defs255" /><sodipodi:namedview
     pagecolor="#ffffff"
     bordercolor="#666666"
     borderopacity="1"
     objecttolerance="10"
     gridtolerance="10"
     guidetolerance="10"
     inkscape:pageopacity="0"
     inkscape:pageshadow="2"
     inkscape:window-width="640"
     inkscape:window-height="480"
     id="namedview253"
     showgrid="false"
     fit-margin-top="0"
     fit-margin-left="0"
     fit-margin-right="0"
     fit-margin-bottom="0"
     inkscape:zoom="2.36"
     inkscape:cx="46.72"
     inkscape:cy="48.62"
     inkscape:window-x="0"
     inkscape:window-y="0"
     inkscape:window-maximized="0"
     inkscape:current-layer="svg248" /><g
     id="Menschenrechte"
     style="fill:#ffffff"
     transform="translate(-63.28,-1.36)"><path
       d="m 63.28,64.39 c 4.28,-8.17 11.67,-9.34 16.73,-7.39 4.28,1.56 8.17,5.83 11.67,10.5 2.72,3.11 8.95,13.23 15.95,8.17 3.5,-2.72 0.78,-8.56 -2.33,-10.5 -6.61,-4.67 -10.12,-7 -10.12,-13.62 0,-5.84 8.95,-33.46 13.23,-50.19 6.61,3.89 8.95,9.34 8.95,14.01 0,7.39 -11.67,28.01 -7.39,34.62 l 29.18,-36.18 c 4.28,6.22 5.45,10.5 3.89,14.39 -4.28,10.11 -26.06,25.29 -22.56,31.9 l 35.4,-19.45 c 2.72,7.39 -1.56,14.01 -6.61,16.73 -10.11,5.45 -21.01,8.17 -21.01,13.62 l 24.12,0 c -2.33,6.61 -5.83,8.56 -9.73,8.56 -11.28,-0.78 -13.62,-0.39 -17.9,6.22 -3.89,5.83 -10.5,12.84 -20.62,12.84 -11.28,0 -18.28,-8.17 -23.34,-17.9 C 76.51,72.56 71.06,66.34 63.28,64.39 Z"
       id="path251"
       inkscape:connector-curvature="0" /></g></svg>