<?xml version="1.0" encoding="UTF-8" standalone="no"?>
<svg
   xmlns:dc="http://purl.org/dc/elements/1.1/"
   xmlns:cc="http://creativecommons.org/ns#"
   xmlns:rdf="http://www.w3.org/1999/02/22-rdf-syntax-ns#"
   xmlns:svg="http://www.w3.org/2000/svg"
   xmlns="http://www.w3.org/2000/svg"
   xmlns:sodipodi="http://sodipodi.sourceforge.net/DTD/sodipodi-0.dtd"
   xmlns:inkscape="http://www.inkscape.org/namespaces/inkscape"
   version="1.1"
   x="0px"
   y="0px"
   width="193.75999"
   height="14.55"
   viewBox="0 0 193.75999 14.55"
   enable-background="new 0 0 220 100"
   xml:space="preserve"
   id="svg259"
   inkscape:version="0.91 r13725"
   sodipodi:docname="logo.namics.svg"><metadata
     id="metadata302"><rdf:RDF><cc:Work
         rdf:about=""><dc:format>image/svg+xml</dc:format><dc:type
           rdf:resource="http://purl.org/dc/dcmitype/StillImage" /><dc:title></dc:title></cc:Work></rdf:RDF></metadata><defs
     id="defs300" /><sodipodi:namedview
     pagecolor="#ffffff"
     bordercolor="#666666"
     borderopacity="1"
     objecttolerance="10"
     gridtolerance="10"
     guidetolerance="10"
     inkscape:pageopacity="0"
     inkscape:pageshadow="2"
     inkscape:window-width="640"
     inkscape:window-height="480"
     id="namedview298"
     showgrid="false"
     fit-margin-top="0"
     fit-margin-left="0"
     fit-margin-right="0"
     fit-margin-bottom="0"
     inkscape:zoom="2.36"
     inkscape:cx="94.88"
     inkscape:cy="7.28"
     inkscape:window-x="0"
     inkscape:window-y="0"
     inkscape:window-maximized="0"
     inkscape:current-layer="svg259" /><g
     id="Namics"
     style="fill:#ffffff"
     transform="translate(-15.12,-42.73)"><path
       d="m 15.12,57.04 0,-14.31 10.61,0 0,2.42 -7.73,0 0,3.17 7.18,0 0,2.41 -7.18,0 0,3.89 7.99,0 0,2.41 -10.87,0 z"
       id="path262"
       inkscape:connector-curvature="0" /><path
       d="m 28.11,53.22 0,-2.74 5.39,0 0,2.74 -5.39,0 z"
       id="path264"
       inkscape:connector-curvature="0" /><path
       d="m 35.11,42.73 5.72,0 c 1.13,0 1.98,0.05 2.53,0.15 0.56,0.09 1.05,0.29 1.49,0.59 0.44,0.3 0.8,0.7 1.1,1.19 0.29,0.5 0.44,1.06 0.44,1.68 0,0.67 -0.18,1.28 -0.54,1.84 -0.36,0.56 -0.85,0.98 -1.47,1.26 0.87,0.25 1.54,0.69 2.01,1.3 0.47,0.61 0.7,1.33 0.7,2.16 0,0.65 -0.15,1.28 -0.45,1.9 -0.3,0.62 -0.72,1.11 -1.24,1.47 -0.52,0.37 -1.17,0.59 -1.94,0.68 -0.48,0.05 -1.64,0.08 -3.48,0.1 l -4.87,0 0,-14.32 z m 2.89,2.38 0,3.31 1.89,0 c 1.13,0 1.83,-0.02 2.1,-0.05 0.49,-0.06 0.88,-0.23 1.17,-0.51 0.28,-0.29 0.42,-0.66 0.42,-1.12 0,-0.44 -0.12,-0.8 -0.37,-1.08 -0.24,-0.28 -0.6,-0.44 -1.09,-0.51 -0.28,-0.03 -1.11,-0.05 -2.47,-0.05 l -1.65,0 z m 0,5.69 0,3.82 2.67,0 c 1.04,0 1.7,-0.03 1.98,-0.09 0.43,-0.08 0.78,-0.27 1.05,-0.57 0.27,-0.3 0.41,-0.71 0.41,-1.22 0,-0.43 -0.1,-0.79 -0.31,-1.09 -0.21,-0.3 -0.51,-0.52 -0.9,-0.65 -0.39,-0.14 -1.25,-0.21 -2.56,-0.21 l -2.34,0 z"
       id="path266"
       inkscape:connector-curvature="0" /><path
       d="m 56.33,57.04 0,-1.55 c -0.38,0.55 -0.87,0.99 -1.49,1.31 -0.61,0.32 -1.26,0.48 -1.95,0.48 -0.69,0 -1.32,-0.15 -1.87,-0.46 -0.55,-0.3 -0.95,-0.73 -1.2,-1.29 -0.25,-0.55 -0.37,-1.32 -0.37,-2.29 l 0,-6.56 2.74,0 0,4.76 c 0,1.46 0.05,2.35 0.15,2.68 0.1,0.33 0.29,0.59 0.55,0.78 0.27,0.19 0.6,0.29 1.01,0.29 0.47,0 0.89,-0.13 1.26,-0.39 0.37,-0.26 0.62,-0.57 0.76,-0.96 0.13,-0.38 0.2,-1.31 0.2,-2.79 l 0,-4.37 2.74,0 0,10.36 -2.53,0 z"
       id="path268"
       inkscape:connector-curvature="0" /><path
       d="m 60.75,54.08 2.75,-0.42 c 0.12,0.54 0.35,0.94 0.71,1.22 0.36,0.27 0.86,0.41 1.5,0.41 0.71,0 1.24,-0.13 1.6,-0.39 0.24,-0.18 0.36,-0.42 0.36,-0.73 0,-0.21 -0.06,-0.38 -0.2,-0.52 -0.14,-0.13 -0.44,-0.25 -0.92,-0.36 -2.21,-0.49 -3.61,-0.93 -4.21,-1.34 -0.82,-0.56 -1.23,-1.34 -1.23,-2.33 0,-0.9 0.35,-1.65 1.06,-2.26 0.71,-0.61 1.81,-0.92 3.3,-0.92 1.42,0 2.47,0.23 3.16,0.69 0.69,0.46 1.16,1.14 1.42,2.05 l -2.58,0.48 c -0.11,-0.4 -0.32,-0.71 -0.63,-0.93 -0.31,-0.21 -0.75,-0.32 -1.32,-0.32 -0.72,0 -1.24,0.1 -1.55,0.3 -0.21,0.14 -0.31,0.33 -0.31,0.56 0,0.2 0.09,0.36 0.27,0.5 0.25,0.18 1.1,0.44 2.56,0.77 1.46,0.33 2.48,0.74 3.06,1.22 0.57,0.49 0.86,1.17 0.86,2.04 0,0.95 -0.4,1.77 -1.19,2.45 -0.79,0.68 -1.97,1.02 -3.52,1.02 -1.41,0 -2.53,-0.29 -3.35,-0.86 -0.81,-0.57 -1.34,-1.35 -1.6,-2.33 z"
       id="path270"
       inkscape:connector-curvature="0" /><path
       d="m 72.83,45.27 0,-2.54 2.74,0 0,2.54 -2.74,0 z m 0,11.77 0,-10.37 2.74,0 0,10.36 -2.74,0 z"
       id="path272"
       inkscape:connector-curvature="0" /><path
       d="m 87.81,57.04 -2.74,0 0,-5.29 c 0,-1.12 -0.06,-1.84 -0.18,-2.17 -0.12,-0.33 -0.31,-0.58 -0.57,-0.76 -0.26,-0.18 -0.58,-0.27 -0.95,-0.27 -0.47,0 -0.9,0.13 -1.28,0.39 -0.38,0.26 -0.64,0.61 -0.78,1.03 -0.14,0.43 -0.21,1.22 -0.21,2.38 l 0,4.69 -2.74,0 0,-10.37 2.55,0 0,1.52 c 0.9,-1.17 2.04,-1.76 3.41,-1.76 0.61,0 1.16,0.11 1.66,0.33 0.5,0.22 0.88,0.5 1.14,0.84 0.26,0.34 0.44,0.72 0.54,1.15 0.1,0.43 0.15,1.04 0.15,1.84 l 0,6.45 z"
       id="path274"
       inkscape:connector-curvature="0" /><path
       d="m 96.59,53.74 2.73,0.46 c -0.35,1 -0.91,1.77 -1.66,2.29 -0.76,0.52 -1.71,0.79 -2.85,0.79 -1.8,0 -3.13,-0.59 -4,-1.77 -0.68,-0.94 -1.03,-2.13 -1.03,-3.57 0,-1.72 0.45,-3.06 1.35,-4.04 0.89,-0.97 2.03,-1.46 3.41,-1.46 1.54,0 2.76,0.51 3.65,1.53 0.89,1.02 1.32,2.58 1.28,4.68 l -6.87,0 c 0.02,0.81 0.24,1.45 0.66,1.9 0.42,0.46 0.95,0.68 1.58,0.68 0.43,0 0.79,-0.12 1.08,-0.35 0.3,-0.24 0.53,-0.62 0.67,-1.14 z m 0.16,-2.77 c -0.02,-0.79 -0.22,-1.4 -0.61,-1.81 -0.39,-0.41 -0.87,-0.62 -1.43,-0.62 -0.6,0 -1.09,0.22 -1.48,0.65 -0.39,0.43 -0.58,1.03 -0.58,1.77 l 4.1,0 z"
       id="path276"
       inkscape:connector-curvature="0" /><path
       d="m 100.75,54.08 2.75,-0.42 c 0.12,0.54 0.35,0.94 0.71,1.22 0.36,0.27 0.86,0.41 1.5,0.41 0.71,0 1.25,-0.13 1.6,-0.39 0.24,-0.18 0.36,-0.42 0.36,-0.73 0,-0.21 -0.07,-0.38 -0.2,-0.52 -0.13,-0.13 -0.44,-0.25 -0.92,-0.36 -2.21,-0.49 -3.61,-0.93 -4.2,-1.34 -0.82,-0.56 -1.23,-1.34 -1.23,-2.33 0,-0.9 0.36,-1.65 1.06,-2.26 0.71,-0.61 1.81,-0.92 3.3,-0.92 1.42,0 2.47,0.23 3.16,0.69 0.69,0.46 1.16,1.14 1.42,2.05 l -2.59,0.48 c -0.11,-0.4 -0.32,-0.71 -0.63,-0.93 -0.31,-0.21 -0.75,-0.32 -1.32,-0.32 -0.72,0 -1.24,0.1 -1.55,0.3 -0.21,0.14 -0.31,0.33 -0.31,0.56 0,0.2 0.09,0.36 0.28,0.5 0.24,0.18 1.1,0.44 2.56,0.77 1.46,0.33 2.48,0.74 3.06,1.22 0.57,0.49 0.86,1.17 0.86,2.04 0,0.95 -0.4,1.77 -1.19,2.45 -0.79,0.68 -1.97,1.02 -3.52,1.02 -1.41,0 -2.53,-0.29 -3.35,-0.86 -0.82,-0.57 -1.37,-1.35 -1.61,-2.33 z"
       id="path278"
       inkscape:connector-curvature="0" /><path
       d="m 111.86,54.08 2.75,-0.42 c 0.12,0.54 0.35,0.94 0.71,1.22 0.36,0.27 0.86,0.41 1.5,0.41 0.71,0 1.25,-0.13 1.6,-0.39 0.24,-0.18 0.36,-0.42 0.36,-0.73 0,-0.21 -0.07,-0.38 -0.2,-0.52 -0.14,-0.13 -0.44,-0.25 -0.92,-0.36 -2.21,-0.49 -3.61,-0.93 -4.2,-1.34 -0.82,-0.56 -1.23,-1.34 -1.23,-2.33 0,-0.9 0.35,-1.65 1.07,-2.26 0.71,-0.61 1.81,-0.92 3.3,-0.92 1.42,0 2.47,0.23 3.16,0.69 0.69,0.46 1.17,1.14 1.43,2.05 l -2.59,0.48 c -0.11,-0.4 -0.32,-0.71 -0.63,-0.93 -0.31,-0.21 -0.75,-0.32 -1.32,-0.32 -0.72,0 -1.24,0.1 -1.55,0.3 -0.21,0.14 -0.31,0.33 -0.31,0.56 0,0.2 0.09,0.36 0.27,0.5 0.25,0.18 1.1,0.44 2.56,0.77 1.46,0.33 2.48,0.74 3.06,1.22 0.57,0.49 0.86,1.17 0.86,2.04 0,0.95 -0.4,1.77 -1.19,2.45 -0.79,0.68 -1.97,1.02 -3.52,1.02 -1.41,0 -2.53,-0.29 -3.35,-0.86 -0.83,-0.57 -1.37,-1.35 -1.62,-2.33 z"
       id="path280"
       inkscape:connector-curvature="0" /><path
       d="m 123.94,57.04 0,-2.74 2.74,0 0,2.74 -2.74,0 z"
       id="path282"
       inkscape:connector-curvature="0" /><path
       d="m 135.09,57.04 0,-14.31 2.81,0 5.86,9.56 0,-9.56 2.68,0 0,14.31 -2.9,0 -5.77,-9.33 0,9.33 -2.68,0 z"
       id="path284"
       inkscape:connector-curvature="0" /><path
       d="m 151.52,49.84 -2.49,-0.45 c 0.28,-1 0.76,-1.74 1.45,-2.23 0.68,-0.48 1.7,-0.72 3.04,-0.72 1.23,0 2.13,0.15 2.73,0.43 0.6,0.29 1.02,0.66 1.27,1.1 0.25,0.45 0.36,1.27 0.36,2.46 l -0.03,3.2 c 0,0.91 0.04,1.58 0.13,2.02 0.09,0.43 0.25,0.9 0.49,1.39 l -2.71,0 c -0.07,-0.18 -0.16,-0.46 -0.26,-0.81 -0.04,-0.16 -0.08,-0.27 -0.1,-0.32 -0.47,0.46 -0.97,0.79 -1.5,1.03 -0.53,0.23 -1.1,0.34 -1.71,0.34 -1.07,0 -1.91,-0.29 -2.52,-0.87 -0.62,-0.58 -0.92,-1.31 -0.92,-2.2 0,-0.59 0.14,-1.11 0.42,-1.57 0.28,-0.46 0.67,-0.81 1.18,-1.05 0.5,-0.24 1.23,-0.46 2.18,-0.64 1.28,-0.24 2.17,-0.46 2.67,-0.67 l 0,-0.28 c 0,-0.53 -0.13,-0.9 -0.39,-1.13 -0.26,-0.23 -0.75,-0.34 -1.47,-0.34 -0.49,0 -0.87,0.09 -1.14,0.29 -0.29,0.2 -0.51,0.53 -0.68,1.02 z m 3.68,2.22 c -0.35,0.12 -0.91,0.26 -1.67,0.42 -0.76,0.16 -1.26,0.32 -1.49,0.48 -0.36,0.25 -0.54,0.58 -0.54,0.96 0,0.38 0.14,0.72 0.43,1 0.29,0.28 0.65,0.42 1.09,0.42 0.5,0 0.97,-0.16 1.42,-0.49 0.33,-0.25 0.55,-0.55 0.65,-0.91 0.07,-0.24 0.11,-0.68 0.11,-1.34 l 0,-0.54 z"
       id="path286"
       inkscape:connector-curvature="0" /><path
       d="m 160.38,46.67 2.53,0 0,1.42 c 0.9,-1.1 1.98,-1.65 3.23,-1.65 0.67,0 1.24,0.14 1.73,0.41 0.49,0.28 0.89,0.69 1.2,1.24 0.46,-0.55 0.95,-0.96 1.47,-1.24 0.53,-0.27 1.09,-0.41 1.69,-0.41 0.76,0 1.4,0.15 1.93,0.46 0.53,0.31 0.92,0.76 1.18,1.36 0.19,0.44 0.28,1.16 0.28,2.15 l 0,6.63 -2.74,0 0,-5.92 c 0,-1.03 -0.1,-1.7 -0.29,-2 -0.25,-0.39 -0.65,-0.58 -1.17,-0.58 -0.38,0 -0.74,0.12 -1.08,0.35 -0.34,0.23 -0.58,0.58 -0.73,1.03 -0.15,0.45 -0.22,1.17 -0.22,2.14 l 0,4.98 -2.74,0 0,-5.68 c 0,-1.01 -0.05,-1.66 -0.15,-1.95 -0.1,-0.29 -0.25,-0.51 -0.46,-0.65 -0.2,-0.14 -0.48,-0.21 -0.83,-0.21 -0.42,0 -0.8,0.11 -1.14,0.34 -0.34,0.23 -0.58,0.55 -0.73,0.98 -0.15,0.43 -0.22,1.14 -0.22,2.14 l 0,5.03 -2.74,0 0,-10.37 z"
       id="path288"
       inkscape:connector-curvature="0" /><path
       d="m 178.36,45.27 0,-2.54 2.75,0 0,2.54 -2.75,0 z m 0,11.77 0,-10.37 2.75,0 0,10.36 -2.75,0 z"
       id="path290"
       inkscape:connector-curvature="0" /><path
       d="m 192.95,49.74 -2.71,0.49 c -0.09,-0.54 -0.3,-0.95 -0.62,-1.22 -0.32,-0.27 -0.74,-0.41 -1.26,-0.41 -0.68,0 -1.22,0.24 -1.64,0.71 -0.41,0.47 -0.61,1.26 -0.61,2.37 0,1.23 0.21,2.1 0.62,2.6 0.41,0.51 0.97,0.76 1.66,0.76 0.52,0 0.95,-0.15 1.28,-0.45 0.33,-0.3 0.56,-0.8 0.7,-1.53 l 2.69,0.46 c -0.28,1.24 -0.82,2.17 -1.61,2.8 -0.79,0.63 -1.86,0.95 -3.19,0.95 -1.52,0 -2.72,-0.48 -3.63,-1.43 -0.9,-0.96 -1.35,-2.28 -1.35,-3.98 0,-1.71 0.45,-3.04 1.36,-4 0.9,-0.95 2.13,-1.43 3.67,-1.43 1.26,0 2.26,0.27 3.01,0.81 0.77,0.56 1.3,1.39 1.63,2.5 z"
       id="path292"
       inkscape:connector-curvature="0" /><path
       d="m 194.06,54.08 2.75,-0.42 c 0.12,0.54 0.36,0.94 0.71,1.22 0.36,0.27 0.86,0.41 1.5,0.41 0.71,0 1.24,-0.13 1.6,-0.39 0.24,-0.18 0.36,-0.42 0.36,-0.73 0,-0.21 -0.06,-0.38 -0.19,-0.52 -0.14,-0.13 -0.45,-0.25 -0.92,-0.36 -2.21,-0.49 -3.61,-0.93 -4.2,-1.34 -0.82,-0.56 -1.23,-1.34 -1.23,-2.33 0,-0.9 0.36,-1.65 1.06,-2.26 0.71,-0.61 1.81,-0.92 3.3,-0.92 1.42,0 2.47,0.23 3.16,0.69 0.69,0.46 1.17,1.14 1.42,2.05 l -2.58,0.48 c -0.11,-0.4 -0.32,-0.71 -0.63,-0.93 -0.31,-0.21 -0.75,-0.32 -1.32,-0.32 -0.72,0 -1.24,0.1 -1.55,0.3 -0.21,0.14 -0.31,0.33 -0.31,0.56 0,0.2 0.09,0.36 0.28,0.5 0.25,0.18 1.1,0.44 2.56,0.77 1.46,0.33 2.48,0.74 3.06,1.22 0.57,0.49 0.86,1.17 0.86,2.04 0,0.95 -0.4,1.77 -1.19,2.45 -0.79,0.68 -1.97,1.02 -3.52,1.02 -1.41,0 -2.53,-0.29 -3.35,-0.86 -0.84,-0.57 -1.38,-1.35 -1.63,-2.33 z"
       id="path294"
       inkscape:connector-curvature="0" /><path
       d="m 206.14,57.04 0,-2.74 2.74,0 0,2.74 -2.74,0 z"
       id="path296"
       inkscape:connector-curvature="0" /></g></svg>