<?xml version="1.0" encoding="UTF-8" standalone="no"?>
<!-- Created with Inkscape (http://www.inkscape.org/) -->

<svg
   xmlns:dc="http://purl.org/dc/elements/1.1/"
   xmlns:cc="http://creativecommons.org/ns#"
   xmlns:rdf="http://www.w3.org/1999/02/22-rdf-syntax-ns#"
   xmlns:svg="http://www.w3.org/2000/svg"
   xmlns="http://www.w3.org/2000/svg"
   xmlns:sodipodi="http://sodipodi.sourceforge.net/DTD/sodipodi-0.dtd"
   xmlns:inkscape="http://www.inkscape.org/namespaces/inkscape"
   id="svg2"
   version="1.1"
   inkscape:version="0.91 r13725"
   xml:space="preserve"
   width="101.9625"
   height="44.575001"
   viewBox="0 0 101.9625 44.575001"
   sodipodi:docname="netz98_logo_negativ_white_NEU.svg"><metadata
     id="metadata8"><rdf:RDF><cc:Work
         rdf:about=""><dc:format>image/svg+xml</dc:format><dc:type
           rdf:resource="http://purl.org/dc/dcmitype/StillImage" /><dc:title></dc:title></cc:Work></rdf:RDF></metadata><defs
     id="defs6" /><sodipodi:namedview
     pagecolor="#ffffff"
     bordercolor="#666666"
     borderopacity="1"
     objecttolerance="10"
     gridtolerance="10"
     guidetolerance="10"
     inkscape:pageopacity="0"
     inkscape:pageshadow="2"
     inkscape:window-width="1200"
     inkscape:window-height="1891"
     id="namedview4"
     showgrid="false"
     inkscape:zoom="3.7268603"
     inkscape:cx="64.683051"
     inkscape:cy="25.340635"
     inkscape:window-x="1920"
     inkscape:window-y="0"
     inkscape:window-maximized="1"
     inkscape:current-layer="g10" /><g
     id="g10"
     inkscape:groupmode="layer"
     inkscape:label="ink_ext_XXXXXX"
     transform="matrix(1.25,0,0,-1.25,0,44.575)"><path
       inkscape:connector-curvature="0"
       id="path14"
       style="fill:#ffffff;fill-opacity:1;fill-rule:nonzero;stroke:none"
       d="m 61.4008,17.8762 0,2.0894 c 0,1.3809 -0.4723,2.2891 -1.9258,2.2891 -1.4172,0 -2.0352,-0.7992 -2.0352,-2.1984 l 0,-0.3633 c 0,-1.2172 0.5637,-1.9078 2.1079,-1.9078 0.5996,0 1.3261,0.0367 1.8531,0.091 z m -5.1961,-6.2321 0,1.0176 c 0,0.2 0.0906,0.3086 0.309,0.2727 0.7445,-0.1274 1.5984,-0.2 2.3797,-0.2 1.9445,0 2.5074,1.2176 2.5074,3.0703 l 0,0.5816 c -0.636,-0.2547 -1.5805,-0.4179 -2.3985,-0.4179 -2.725,0 -3.7789,1.4355 -3.7789,3.5246 l 0,0.5633 c 0,2.5621 1.6172,4.0152 4.1606,4.0152 2.925,0 4.2336,-1.5805 4.2336,-4.1785 l 0,-3.9246 c 0,-2.8707 -1.2719,-5.0508 -4.3606,-5.0508 -0.9632,0 -2.0535,0.1633 -2.816,0.4359 -0.1637,0.0543 -0.2363,0.1457 -0.2363,0.2906" /><path
       inkscape:connector-curvature="0"
       id="path16"
       style="fill:#ffffff;fill-opacity:1;fill-rule:nonzero;stroke:none"
       d="m 69.6859,22.2547 c -1.3261,0 -1.8531,-0.5992 -1.8531,-1.7074 0,-1.036 0.436,-1.4539 2.5438,-2.2172 0.8539,0.5453 1.1445,1.2355 1.1445,2.1258 0,1.1996 -0.5086,1.7988 -1.8352,1.7988 z m 0,-9.5203 c 1.5809,0 2.2711,0.509 2.2711,1.8168 0,1.0718 -0.7265,1.6172 -3.1613,2.4711 -0.9266,-0.5817 -1.3988,-1.3082 -1.3988,-2.4528 0,-1.2718 0.7086,-1.8351 2.289,-1.8351 z m 2.4168,4.9238 c 1.1625,-0.6359 2.0711,-1.5988 2.0711,-3.1434 0,-2.4707 -1.3812,-3.5972 -4.4879,-3.5972 -3.0703,0 -4.5058,1.2172 -4.5058,3.5972 0,1.5262 0.6543,2.5985 1.9441,3.2524 -0.8722,0.5996 -1.4898,1.4715 -1.4898,2.8523 0,2.2532 1.4355,3.452 4.0515,3.452 2.7797,0 4.0336,-1.2535 4.0336,-3.543 0,-1.2351 -0.4,-2.1984 -1.6168,-2.8703" /><path
       inkscape:connector-curvature="0"
       id="path18"
       style="fill:#ffffff;fill-opacity:1;fill-rule:nonzero;stroke:none"
       d="m 78.9168,11.543 -0.8203,-0.5008 0.7566,6.2398 1.0539,-3.114 -0.0011,-0.0039 0.0546,-0.159 c 0.0704,-0.209 0.1067,-0.4258 0.1067,-0.643 0,-0.7625 -0.427,-1.4519 -1.1504,-1.8191 z M 76.8387,9.02266 C 76.7859,8.45703 76.7,8.18867 76.4703,7.875 76.2848,7.62227 75.9723,7.33906 75.0652,7.15547 L 73.0164,6.80078 76.8492,9.11211 76.8387,9.02266 Z M 63.116,1.98242 C 62.6254,1.66719 62.157,1.51563 61.6414,1.50391 61.0961,1.49805 60.3449,1.61719 59.8387,2.28984 L 59.032,3.33594 67.9242,4.89453 63.116,1.98242 Z M 52.5523,11.7344 49.2742,24.0445 62.9215,30.3063 74.1273,31.2 78.109,19.4809 77.0047,10.377 70.2926,6.32891 58.3422,4.23359 52.5523,11.7344 Z M 57.0441,4.01445 C 56.4656,3.89766 55.8617,3.92852 55.427,4.09297 54.7867,4.33516 54.3891,4.79492 54.209,5.50273 l -0.9914,3.72852 4.0035,-5.1875 -0.177,-0.0293 z M 46.0164,20.2234 c -0.3242,0.4481 -0.2633,0.9973 -0.1984,1.2844 0.1363,0.6008 0.516,1.1602 0.9414,1.393 l 1.5875,0.7277 2.6183,-9.8316 -4.9488,6.4265 z m 2.5895,8.1911 c 0.3796,0.6835 0.8351,1.0234 1.4476,1.0992 l 10.0856,0.6195 -11.1262,-5.1043 -0.5824,2.2004 c -0.0016,0.0066 -0.1133,0.666 0.1754,1.1852 z m 22.4609,5.6488 c 0.1984,0.0637 0.4035,0.0957 0.6098,0.0957 0.4937,0 0.9683,-0.184 1.3609,-0.5375 0.3105,-0.2477 0.5605,-0.8848 0.7547,-1.4418 L 65.5563,31.523 c 4.8152,2.211 5.5089,2.5336 5.5105,2.5403 z m 6.0102,-2.6746 c 0.7238,0.0527 1.2175,-0.2864 1.4949,-0.584 0.4629,-0.4961 0.6984,-1.2445 0.6008,-1.9059 l -0.7989,-7.0797 -3.2109,9.4512 1.9141,0.1184 z m 3.8847,-17.2285 0.0039,0.0097 -1.834,5.418 1.034,9.1726 c 0.1407,0.9641 -0.1883,2.0086 -0.8593,2.7282 -0.6055,0.6488 -1.4219,0.9718 -2.2997,0.9004 l -2.18,-0.134 c -0.2571,0.7562 -0.5774,1.6828 -1.1399,2.1304 -0.5535,0.5008 -1.2676,0.7766 -2.0101,0.7766 -0.3102,0 -0.6176,-0.048 -0.9875,-0.1723 -0.1418,-0.0703 -2.8465,-1.314 -8.0379,-3.6968 L 49.9621,30.5121 C 48.9961,30.3941 48.2652,29.8676 47.7289,28.902 47.2613,28.0613 47.4363,27.0887 47.452,27.0117 L 48.0855,24.6113 46.284,23.7828 C 45.6063,23.4141 45.0395,22.6086 44.8402,21.7301 44.6625,20.948 44.7918,20.2043 45.2129,19.623 L 51.6336,11.2844 53.2383,5.25 c 0.2578,-1.01484 0.8918,-1.73945 1.8336,-2.09453 0.6117,-0.23359 1.4035,-0.27774 2.1523,-0.12813 l 0.6903,0.11524 1.1257,-1.46094 C 59.616,0.917969 60.5121,0.5 61.5715,0.5 c 0.0305,0 0.0609,0.001172 0.0918,0.001953 0.7082,0.014844 1.3418,0.216797 1.9836,0.629687 l 7.0011,4.24063 4.595,0.7957 0.0125,0.00195 c 0.9804,0.19727 1.6047,0.54024 2.0246,1.11211 0.3418,0.46797 0.4871,0.89961 0.5554,1.63281 l 0.1059,0.8586 1.4629,0.89376 c 1.0281,0.5191 1.6668,1.5516 1.6668,2.6949 0,0.2688 -0.0371,0.5363 -0.1094,0.7981" /><path
       inkscape:connector-curvature="0"
       id="path20"
       style="fill:#ffffff;stroke:none;stroke-width:1;stroke-linecap:butt;stroke-linejoin:miter;stroke-miterlimit:10;stroke-dasharray:none;stroke-opacity:1"
       d="m 78.9168,11.543 -0.8203,-0.5008 0.7566,6.2398 1.0539,-3.114 -0.0011,-0.0039 0.0546,-0.159 c 0.0704,-0.209 0.1067,-0.4258 0.1067,-0.643 0,-0.7625 -0.427,-1.4519 -1.1504,-1.8191 z M 76.8387,9.02266 C 76.7859,8.45703 76.7,8.18867 76.4703,7.875 76.2848,7.62227 75.9723,7.33906 75.0652,7.15547 L 73.0164,6.80078 76.8492,9.11211 76.8387,9.02266 Z M 63.116,1.98242 C 62.6254,1.66719 62.157,1.51563 61.6414,1.50391 61.0961,1.49805 60.3449,1.61719 59.8387,2.28984 L 59.032,3.33594 67.9242,4.89453 63.116,1.98242 Z M 52.5523,11.7344 49.2742,24.0445 62.9215,30.3063 74.1273,31.2 78.109,19.4809 77.0047,10.377 70.2926,6.32891 58.3422,4.23359 52.5523,11.7344 Z M 57.0441,4.01445 C 56.4656,3.89766 55.8617,3.92852 55.427,4.09297 54.7867,4.33516 54.3891,4.79492 54.209,5.50273 l -0.9914,3.72852 4.0035,-5.1875 -0.177,-0.0293 z M 46.0164,20.2234 c -0.3242,0.4481 -0.2633,0.9973 -0.1984,1.2844 0.1363,0.6008 0.516,1.1602 0.9414,1.393 l 1.5875,0.7277 2.6183,-9.8316 -4.9488,6.4265 z m 2.5895,8.1911 c 0.3796,0.6835 0.8351,1.0234 1.4476,1.0992 l 10.0856,0.6195 -11.1262,-5.1043 -0.5824,2.2004 c -0.0016,0.0066 -0.1133,0.666 0.1754,1.1852 z m 22.4609,5.6488 c 0.1984,0.0637 0.4035,0.0957 0.6098,0.0957 0.4937,0 0.9683,-0.184 1.3609,-0.5375 0.3105,-0.2477 0.5605,-0.8848 0.7547,-1.4418 L 65.5563,31.523 c 4.8152,2.211 5.5089,2.5336 5.5105,2.5403 z m 6.0102,-2.6746 c 0.7238,0.0527 1.2175,-0.2864 1.4949,-0.584 0.4629,-0.4961 0.6984,-1.2445 0.6008,-1.9059 l -0.7989,-7.0797 -3.2109,9.4512 1.9141,0.1184 z m 3.8847,-17.2285 0.0039,0.0097 -1.834,5.418 1.034,9.1726 c 0.1407,0.9641 -0.1883,2.0086 -0.8593,2.7282 -0.6055,0.6488 -1.4219,0.9718 -2.2997,0.9004 l -2.18,-0.134 c -0.2571,0.7562 -0.5774,1.6828 -1.1399,2.1304 -0.5535,0.5008 -1.2676,0.7766 -2.0101,0.7766 -0.3102,0 -0.6176,-0.048 -0.9875,-0.1723 -0.1418,-0.0703 -2.8465,-1.314 -8.0379,-3.6968 L 49.9621,30.5121 C 48.9961,30.3941 48.2652,29.8676 47.7289,28.902 47.2613,28.0613 47.4363,27.0887 47.452,27.0117 L 48.0855,24.6113 46.284,23.7828 C 45.6063,23.4141 45.0395,22.6086 44.8402,21.7301 44.6625,20.948 44.7918,20.2043 45.2129,19.623 L 51.6336,11.2844 53.2383,5.25 c 0.2578,-1.01484 0.8918,-1.73945 1.8336,-2.09453 0.6117,-0.23359 1.4035,-0.27774 2.1523,-0.12813 l 0.6903,0.11524 1.1257,-1.46094 C 59.616,0.917969 60.5121,0.5 61.5715,0.5 c 0.0305,0 0.0609,0.001172 0.0918,0.001953 0.7082,0.014844 1.3418,0.216797 1.9836,0.629687 l 7.0011,4.24063 4.595,0.7957 0.0125,0.00195 c 0.9804,0.19727 1.6047,0.54024 2.0246,1.11211 0.3418,0.46797 0.4871,0.89961 0.5554,1.63281 l 0.1059,0.8586 1.4629,0.89376 c 1.0281,0.5191 1.6668,1.5516 1.6668,2.6949 0,0.2688 -0.0371,0.5363 -0.1094,0.7981 z" /><path
       inkscape:connector-curvature="0"
       id="path22"
       style="fill:#ffffff;fill-opacity:1;fill-rule:nonzero;stroke:none"
       d="m 6.91172,23.8004 -0.15859,4e-4 C 5.79961,23.8012 5.3707,23.7352 4.34922,22.9406 3.82461,22.5324 2.73242,21.5387 1.84336,20.7152 l 0,2.3586 c 0,0.509 -0.41289,0.9215 -0.921876,0.9215 C 0.412891,23.9953 0,23.5828 0,23.0738 L 0,12.1445 c 0,-0.509 0.412891,-0.9215 0.921484,-0.9215 0.508986,0 0.921876,0.4125 0.921876,0.9215 l 0,6.0477 c 0.45859,0.4328 2.84297,2.6754 3.6375,3.2937 0.61016,0.4746 0.63555,0.4746 1.26445,0.4719 l 0.16641,-8e-4 c 1.09101,0 2.04805,-0.8371 2.04805,-1.7918 l 0,-8.0207 c 0,-0.509 0.4125,-0.9215 0.92148,-0.9215 0.50895,0 0.92145,0.4125 0.92145,0.9215 l 0,8.0207 c 0,1.9703 -1.78161,3.6352 -3.89098,3.6352" /><path
       inkscape:connector-curvature="0"
       id="path24"
       style="fill:#ffffff;fill-opacity:1;fill-rule:nonzero;stroke:none"
       d="m 17.8121,22.2645 0.9215,0 c 1.3859,0 2.6172,-1.4657 2.7644,-1.8993 l 0,-1.4902 c -0.0339,0.0039 -0.0671,0.0102 -0.1023,0.0102 l -6.3484,0 0,1.48 c 0.1476,0.4336 1.3789,1.8993 2.7648,1.8993 z m 1.0238,1.8418 c -0.0168,7e-4 -1.0238,0.0011 -1.0238,0.0011 -2.475,0 -4.6082,-2.4722 -4.6082,-3.6859 l 0,-5.3246 c 0,-1.1328 1.8676,-3.7985 4.4219,-3.7985 l 3.8914,0 c 0.5086,0 0.9215,0.4125 0.9215,0.9215 0,0.509 -0.4129,0.9215 -0.9215,0.9215 l -3.8914,0 c -1.3438,0 -2.4688,1.552 -2.5785,1.993 l 0,1.8054 7.3726,0 c 0,0 0.9215,-0.0425 0.9215,0.9215 l 0,2.5602 c 0,1.1969 -2.0742,3.6176 -4.5055,3.6848" /><path
       inkscape:connector-curvature="0"
       id="path26"
       style="fill:#ffffff;fill-opacity:1;fill-rule:nonzero;stroke:none"
       d="m 30.623,24.0051 -2.514,0 0.0219,2.6203 c 0.0043,0.509 -0.4051,0.9246 -0.9137,0.9293 -0.0027,0 -0.0055,0 -0.0082,0 -0.5051,0 -0.9172,-0.4078 -0.9211,-0.9141 L 26.1848,14.2688 c -0.0207,-0.2774 -0.0328,-1.2524 0.6906,-2.0672 0.6176,-0.6957 1.5562,-1.0481 2.7902,-1.0481 0.509,0 0.9219,0.4125 0.9219,0.9215 0,0.509 -0.4129,0.9215 -0.9219,0.9215 -0.4636,0 -1.0836,0.0723 -1.4015,0.4172 -0.2688,0.2914 -0.2422,0.7027 -0.243,0.7027 l 0,-4e-4 c 0.0039,0.034 0.0062,0.068 0.0062,0.1016 l 0.0665,7.9445 2.5292,0 c 0.509,0 0.9215,0.4125 0.9215,0.9215 0,0.509 -0.4125,0.9215 -0.9215,0.9215" /><path
       inkscape:connector-curvature="0"
       id="path28"
       style="fill:#ffffff;fill-opacity:1;fill-rule:nonzero;stroke:none"
       d="m 42.748,12.9965 -7.0546,0 0.0742,1.1418 7.4367,6.5437 c 0.1918,0.1688 0.3051,0.409 0.3125,0.6645 l 0.0512,1.7098 c 0.0074,0.248 -0.0856,0.4882 -0.2578,0.6667 -0.1723,0.179 -0.409,0.2805 -0.6571,0.2821 l -7.5773,0.0512 c -0.0024,0 -0.0043,0 -0.0063,0 -0.5058,0 -0.9179,-0.4086 -0.9215,-0.9153 -0.0035,-0.509 0.4063,-0.9242 0.9153,-0.9277 l 6.634,-0.0449 -0.0106,-0.3672 -7.423,-6.5309 c -0.1828,-0.1613 -0.2949,-0.389 -0.3106,-0.632 l -0.1625,-2.5035 c -0.0168,-0.2543 0.0731,-0.5039 0.2473,-0.6903 0.1738,-0.1855 0.4176,-0.291 0.6723,-0.291 l 8.0378,0 c 0.509,0 0.9215,0.4125 0.9215,0.9215 0,0.509 -0.4125,0.9215 -0.9215,0.9215" /></g></svg>