<?xml version="1.0" encoding="UTF-8" standalone="no"?>
<svg
   xmlns:dc="http://purl.org/dc/elements/1.1/"
   xmlns:cc="http://creativecommons.org/ns#"
   xmlns:rdf="http://www.w3.org/1999/02/22-rdf-syntax-ns#"
   xmlns:svg="http://www.w3.org/2000/svg"
   xmlns="http://www.w3.org/2000/svg"
   xmlns:sodipodi="http://sodipodi.sourceforge.net/DTD/sodipodi-0.dtd"
   xmlns:inkscape="http://www.inkscape.org/namespaces/inkscape"
   version="1.1"
   x="0px"
   y="0px"
   width="124.09"
   height="53.060001"
   viewBox="0 0 124.09 53.060001"
   enable-background="new 0 0 220 100"
   xml:space="preserve"
   id="svg304"
   inkscape:version="0.91 r13725"
   sodipodi:docname="logo.netz98.svg"><metadata
     id="metadata327"><rdf:RDF><cc:Work
         rdf:about=""><dc:format>image/svg+xml</dc:format><dc:type
           rdf:resource="http://purl.org/dc/dcmitype/StillImage" /><dc:title></dc:title></cc:Work></rdf:RDF></metadata><defs
     id="defs325" /><sodipodi:namedview
     pagecolor="#ffffff"
     bordercolor="#666666"
     borderopacity="1"
     objecttolerance="10"
     gridtolerance="10"
     guidetolerance="10"
     inkscape:pageopacity="0"
     inkscape:pageshadow="2"
     inkscape:window-width="640"
     inkscape:window-height="480"
     id="namedview323"
     showgrid="false"
     fit-margin-top="0"
     fit-margin-left="0"
     fit-margin-right="0"
     fit-margin-bottom="0"
     inkscape:zoom="2.36"
     inkscape:cx="62.04"
     inkscape:cy="26.54"
     inkscape:window-x="0"
     inkscape:window-y="0"
     inkscape:window-maximized="0"
     inkscape:current-layer="svg304" /><g
     id="Netz98"
     style="fill:#ffffff"
     transform="translate(-47.96,-23.48)"><path
       d="m 141.94,49.94 0,-3.2 c 0,-2.11 -0.72,-3.5 -2.95,-3.5 -2.17,0 -3.11,1.22 -3.11,3.37 l 0,0.55 c 0,1.86 0.86,2.92 3.23,2.92 0.91,-0.01 2.02,-0.06 2.83,-0.14 z m -7.96,9.53 0,-1.56 c 0,-0.3 0.14,-0.47 0.47,-0.42 1.14,0.2 2.45,0.31 3.64,0.31 2.98,0 3.84,-1.86 3.84,-4.7 l 0,-0.89 c -0.98,0.39 -2.42,0.64 -3.67,0.64 -4.17,0 -5.78,-2.2 -5.78,-5.39 l 0,-0.86 c 0,-3.92 2.47,-6.15 6.37,-6.15 4.48,0 6.48,2.42 6.48,6.4 l 0,6 c 0,4.4 -1.94,7.73 -6.67,7.73 -1.48,0 -3.14,-0.25 -4.31,-0.67 -0.26,-0.08 -0.37,-0.22 -0.37,-0.44"
       id="path307"
       inkscape:connector-curvature="0" /><path
       d="m 154.62,43.23 c -2.03,0 -2.84,0.92 -2.84,2.61 0,1.58 0.67,2.22 3.89,3.39 1.31,-0.84 1.75,-1.89 1.75,-3.26 0.01,-1.82 -0.77,-2.74 -2.8,-2.74 z m 0,14.57 c 2.42,0 3.48,-0.78 3.48,-2.78 0,-1.64 -1.11,-2.47 -4.84,-3.78 -1.42,0.89 -2.14,2 -2.14,3.75 -0.01,1.95 1.08,2.81 3.5,2.81 z m 3.7,-7.53 c 1.78,0.97 3.17,2.45 3.17,4.81 0,3.78 -2.11,5.51 -6.87,5.51 -4.7,0 -6.9,-1.87 -6.9,-5.51 0,-2.34 1,-3.98 2.98,-4.98 -1.33,-0.92 -2.28,-2.25 -2.28,-4.37 0,-3.45 2.2,-5.29 6.2,-5.29 4.25,0 6.17,1.92 6.17,5.43 0,1.89 -0.61,3.37 -2.47,4.4"
       id="path309"
       inkscape:connector-curvature="0" /><path
       d="m 168.75,59.63 -1.26,0.76 1.16,-9.55 1.61,4.77 0,0 0.08,0.25 c 0.11,0.32 0.16,0.65 0.16,0.98 0.01,1.17 -0.65,2.22 -1.75,2.79 z m -3.18,3.85 c -0.08,0.87 -0.21,1.28 -0.57,1.76 -0.28,0.39 -0.76,0.82 -2.15,1.11 l -3.14,0.54 5.87,-3.54 -0.01,0.13 z m -21.01,10.78 c -0.75,0.48 -1.47,0.72 -2.26,0.73 -0.83,0.01 -1.98,-0.18 -2.76,-1.2 l -1.24,-1.6 13.61,-2.38 -7.35,4.45 z m -16.17,-14.93 -5.02,-18.84 20.89,-9.58 17.15,-1.37 6.09,17.94 -1.69,13.94 -10.28,6.2 -18.29,3.2 -8.85,-11.49 z m 6.88,11.82 c -0.89,0.18 -1.81,0.13 -2.48,-0.12 -0.98,-0.37 -1.59,-1.08 -1.86,-2.16 l -1.52,-5.71 6.13,7.94 -0.27,0.05 z M 118.39,46.34 c -0.5,-0.69 -0.4,-1.53 -0.3,-1.97 0.21,-0.92 0.79,-1.78 1.44,-2.13 l 2.43,-1.11 4.01,15.05 -7.58,-9.84 z m 3.96,-12.54 c 0.58,-1.04 1.28,-1.57 2.22,-1.68 l 15.44,-0.95 -17.03,7.81 -0.89,-3.37 c -0.01,0 -0.18,-1.01 0.26,-1.81 z m 34.38,-8.64 c 0.3,-0.09 0.62,-0.15 0.94,-0.15 0.75,0 1.48,0.28 2.08,0.82 0.48,0.38 0.86,1.36 1.16,2.21 l -12.61,1 c 7.37,-3.38 8.43,-3.87 8.43,-3.88 z m 9.2,4.09 c 1.11,-0.08 1.86,0.44 2.29,0.9 0.71,0.76 1.07,1.91 0.92,2.92 L 167.92,43.9 163,29.43 l 2.93,-0.18 0,0 z m 5.95,26.37 0.01,-0.01 -2.81,-8.29 1.58,-14.04 c 0.22,-1.48 -0.29,-3.08 -1.32,-4.18 -0.93,-0.99 -2.18,-1.49 -3.52,-1.38 l -3.34,0.21 c -0.39,-1.16 -0.88,-2.58 -1.74,-3.26 -0.85,-0.77 -1.94,-1.19 -3.08,-1.19 -0.48,0 -0.95,0.08 -1.51,0.27 -0.22,0.11 -4.35,2.01 -12.3,5.66 l -19.42,1.19 c -1.48,0.18 -2.6,0.99 -3.42,2.46 -0.71,1.29 -0.44,2.78 -0.42,2.9 l 0.97,3.67 -2.76,1.27 c -1.04,0.57 -1.9,1.8 -2.21,3.14 -0.27,1.2 -0.08,2.34 0.57,3.22 l 9.83,12.76 2.46,9.24 c 0.39,1.55 1.36,2.66 2.8,3.21 0.94,0.36 2.15,0.42 3.3,0.19 l 1.06,-0.17 1.72,2.24 c 0.88,1.17 2.25,1.81 3.87,1.81 0.05,0 0.09,0 0.14,0 1.08,-0.02 2.06,-0.33 3.04,-0.96 l 10.72,-6.49 7.03,-1.22 0.02,0 c 1.5,-0.3 2.46,-0.82 3.1,-1.7 0.52,-0.72 0.75,-1.38 0.85,-2.5 l 0.16,-1.31 2.24,-1.37 c 1.57,-0.79 2.55,-2.38 2.55,-4.13 -0.01,-0.43 -0.06,-0.84 -0.17,-1.24"
       id="path311"
       inkscape:connector-curvature="0" /><path
       d="m 168.75,59.63 -1.26,0.76 1.16,-9.55 1.61,4.77 0,0 0.08,0.25 c 0.11,0.32 0.16,0.65 0.16,0.98 0.01,1.17 -0.65,2.22 -1.75,2.79 z m -3.18,3.85 c -0.08,0.87 -0.21,1.28 -0.57,1.76 -0.28,0.39 -0.76,0.82 -2.15,1.11 l -3.14,0.54 5.87,-3.54 -0.01,0.13 z m -21.01,10.78 c -0.75,0.48 -1.47,0.72 -2.26,0.73 -0.83,0.01 -1.98,-0.18 -2.76,-1.2 l -1.24,-1.6 13.61,-2.38 -7.35,4.45 z m -16.17,-14.93 -5.02,-18.84 20.89,-9.58 17.15,-1.37 6.09,17.94 -1.69,13.94 -10.28,6.2 -18.29,3.2 -8.85,-11.49 z m 6.88,11.82 c -0.89,0.18 -1.81,0.13 -2.48,-0.12 -0.98,-0.37 -1.59,-1.08 -1.86,-2.16 l -1.52,-5.71 6.13,7.94 -0.27,0.05 z M 118.39,46.34 c -0.5,-0.69 -0.4,-1.53 -0.3,-1.97 0.21,-0.92 0.79,-1.78 1.44,-2.13 l 2.43,-1.11 4.01,15.05 -7.58,-9.84 z m 3.96,-12.54 c 0.58,-1.04 1.28,-1.57 2.22,-1.68 l 15.44,-0.95 -17.03,7.81 -0.89,-3.37 c -0.01,0 -0.18,-1.01 0.26,-1.81 z m 34.38,-8.64 c 0.3,-0.09 0.62,-0.15 0.94,-0.15 0.75,0 1.48,0.28 2.08,0.82 0.48,0.38 0.86,1.36 1.16,2.21 l -12.61,1 c 7.37,-3.38 8.43,-3.87 8.43,-3.88 z m 9.2,4.09 c 1.11,-0.08 1.86,0.44 2.29,0.9 0.71,0.76 1.07,1.91 0.92,2.92 L 167.92,43.9 163,29.43 l 2.93,-0.18 0,0 z m 5.95,26.37 0.01,-0.01 -2.81,-8.29 1.58,-14.04 c 0.22,-1.48 -0.29,-3.08 -1.32,-4.18 -0.93,-0.99 -2.18,-1.49 -3.52,-1.38 l -3.34,0.21 c -0.39,-1.16 -0.88,-2.58 -1.74,-3.26 -0.85,-0.77 -1.94,-1.19 -3.08,-1.19 -0.48,0 -0.95,0.08 -1.51,0.27 -0.22,0.11 -4.35,2.01 -12.3,5.66 l -19.42,1.19 c -1.48,0.18 -2.6,0.99 -3.42,2.46 -0.71,1.29 -0.44,2.78 -0.42,2.9 l 0.97,3.67 -2.76,1.27 c -1.04,0.57 -1.9,1.8 -2.21,3.14 -0.27,1.2 -0.08,2.34 0.57,3.22 l 9.83,12.76 2.46,9.24 c 0.39,1.55 1.36,2.66 2.8,3.21 0.94,0.36 2.15,0.42 3.3,0.19 l 1.06,-0.17 1.72,2.24 c 0.88,1.17 2.25,1.81 3.87,1.81 0.05,0 0.09,0 0.14,0 1.08,-0.02 2.06,-0.33 3.04,-0.96 l 10.72,-6.49 7.03,-1.22 0.02,0 c 1.5,-0.3 2.46,-0.82 3.1,-1.7 0.52,-0.72 0.75,-1.38 0.85,-2.5 l 0.16,-1.31 2.24,-1.37 c 1.57,-0.79 2.55,-2.38 2.55,-4.13 -0.01,-0.43 -0.06,-0.84 -0.17,-1.24 z"
       id="path313"
       inkscape:connector-curvature="0" /><path
       d="m 58.54,40.86 -0.24,0 c -1.46,0 -2.12,0.1 -3.68,1.32 -0.81,0.62 -2.48,2.15 -3.84,3.41 l 0,-3.61 c 0,-0.78 -0.63,-1.41 -1.41,-1.41 -0.78,0 -1.41,0.63 -1.41,1.41 l 0,16.72 c 0,0.78 0.63,1.41 1.41,1.41 0.78,0 1.41,-0.63 1.41,-1.41 l 0,-9.25 c 0.7,-0.66 4.35,-4.1 5.57,-5.04 0.94,-0.72 0.97,-0.72 1.93,-0.72 l 0.26,0 c 1.67,0 3.13,1.28 3.13,2.74 l 0,12.27 c 0,0.78 0.63,1.41 1.41,1.41 0.78,0 1.41,-0.63 1.41,-1.41 l 0,-12.27 c 0,-3.02 -2.73,-5.57 -5.95,-5.57"
       id="path315"
       inkscape:connector-curvature="0" /><path
       d="m 75.22,43.22 1.41,0 c 2.12,0 4.01,2.24 4.23,2.91 l 0,2.28 c -0.05,0 -0.1,-0.02 -0.16,-0.02 l -9.72,0 0,-2.26 c 0.23,-0.67 2.12,-2.91 4.24,-2.91 z m 1.57,-2.82 c -0.03,0 -1.57,0 -1.57,0 -3.79,0 -7.05,3.79 -7.05,5.64 l 0,8.15 c 0,1.73 2.86,5.81 6.77,5.81 l 5.95,0 c 0.78,0 1.41,-0.63 1.41,-1.41 0,-0.77 -0.63,-1.41 -1.41,-1.41 l -5.95,0 c -2.06,0 -3.78,-2.38 -3.95,-3.05 l 0,-2.76 11.28,0 c 0,0 1.41,0.06 1.41,-1.41 l 0,-3.92 c 0,-1.84 -3.17,-5.54 -6.89,-5.64"
       id="path317"
       inkscape:connector-curvature="0" /><path
       d="m 94.83,40.55 -3.85,0 0.03,-4.01 c 0.01,-0.78 -0.62,-1.41 -1.4,-1.42 0,0 -0.01,0 -0.01,0 -0.77,0 -1.4,0.62 -1.41,1.4 l -0.16,18.94 c -0.03,0.42 -0.05,1.92 1.06,3.16 0.95,1.06 2.38,1.61 4.27,1.61 0.78,0 1.41,-0.63 1.41,-1.41 0,-0.78 -0.63,-1.41 -1.41,-1.41 -0.71,0 -1.66,-0.11 -2.14,-0.64 -0.41,-0.45 -0.37,-1.07 -0.37,-1.07 l 0,0 c 0.01,-0.05 0.01,-0.11 0.01,-0.16 l 0.1,-12.16 3.87,0 c 0.78,0 1.41,-0.63 1.41,-1.41 0,-0.79 -0.63,-1.42 -1.41,-1.42"
       id="path319"
       inkscape:connector-curvature="0" /><path
       d="m 113.39,57.4 -10.8,0 0.11,-1.74 11.38,-10.02 c 0.29,-0.26 0.47,-0.63 0.48,-1.02 L 114.64,42 c 0.01,-0.38 -0.13,-0.75 -0.39,-1.02 -0.26,-0.27 -0.63,-0.43 -1.01,-0.43 l -11.6,-0.08 c 0,0 -0.01,0 -0.01,0 -0.77,0 -1.41,0.63 -1.41,1.4 -0.01,0.78 0.62,1.41 1.4,1.42 l 10.16,0.07 -0.02,0.56 -11.36,9.99 c -0.28,0.25 -0.45,0.59 -0.47,0.97 l -0.25,3.83 c -0.02,0.39 0.11,0.77 0.38,1.06 0.27,0.28 0.64,0.45 1.03,0.45 l 12.3,0 c 0.78,0 1.41,-0.63 1.41,-1.41 0,-0.78 -0.63,-1.41 -1.41,-1.41"
       id="path321"
       inkscape:connector-curvature="0" /></g></svg>