<?xml version="1.0" encoding="UTF-8" standalone="no"?>
<svg
   xmlns:dc="http://purl.org/dc/elements/1.1/"
   xmlns:cc="http://creativecommons.org/ns#"
   xmlns:rdf="http://www.w3.org/1999/02/22-rdf-syntax-ns#"
   xmlns:svg="http://www.w3.org/2000/svg"
   xmlns="http://www.w3.org/2000/svg"
   xmlns:sodipodi="http://sodipodi.sourceforge.net/DTD/sodipodi-0.dtd"
   xmlns:inkscape="http://www.inkscape.org/namespaces/inkscape"
   version="1.1"
   x="0px"
   y="0px"
   width="176"
   height="77.32"
   viewBox="0 0 176 77.32"
   enable-background="new 0 0 220 100"
   xml:space="preserve"
   id="svg329"
   inkscape:version="0.91 r13725"
   sodipodi:docname="logo.netzkultur.svg"><metadata
     id="metadata344"><rdf:RDF><cc:Work
         rdf:about=""><dc:format>image/svg+xml</dc:format><dc:type
           rdf:resource="http://purl.org/dc/dcmitype/StillImage" /><dc:title></dc:title></cc:Work></rdf:RDF></metadata><defs
     id="defs342" /><sodipodi:namedview
     pagecolor="#ffffff"
     bordercolor="#666666"
     borderopacity="1"
     objecttolerance="10"
     gridtolerance="10"
     guidetolerance="10"
     inkscape:pageopacity="0"
     inkscape:pageshadow="2"
     inkscape:window-width="640"
     inkscape:window-height="480"
     id="namedview340"
     showgrid="false"
     fit-margin-top="0"
     fit-margin-left="0"
     fit-margin-right="0"
     fit-margin-bottom="0"
     inkscape:zoom="2.36"
     inkscape:cx="88"
     inkscape:cy="38.66"
     inkscape:window-x="0"
     inkscape:window-y="0"
     inkscape:window-maximized="0"
     inkscape:current-layer="svg329" /><g
     id="NetzkulturRheinmain"
     style="fill:#ffffff"
     transform="translate(-22,-11.34)"><path
       d="m 43.25,65.51 c -0.19,-0.26 -0.44,-0.46 -0.75,-0.59 -0.31,-0.13 -0.67,-0.21 -1.07,-0.23 -0.41,-0.02 -0.85,0 -1.32,0.05 -0.51,0.06 -0.99,0.14 -1.42,0.24 l 0.53,4.31 1.06,-0.13 c 0.59,-0.07 1.1,-0.17 1.54,-0.29 0.44,-0.12 0.8,-0.28 1.08,-0.48 0.28,-0.2 0.48,-0.46 0.6,-0.76 0.12,-0.3 0.15,-0.67 0.1,-1.11 -0.05,-0.41 -0.16,-0.75 -0.35,-1.01 z"
       id="path332"
       inkscape:connector-curvature="0"
       style="clip-rule:evenodd;fill-rule:evenodd" /><path
       d="m 177.36,29.69 c 0.59,-0.07 1.11,-0.17 1.55,-0.28 0.44,-0.12 0.8,-0.28 1.08,-0.49 0.28,-0.21 0.48,-0.46 0.6,-0.76 0.12,-0.3 0.15,-0.67 0.1,-1.11 -0.05,-0.41 -0.17,-0.75 -0.36,-1.01 -0.19,-0.26 -0.44,-0.46 -0.74,-0.59 -0.31,-0.13 -0.67,-0.21 -1.08,-0.23 -0.4,-0.02 -0.84,0 -1.32,0.05 -0.51,0.06 -0.99,0.15 -1.42,0.24 l 0.53,4.31 1.06,-0.13 z"
       id="path334"
       inkscape:connector-curvature="0"
       style="clip-rule:evenodd;fill-rule:evenodd" /><path
       d="m 148.99,51.92 c -0.21,0.71 -0.45,1.58 -0.7,2.6 -0.26,1.02 -0.53,2.13 -0.79,3.32 l 4.38,-0.54 c -0.55,-1.09 -1.08,-2.11 -1.58,-3.04 -0.51,-0.94 -0.95,-1.72 -1.31,-2.34 z"
       id="path336"
       inkscape:connector-curvature="0"
       style="clip-rule:evenodd;fill-rule:evenodd" /><path
       d="M 191.03,11.34 22,32.22 28.98,88.66 198,67.78 191.03,11.34 Z M 89.72,34.1 l 0.22,1.79 c -0.36,0.51 -0.8,1.17 -1.31,1.98 -0.51,0.81 -1.03,1.69 -1.57,2.63 -0.54,0.94 -1.06,1.92 -1.56,2.91 -0.51,0.99 -0.95,1.93 -1.32,2.81 l 7.15,-0.88 0.25,2.06 -10.08,1.25 -0.18,-1.52 c 0.2,-0.51 0.43,-1.06 0.7,-1.66 0.27,-0.6 0.56,-1.22 0.87,-1.86 0.31,-0.64 0.64,-1.28 0.98,-1.94 0.34,-0.65 0.69,-1.28 1.03,-1.89 0.34,-0.61 0.67,-1.19 1,-1.75 0.33,-0.55 0.64,-1.05 0.94,-1.49 l -6.41,0.79 -0.25,-2.06 9.54,-1.17 z m -56.44,6.97 1.98,-0.25 c 0.57,0.48 1.21,1.05 1.89,1.71 0.68,0.67 1.37,1.36 2.06,2.08 0.69,0.72 1.37,1.45 2.03,2.18 0.66,0.73 1.24,1.42 1.77,2.06 L 41.92,40 l 2.4,-0.3 1.65,13.33 -2.06,0.26 C 43.39,52.61 42.8,51.89 42.16,51.12 41.52,50.35 40.86,49.57 40.17,48.79 39.49,48.01 38.8,47.25 38.1,46.52 37.41,45.8 36.75,45.14 36.13,44.56 l 1.18,9.54 -2.39,0.29 -1.64,-13.32 z m 12.09,34.57 c -0.3,-0.43 -0.62,-0.87 -0.96,-1.3 -0.34,-0.43 -0.68,-0.85 -1.02,-1.26 -0.34,-0.4 -0.68,-0.78 -1.01,-1.14 -0.33,-0.35 -0.64,-0.67 -0.92,-0.95 -0.18,0.03 -0.33,0.06 -0.46,0.07 -0.13,0.02 -0.25,0.03 -0.37,0.05 l -1.17,0.14 0.62,5.04 -2.42,0.29 -1.62,-13.13 c 0.57,-0.2 1.19,-0.36 1.85,-0.49 0.66,-0.13 1.26,-0.23 1.78,-0.29 1.93,-0.24 3.44,-0.07 4.55,0.51 1.11,0.57 1.75,1.59 1.93,3.04 0.22,1.81 -0.52,3.15 -2.22,4 0.28,0.26 0.6,0.59 0.96,0.97 0.36,0.39 0.73,0.8 1.11,1.26 0.38,0.46 0.75,0.92 1.11,1.4 0.36,0.48 0.69,0.96 0.98,1.43 l -2.72,0.36 z m 5.79,-36.78 8.56,-1.06 0.26,2.06 -6.14,0.76 0.41,3.29 5.46,-0.67 0.25,2.02 -5.46,0.67 0.48,3.9 6.6,-0.81 0.25,2.05 -9.02,1.12 -1.65,-13.33 z m 12.6,34.5 -0.72,-5.9 -5.79,0.71 0.73,5.91 -2.42,0.3 -1.64,-13.33 2.42,-0.3 0.65,5.33 5.79,-0.71 -0.66,-5.33 2.42,-0.3 1.64,13.33 -2.42,0.29 z m 6.73,-23.35 -1.39,-11.23 -4.1,0.5 -0.26,-2.1 10.63,-1.31 0.26,2.1 -4.1,0.5 1.38,11.24 -2.42,0.3 z m 4.47,21.97 -1.65,-13.33 8.56,-1.06 0.25,2.06 -6.14,0.76 0.41,3.29 5.46,-0.68 0.25,2.03 -5.46,0.67 0.48,3.91 6.6,-0.82 0.25,2.06 -9.01,1.11 z M 91.8,69.9 90.16,56.57 l 2.42,-0.3 1.65,13.33 -2.43,0.3 z m 8.11,-23.53 -2.42,0.3 -1.65,-13.33 2.42,-0.3 0.68,5.5 c 0.37,-0.48 0.76,-0.98 1.16,-1.52 0.4,-0.54 0.8,-1.08 1.19,-1.63 0.39,-0.55 0.77,-1.08 1.12,-1.59 0.36,-0.51 0.67,-0.97 0.96,-1.39 l 2.9,-0.36 c -0.36,0.54 -0.75,1.1 -1.16,1.69 -0.41,0.58 -0.83,1.17 -1.26,1.77 -0.43,0.6 -0.88,1.19 -1.32,1.77 -0.44,0.59 -0.88,1.15 -1.3,1.68 0.59,0.34 1.2,0.75 1.82,1.23 0.63,0.48 1.25,0.99 1.86,1.55 0.62,0.56 1.21,1.14 1.79,1.75 0.58,0.61 1.11,1.23 1.6,1.85 l -2.86,0.35 c -0.4,-0.47 -0.85,-0.96 -1.36,-1.47 -0.5,-0.51 -1.03,-1 -1.58,-1.47 -0.54,-0.46 -1.1,-0.91 -1.67,-1.31 -0.57,-0.41 -1.13,-0.76 -1.68,-1.04 l 0.76,5.97 z m 12.07,21.04 c -0.52,-0.68 -1.11,-1.4 -1.75,-2.18 -0.64,-0.77 -1.3,-1.55 -1.99,-2.33 -0.69,-0.78 -1.37,-1.54 -2.06,-2.26 -0.7,-0.72 -1.36,-1.38 -1.97,-1.95 l 1.18,9.54 -2.39,0.29 -1.64,-13.33 1.98,-0.25 c 0.58,0.47 1.21,1.05 1.89,1.71 0.68,0.66 1.37,1.35 2.07,2.08 0.69,0.72 1.37,1.45 2.02,2.18 0.66,0.73 1.25,1.42 1.77,2.06 l -1.09,-8.85 2.4,-0.29 1.65,13.33 -2.07,0.25 z m 6.85,-23.08 c -0.91,0.12 -1.71,0.08 -2.39,-0.1 -0.69,-0.18 -1.28,-0.48 -1.76,-0.91 -0.49,-0.42 -0.87,-0.94 -1.15,-1.55 -0.29,-0.62 -0.48,-1.31 -0.57,-2.08 l -1.03,-8.33 2.45,-0.3 1,8.09 c 0.08,0.6 0.21,1.11 0.39,1.53 0.19,0.41 0.43,0.74 0.71,0.98 0.29,0.24 0.61,0.4 0.96,0.49 0.36,0.08 0.74,0.1 1.16,0.05 0.43,-0.05 0.8,-0.16 1.13,-0.34 0.33,-0.17 0.6,-0.4 0.82,-0.7 0.22,-0.3 0.37,-0.68 0.45,-1.12 0.08,-0.44 0.09,-0.97 0.01,-1.58 l -1,-8.1 2.44,-0.3 1.03,8.33 c 0.09,0.77 0.07,1.49 -0.06,2.16 -0.13,0.67 -0.38,1.26 -0.75,1.79 -0.37,0.53 -0.88,0.96 -1.51,1.31 -0.64,0.34 -1.42,0.57 -2.33,0.68 z m 15.79,20.28 c -0.25,-1.55 -0.5,-3.13 -0.78,-4.77 -0.28,-1.63 -0.58,-3.21 -0.91,-4.73 -0.11,0.31 -0.23,0.69 -0.37,1.12 -0.14,0.43 -0.29,0.9 -0.45,1.41 -0.16,0.51 -0.32,1.03 -0.48,1.57 -0.16,0.54 -0.31,1.06 -0.47,1.57 -0.15,0.51 -0.29,0.98 -0.42,1.42 -0.13,0.44 -0.24,0.81 -0.33,1.12 l -1.81,0.22 c -0.17,-0.28 -0.36,-0.62 -0.59,-1.02 -0.23,-0.4 -0.48,-0.83 -0.75,-1.28 -0.27,-0.45 -0.55,-0.92 -0.84,-1.41 -0.29,-0.48 -0.57,-0.95 -0.85,-1.4 -0.28,-0.44 -0.54,-0.87 -0.78,-1.26 -0.24,-0.39 -0.45,-0.72 -0.63,-0.99 0.05,1.56 0.13,3.16 0.27,4.81 0.13,1.65 0.27,3.25 0.4,4.81 l -2.39,0.29 c -0.08,-1.11 -0.16,-2.26 -0.23,-3.44 -0.08,-1.19 -0.14,-2.37 -0.2,-3.54 -0.06,-1.17 -0.1,-2.31 -0.13,-3.41 -0.04,-1.1 -0.04,-2.13 -0.04,-3.06 l 2.24,-0.28 c 0.34,0.46 0.73,1.01 1.16,1.68 0.43,0.66 0.88,1.36 1.33,2.09 0.46,0.73 0.91,1.47 1.36,2.23 0.45,0.76 0.87,1.46 1.25,2.1 0.21,-0.71 0.44,-1.5 0.69,-2.34 0.25,-0.84 0.5,-1.68 0.76,-2.5 0.27,-0.82 0.53,-1.6 0.78,-2.35 0.26,-0.75 0.5,-1.38 0.72,-1.91 l 2.18,-0.27 c 0.24,0.96 0.47,1.98 0.72,3.06 0.24,1.08 0.47,2.19 0.7,3.33 0.23,1.13 0.45,2.28 0.67,3.43 0.21,1.15 0.41,2.27 0.6,3.37 l -2.38,0.33 z m -3.78,-22.06 -1.65,-13.33 2.43,-0.3 1.38,11.24 6,-0.74 0.26,2.09 -8.42,1.04 z m 8.95,-14.63 10.64,-1.31 0.26,2.1 -4.1,0.51 1.39,11.23 -2.44,0.3 -1.38,-11.23 -4.1,0.51 -0.27,-2.11 z m 14.46,34.27 c -0.24,-0.51 -0.49,-1 -0.75,-1.49 -0.26,-0.49 -0.51,-0.99 -0.76,-1.51 l -5.63,0.69 c -0.12,0.56 -0.23,1.11 -0.35,1.65 -0.12,0.54 -0.24,1.08 -0.36,1.62 l -2.52,0.31 c 0.33,-1.48 0.64,-2.86 0.94,-4.12 0.29,-1.26 0.59,-2.45 0.89,-3.58 0.29,-1.13 0.6,-2.21 0.9,-3.24 0.3,-1.03 0.62,-2.05 0.95,-3.05 l 2.31,-0.29 c 0.57,0.9 1.13,1.8 1.66,2.73 0.55,0.92 1.1,1.89 1.66,2.92 0.56,1.02 1.15,2.11 1.75,3.26 0.6,1.15 1.24,2.4 1.92,3.77 l -2.61,0.33 z m 9.87,-1.22 -1.64,-13.33 2.42,-0.3 1.65,13.33 -2.43,0.3 z m 3.2,-25.85 c -0.13,0.67 -0.38,1.26 -0.75,1.79 -0.37,0.53 -0.88,0.96 -1.51,1.31 -0.63,0.35 -1.4,0.57 -2.31,0.69 -0.91,0.11 -1.71,0.08 -2.39,-0.1 -0.69,-0.18 -1.28,-0.49 -1.76,-0.9 -0.48,-0.42 -0.87,-0.94 -1.16,-1.56 -0.28,-0.62 -0.47,-1.31 -0.57,-2.08 l -1.03,-8.33 2.45,-0.3 1,8.1 c 0.07,0.6 0.2,1.11 0.39,1.53 0.19,0.41 0.42,0.74 0.71,0.98 0.29,0.24 0.61,0.4 0.96,0.48 0.36,0.09 0.75,0.11 1.17,0.06 0.42,-0.06 0.8,-0.17 1.13,-0.34 0.33,-0.17 0.61,-0.41 0.82,-0.7 0.21,-0.3 0.37,-0.68 0.45,-1.12 0.08,-0.45 0.09,-0.97 0.01,-1.57 l -1.01,-8.1 2.45,-0.3 1.03,8.33 c 0.07,0.74 0.05,1.46 -0.08,2.13 z m 7.65,-11.62 c 0.66,-0.13 1.26,-0.22 1.78,-0.29 1.92,-0.24 3.44,-0.07 4.54,0.51 1.11,0.58 1.75,1.59 1.93,3.04 0.21,1.81 -0.52,3.14 -2.23,4 0.28,0.27 0.6,0.59 0.96,0.98 0.36,0.38 0.73,0.8 1.11,1.25 0.38,0.46 0.75,0.92 1.11,1.41 0.36,0.48 0.69,0.96 0.98,1.43 l -2.71,0.33 c -0.3,-0.44 -0.62,-0.87 -0.96,-1.3 -0.34,-0.43 -0.68,-0.85 -1.02,-1.26 -0.34,-0.41 -0.68,-0.79 -1.01,-1.14 -0.33,-0.36 -0.64,-0.68 -0.92,-0.95 -0.18,0.04 -0.33,0.06 -0.46,0.08 -0.13,0.02 -0.25,0.04 -0.37,0.05 l -1.17,0.14 0.63,5.04 -2.42,0.3 -1.62,-13.14 c 0.58,-0.19 1.19,-0.35 1.85,-0.48 z m 9.32,34.97 c -0.53,-0.67 -1.11,-1.4 -1.75,-2.17 -0.64,-0.77 -1.3,-1.55 -1.99,-2.33 -0.68,-0.78 -1.37,-1.54 -2.07,-2.27 -0.7,-0.73 -1.35,-1.38 -1.97,-1.96 l 1.18,9.54 -2.39,0.29 -1.64,-13.33 1.98,-0.24 c 0.58,0.48 1.21,1.04 1.89,1.71 0.68,0.66 1.37,1.36 2.06,2.08 0.69,0.72 1.37,1.45 2.03,2.18 0.66,0.73 1.25,1.42 1.77,2.05 l -1.09,-8.85 2.41,-0.3 1.64,13.33 -2.06,0.27 z"
       id="path338"
       inkscape:connector-curvature="0"
       style="clip-rule:evenodd;fill-rule:evenodd" /></g></svg>