<?xml version="1.0" encoding="UTF-8" standalone="no"?>
<svg
   xmlns:dc="http://purl.org/dc/elements/1.1/"
   xmlns:cc="http://creativecommons.org/ns#"
   xmlns:rdf="http://www.w3.org/1999/02/22-rdf-syntax-ns#"
   xmlns:svg="http://www.w3.org/2000/svg"
   xmlns="http://www.w3.org/2000/svg"
   xmlns:sodipodi="http://sodipodi.sourceforge.net/DTD/sodipodi-0.dtd"
   xmlns:inkscape="http://www.inkscape.org/namespaces/inkscape"
   version="1.1"
   x="0px"
   y="0px"
   width="127.02"
   height="94.76255"
   viewBox="0 0 127.02 94.76255"
   enable-background="new 0 0 220 100"
   xml:space="preserve"
   id="svg346"
   inkscape:version="0.91 r13725"
   sodipodi:docname="logo.refugees-welcome.svg"><metadata
     id="metadata385"><rdf:RDF><cc:Work
         rdf:about=""><dc:format>image/svg+xml</dc:format><dc:type
           rdf:resource="http://purl.org/dc/dcmitype/StillImage" /><dc:title></dc:title></cc:Work></rdf:RDF></metadata><defs
     id="defs383" /><sodipodi:namedview
     pagecolor="#ffffff"
     bordercolor="#666666"
     borderopacity="1"
     objecttolerance="10"
     gridtolerance="10"
     guidetolerance="10"
     inkscape:pageopacity="0"
     inkscape:pageshadow="2"
     inkscape:window-width="640"
     inkscape:window-height="480"
     id="namedview381"
     showgrid="false"
     fit-margin-top="0"
     fit-margin-left="0"
     fit-margin-right="0"
     fit-margin-bottom="0"
     inkscape:zoom="2.36"
     inkscape:cx="63.51"
     inkscape:cy="47.372548"
     inkscape:window-x="0"
     inkscape:window-y="0"
     inkscape:window-maximized="0"
     inkscape:current-layer="svg346" /><g
     id="Refugees"
     style="fill:#ffffff"
     transform="translate(-46.49,-2.61)"><path
       d="M 85.56,36.19 C 85.27,36.03 84.98,35.76 84.69,35.75 83.8,35.71 82.9,35.8 82,35.76 81.72,35.75 81.35,35.6 81.19,35.38 80.71,34.74 80.22,34.08 79.87,33.37 79.77,33.19 79.73,33.09 79.65,32.92 79.17,31.94 78.41,31.39 77.36,31.19 76.9,31.1 76.4,31.1 75.93,31.12 c -1.21,0.05 -2.23,0.59 -2.8,1.64 -0.16,0.28 -0.28,0.58 -0.41,0.88 -0.3,0.79 -0.47,1.64 -0.47,2.51 0,0.52 0.21,0.82 0.77,0.85 0.58,0.04 0.86,0.36 0.87,0.93 0.01,0.42 -0.03,0.84 -0.02,1.26 0,0.52 0.14,0.6 0.61,0.44 0.17,-0.05 0.34,-0.03 0.45,-0.03 0.08,0.01 0.85,0.48 0.92,0.52 -0.06,0.37 0.36,-0.16 0.5,0.17 0.08,0.19 0.04,0.17 0.13,0.22 0.27,0.13 0.2,-0.17 0.33,0.14 0.29,0.17 0.68,0.48 1,0.34 0.1,-0.05 0.1,-0.21 0.13,-0.31 0.84,-1.27 1.5,0.38 1.56,0.73 0.05,0.12 0.08,0.26 0.07,0.41 -0.04,0.84 -0.04,1.69 -0.22,2.51 -0.21,0.93 -0.06,1.83 0.04,2.73 0.07,0.64 0.24,1.27 0.35,1.92 0.08,0.48 0.05,0.98 0.18,1.44 0.22,0.76 -0.38,1.77 -1.13,1.67 -0.88,-0.13 -1.03,0.09 -1.4,1.02 -0.28,0.72 -0.05,1.25 0.44,1.79 0.53,0.58 1.26,0.63 1.88,0.13 0.8,-0.65 1.65,-1.24 2.5,-1.81 0.32,-0.22 0.42,-0.45 0.4,-0.84 -0.05,-0.81 -0.05,-1.64 0.02,-2.45 0.03,-0.25 0.33,-0.59 0.58,-0.67 0.19,-0.07 0.53,0.18 0.74,0.36 0.19,0.16 0.29,0.42 0.44,0.64 0.39,0.59 0.52,1.36 1.37,1.63 0.41,0.13 0.39,0.6 0.1,0.96 -0.38,0.49 -0.78,0.96 -1.14,1.47 -0.62,0.88 -1.19,1.79 -1.82,2.66 -0.39,0.53 -0.86,1 -1.29,1.49 -0.39,0.43 -0.58,0.91 -0.58,1.52 0.01,1.06 -0.03,2.13 -0.14,3.18 -0.11,1.13 -0.35,2.24 -0.5,3.37 -0.02,0.16 0.16,0.35 0.26,0.52 0.1,0.19 0.34,0.42 0.29,0.55 -0.14,0.37 -0.32,0.87 -0.62,1 -0.89,0.36 -1.85,0.56 -2.79,0.83 -0.4,0.12 -0.81,0.24 -1.2,0.39 -0.38,0.15 -0.51,0.47 -0.19,0.75 0.36,0.3 0.79,0.64 1.22,0.68 1.87,0.2 3.75,0.31 5.63,0.42 0.19,0.01 0.44,-0.09 0.57,-0.23 0.26,-0.27 0.16,-1.18 -0.01,-1.54 -0.21,-0.46 -0.39,-0.95 -0.46,-1.44 -0.07,-0.48 0.25,-0.64 0.69,-0.42 0.71,0.34 0.86,0.29 0.94,-0.49 0.17,-1.69 0.31,-3.38 0.43,-5.08 0.05,-0.64 0.14,-1.27 0.67,-1.67 1.23,-0.92 2.49,-1.81 3.76,-2.68 0.19,-0.13 0.6,-0.18 0.77,-0.07 1.13,0.82 2.25,1.65 3.32,2.54 0.95,0.79 1.85,1.66 2.75,2.51 0.6,0.56 1.22,0.73 2.07,0.51 1.35,-0.34 2.75,-0.5 4.13,-0.71 0.61,-0.1 1.07,0.13 1.35,0.75 0.17,0.4 0.47,0.74 0.7,1.12 0.68,1.11 1.83,1.82 2.37,3.07 0.59,1.37 0.32,2.17 -1.09,2.73 -0.49,0.19 -0.98,0.48 -1.34,0.85 -0.52,0.52 -0.22,1.27 0.52,1.37 0.35,0.05 0.75,0.08 1.07,-0.03 1.67,-0.61 3.33,-1.22 4.97,-1.92 0.79,-0.33 0.88,-0.98 0.35,-1.67 -0.5,-0.67 -1,-1.35 -1.58,-1.96 -0.85,-0.9 -1.42,-1.92 -1.72,-3.11 -0.24,-0.97 -0.21,-2.04 -1.21,-2.7 -0.25,-0.16 -0.12,-0.53 0.24,-0.52 0.68,0.02 1.37,0.01 2.02,0.17 0.96,0.25 1.88,0.7 2.85,0.93 1.18,0.29 1.96,1.03 2.62,1.97 0.17,0.25 0.33,0.5 0.52,0.74 0.96,1.23 2.25,1.85 3.79,1.84 1.66,-0.01 3.32,-0.14 4.98,-0.22 1.1,-0.05 1.66,0.4 2.06,1.42 0.38,0.98 0.89,1.92 1.38,2.85 0.09,0.17 0.43,0.36 0.56,0.31 0.19,-0.08 0.36,-0.35 0.41,-0.57 0.07,-0.35 0.04,-0.72 0.02,-1.08 -0.08,-1.59 -0.14,-3.19 -0.27,-4.78 -0.05,-0.62 -0.62,-0.93 -1.24,-0.76 -0.25,0.07 -0.5,0.15 -0.73,0.28 -0.63,0.35 -1.28,0.35 -1.91,0.08 -0.55,-0.23 -1.1,-0.5 -1.56,-0.87 -0.67,-0.54 -1.39,-0.72 -2.23,-0.7 -0.5,0.02 -1.02,-0.11 -1.52,-0.22 -0.54,-0.12 -0.74,-0.5 -0.69,-1.03 0.05,-0.52 0.11,-1.04 0.11,-1.56 0,-0.09 -0.04,-0.18 -0.09,-0.27 0.15,-0.61 0.25,-1.22 0.19,-1.83 0.02,-0.42 0.05,-0.85 0.11,-1.27 0.12,-0.81 0.17,-1.58 -0.48,-2.24 -0.13,-0.13 -0.12,-0.41 -0.18,-0.62 -0.08,-0.33 -0.1,-0.7 -0.26,-0.98 -0.57,-1.02 -1.21,-2.02 -1.78,-3.04 -0.52,-0.93 -1.61,-1.65 -1.2,-2.95 0.08,-0.25 0.19,-0.66 0.33,-0.68 0.26,-0.04 0.62,0.08 0.83,0.27 0.95,0.83 1.85,1.71 2.78,2.56 0.47,0.43 0.55,0.7 0.14,1.17 -0.48,0.55 -0.49,1.17 -0.39,1.81 0.11,0.72 0.78,1 1.39,0.62 0.13,-0.08 0.28,-0.16 0.4,-0.27 0.39,-0.36 0.83,-0.39 1.34,-0.33 0.44,0.04 0.96,0.04 1.32,-0.17 1.16,-0.69 2.67,-0.65 3.54,0.39 0.67,0.8 1.5,1.22 2.42,1.57 0.42,0.15 0.58,0.43 0.71,0.87 0.22,0.82 0.57,1.61 0.87,2.4 0.09,0.23 0.26,0.44 0.28,0.68 0.07,0.54 0.35,0.67 0.83,0.6 0.87,-0.12 0.98,-0.06 1.28,0.76 0.05,0.14 0.44,1.36 0.48,1.54 0.1,0.38 0.16,0.78 0.29,1.15 0.18,0.51 0.31,1.06 0.63,1.47 0.63,0.84 1.35,1.63 2.08,2.4 0.18,0.18 0.56,0.31 0.81,0.26 0.58,-0.12 0.94,0.14 1.34,0.48 1.06,0.88 2.13,1.75 3.23,2.58 0.58,0.43 0.8,0.74 0.56,1.38 -0.2,0.51 -0.55,0.96 -0.81,1.45 -0.12,0.23 -0.19,0.5 -0.28,0.75 0.29,-0.04 0.59,-0.03 0.86,-0.12 0.15,-0.05 0.25,-0.25 0.38,-0.37 0.41,-0.37 0.79,-0.81 1.25,-1.1 1.06,-0.69 1.16,-1.3 0.28,-2.21 -0.79,-0.83 -1.6,-1.65 -2.37,-2.5 -0.17,-0.18 -0.3,-0.44 -0.36,-0.68 -0.06,-0.22 -0.08,-0.54 0.04,-0.67 0.1,-0.12 0.42,-0.07 0.65,-0.05 1.01,0.1 2.02,0.22 3.03,0.3 0.38,0.03 0.58,-0.18 0.61,-0.58 0.03,-0.73 0.46,-1.4 0.93,-1.53 0.57,-0.15 1.36,0.26 1.75,0.9 0.16,0.26 0.33,0.53 0.56,0.7 0.2,0.15 0.55,0.29 0.73,0.2 0.14,-0.06 0.3,-0.21 0.41,-0.36 0.02,-0.03 0.04,-0.1 0.06,-0.16 0.02,-0.07 0.04,-0.11 0.04,-0.22 -0.01,-0.15 -0.04,-0.31 -0.07,-0.46 0,-0.01 0,-0.02 -0.01,-0.05 -0.06,-0.31 -0.16,-0.61 -0.31,-0.88 -0.34,-0.58 -0.82,-1.09 -1.25,-1.61 -0.61,-0.73 -1.31,-0.78 -1.98,-0.15 -0.56,0.53 -1.19,0.89 -1.97,0.88 -0.73,0 -0.93,-0.67 -1.3,-1.12 -0.29,-0.34 -0.63,-0.52 -1.04,-0.49 -0.13,-0.12 -0.28,-0.24 -0.44,-0.36 -1.08,-1.13 -2.2,-2.15 -3.29,-3.18 -0.27,-0.26 -0.49,-0.58 -0.68,-0.91 -0.22,-0.39 -0.29,-0.92 0.1,-1.14 0.32,-0.18 0.92,-0.18 1.21,0.01 1.18,0.78 2.29,1.68 3.44,2.5 0.21,0.14 0.55,0.21 0.79,0.16 0.61,-0.13 1.11,0.02 1.58,0.34 -0.01,0.08 -0.01,0.15 -0.01,0.23 -0.43,0 -0.87,-0.01 -1.29,0 -0.13,0.01 -0.28,0.02 -0.37,0.1 -0.05,0.04 -0.01,0.22 0.04,0.32 0.22,0.39 1.1,0.62 1.65,0.41 0.54,-0.2 0.48,-0.61 0.44,-1.09 -0.01,-0.03 -0.01,-0.04 -0.01,-0.06 -0.01,-0.05 -0.01,-0.06 -0.01,-0.11 -0.12,-0.55 -0.52,-0.73 -1.01,-0.9 -0.21,-0.07 -0.43,-0.14 -0.64,-0.23 -0.16,0.02 -0.37,-0.12 -0.49,-0.31 -0.01,-0.01 -0.02,-0.01 -0.02,-0.02 -0.04,-0.04 -0.07,-0.08 -0.11,-0.12 -0.29,-0.29 -0.3,-0.36 -0.75,-0.88 -0.38,-0.47 -0.74,-0.94 -1.1,-1.42 -0.17,-0.22 -0.34,-0.44 -0.52,-0.64 -0.7,-0.5 -1.18,-1.12 -1.9,-1.42 -0.01,0.01 -0.01,0.02 -0.02,0.03 0,-0.01 0,-0.02 0,-0.04 -0.16,-0.06 -0.33,-0.11 -0.51,-0.15 -1.36,-0.3 -2.72,-0.6 -4.07,-0.95 -0.26,-0.07 -0.54,-0.31 -0.65,-0.55 -0.08,-0.16 0.07,-0.6 0.22,-0.66 0.31,-0.12 0.72,-0.16 1.01,-0.05 0.49,0.19 0.94,0.52 1.39,0.81 0.41,0.33 1.47,0.5 1.52,0.5 0.21,-0.03 0.22,0.03 0.27,0 0.12,-0.01 0.25,-0.02 0.37,-0.05 0.13,-0.03 0.29,-0.14 0.34,-0.25 0.03,-0.08 -0.06,-0.26 -0.14,-0.32 -0.13,-0.07 -0.18,-0.07 -0.28,-0.12 -0.45,-0.18 -0.9,-0.34 -1.35,-0.52 -0.58,-0.23 -1.17,-0.46 -1.74,-0.72 -0.11,-0.05 -0.22,-0.3 -0.18,-0.38 0.26,-0.22 -0.04,-0.09 0.39,-0.27 0.58,0.11 1.15,0.28 1.73,0.43 0.71,0.19 1.42,0.38 2.13,0.54 0.05,0.01 0.12,-0.01 0.18,-0.06 -0.16,-0.19 -0.31,-0.35 -0.48,-0.43 -0.12,-0.26 -0.29,-0.53 -0.49,-0.79 -0.47,-0.22 -0.97,-0.44 -1.46,-0.48 -0.67,-0.06 -1.36,0.1 -2.05,0.13 -0.25,0.01 -0.53,-0.02 -0.76,-0.12 -0.14,-0.06 -0.32,-0.39 -0.3,-0.42 0.46,-0.47 0.06,-0.78 -0.14,-1.18 -0.87,-1.69 -2.44,-2.39 -4.31,-1.88 -1.15,0.32 -1.52,1.07 -1.11,2.2 0.11,0.31 0.12,0.66 0.16,0.99 0.05,0.46 0,0.96 0.15,1.38 0.33,0.95 -0.12,1.65 -1.14,1.63 -1.06,-0.01 -2.13,0.05 -3.18,-0.06 -1.03,-0.11 -2.28,0.14 -2.79,-1.22 -0.01,-0.03 -0.06,-0.05 -0.09,-0.08 -1.64,-1.69 -3.3,-3.38 -4.93,-5.09 -0.69,-0.72 -1.37,-1.46 -1.6,-2.5 -0.05,-0.21 -0.24,-0.43 -0.42,-0.55 -0.87,-0.57 -1.73,-1.15 -2.65,-1.63 -0.87,-0.46 -1.79,-0.82 -2.69,-1.2 -0.63,-0.27 -0.76,-0.79 -0.29,-1.2 0.13,-0.11 0.23,-0.22 0.31,-0.33 0.04,-0.08 0.09,-0.14 0.12,-0.18 0.3,-0.54 0.05,-1.04 -0.73,-1.38 -0.61,-0.27 -1.25,-0.48 -1.89,-0.71 -0.44,-0.16 -0.77,-0.39 -0.8,-0.92 -0.06,-0.82 -0.3,-0.97 -1.1,-1.16 -0.42,-0.1 -0.81,-0.38 -1.16,-0.65 -0.29,-0.23 -0.51,-0.56 -0.76,-0.84 -0.18,-0.21 -0.36,-0.37 -0.57,-0.4 -0.15,-0.03 -0.89,-0.43 -1.59,-0.6 -1.14,-0.27 -2.25,0.19 -3.23,0.72 -0.76,0.41 -1.19,1.13 -1.14,2.09 0.07,1.38 0.74,2.71 0.34,4.14 -0.09,0.33 0.13,0.54 0.5,0.41 0.45,-0.15 0.61,0.08 0.8,0.46 0.28,0.54 0.63,1.05 1.01,1.52 0.28,0.35 0.62,0.3 0.99,-0.01 0.24,-0.2 0.63,-0.37 0.92,-0.33 0.46,0.05 0.72,0.4 0.8,0.91 0.12,0.73 0.22,1.49 0.53,2.15 0.34,0.73 0.42,1.42 0.33,2.2 -0.06,0.52 0.07,1.05 0.07,1.58 0,0.19 -0.08,0.41 -0.19,0.57 -0.42,0.6 -0.27,1.63 0.23,2.15 0.17,0.18 0.28,0.65 0.17,0.82 -0.92,1.45 -1.77,2.95 -3.51,3.65 -0.34,0.14 -0.52,0.79 -0.66,1.24 -0.05,0.15 0.22,0.52 0.43,0.62 1,0.48 1.59,0.27 2.09,-0.75 0.39,-0.79 0.89,-1.35 1.85,-1.53 0.81,-0.15 1.74,-0.12 2.28,-0.99 0.28,-0.43 0.72,-0.57 1.21,-0.28 0.6,0.35 0.8,0.83 0.53,1.41 -0.18,0.39 -0.44,0.77 -0.74,1.07 -0.92,0.94 -1.92,1.81 -2.81,2.78 -0.11,0.12 -0.25,0.28 -0.4,0.47 -0.1,0.11 -0.19,0.23 -0.28,0.34 -0.83,1.05 -1.92,2.53 -2.02,2.82 -0.02,0.05 -0.04,0.11 -0.06,0.17 -0.52,0 -1.04,0.02 -1.57,0.04 -0.41,0.02 -0.81,0.04 -1.22,0.04 -0.23,0 -0.55,-0.02 -0.66,-0.17 -0.29,-0.37 -0.5,-0.82 -0.79,-1.34 0.44,0.05 0.79,0.08 1.15,0.12 0.03,-0.09 0.07,-0.14 0.07,-0.2 -0.51,-1.3 -0.64,-3.41 -1.49,-4.27 -0.05,-0.05 -0.07,-0.15 -0.09,-0.22 -0.24,-0.91 -0.46,-1.82 -0.7,-2.73 -0.23,-0.88 -0.59,-1.63 -1.54,-1.99 -0.29,-0.11 -0.58,-0.44 -0.7,-0.74 C 92.86,47.2 92.82,46.7 92.8,46.23 92.77,45.65 92.53,45.19 92.01,44.98 90.66,44.45 90.17,43.2 89.5,42.11 c -0.18,-0.3 -0.1,-0.63 0.3,-0.67 0.5,-0.05 1.01,-0.11 1.49,-0.02 0.35,0.07 0.7,0.34 0.97,0.6 0.49,0.49 0.89,1.08 1.4,1.55 0.77,0.72 1.62,1.37 2.4,2.08 0.2,0.19 0.38,0.5 0.4,0.76 0.03,0.61 0.35,1 0.75,1.38 0.77,0.71 1.7,0.38 2.58,0.42 0.12,0 0.34,-0.28 0.38,-0.46 0.17,-0.78 -0.29,-1.62 -1.03,-1.96 -0.29,-0.13 -0.58,-0.28 -0.89,-0.35 -0.46,-0.11 -0.71,-0.4 -0.88,-0.81 -0.99,-2.35 -2.38,-4.44 -4.22,-6.21 -0.28,-0.27 -0.7,-0.47 -1.09,-0.56 -1.83,-0.29 -3.88,-0.86 -5.69,-1.27 -0.33,-0.03 -0.56,-0.26 -0.81,-0.4"
       id="path349"
       inkscape:connector-curvature="0" /><path
       d="m 55.29,36.23 -1.42,-2.24 0.35,-0.22 c 0.36,-0.23 0.57,-0.44 0.63,-0.63 0.07,-0.21 0.01,-0.5 -0.18,-0.89 L 54.28,31.55 51.36,26.86 50.99,26.28 50.71,25.83 50.49,25.48 50.32,25.21 50.19,25 c -0.32,-0.5 -0.54,-0.8 -0.67,-0.88 -0.24,-0.24 -0.66,-0.18 -1.25,0.2 l -0.35,0.22 -1.43,-2.26 8.2,-5.16 c 0.85,-0.54 1.56,-0.86 2.11,-0.98 0.56,-0.14 1.17,-0.11 1.81,0.08 0.4,0.15 0.79,0.38 1.18,0.72 0.38,0.32 0.73,0.73 1.05,1.23 0.71,1.12 0.92,2.14 0.64,3.04 -0.18,0.58 -0.77,1.33 -1.79,2.23 0.46,-0.29 0.87,-0.5 1.2,-0.62 0.33,-0.13 0.63,-0.22 0.9,-0.24 0.63,-0.11 1.22,0.14 1.77,0.75 l 1.73,1.89 c 0.34,0.37 0.65,0.59 0.93,0.66 0.3,0.04 0.63,-0.05 0.99,-0.27 l 0.25,-0.16 1.42,2.25 -4.65,2.93 -3.86,-4.2 c -0.33,-0.35 -0.64,-0.55 -0.94,-0.6 -0.29,-0.05 -0.62,0.04 -1.01,0.29 l -1.49,0.94 1.6,2.54 c 0.24,0.38 0.47,0.61 0.69,0.7 0.22,0.1 0.52,0.03 0.9,-0.21 l 0.27,-0.17 1.42,2.25 -6.52,4.06 m -2.01,-14.96 2.15,3.41 1.38,-0.87 C 57.3,23.5 57.57,23.14 57.62,22.73 57.67,22.3 57.5,21.77 57.1,21.13 56.74,20.56 56.37,20.22 55.97,20.11 55.58,19.99 55.13,20.1 54.6,20.43 l -1.32,0.84"
       id="path351"
       inkscape:connector-curvature="0" /><path
       d="m 69.34,27.67 -0.94,-2.51 0.38,-0.15 c 0.51,-0.19 0.8,-0.46 0.85,-0.81 0.03,-0.24 -0.07,-0.64 -0.28,-1.22 l -0.12,-0.32 -1.2,-3.29 -0.42,-1.19 C 66.84,16.12 66.33,14.94 66.09,14.64 65.88,14.35 65.48,14.31 64.9,14.52 l -0.41,0.15 -0.93,-2.49 11.52,-4.28 1.5,4.01 -2.55,0.95 c -0.19,-0.52 -0.45,-0.78 -0.77,-0.81 -0.17,-0.02 -0.54,0.08 -1.11,0.29 l -1.65,0.62 1.23,3.28 1.35,-0.51 c 0.51,-0.19 0.83,-0.37 0.95,-0.52 0.16,-0.22 0.15,-0.59 -0.04,-1.11 l 2.53,-0.95 1.91,5.11 -2.53,0.95 -0.13,-0.34 c -0.12,-0.32 -0.26,-0.52 -0.42,-0.6 -0.22,-0.08 -0.59,-0.02 -1.08,0.16 l -1.5,0.56 1.36,3.65 1.88,-0.71 c 0.6,-0.22 0.98,-0.44 1.12,-0.66 0.14,-0.23 0.13,-0.57 -0.04,-1.03 L 76.98,20 l 2.51,-0.94 1.58,4.23 -11.73,4.38"
       id="path353"
       inkscape:connector-curvature="0" /><path
       d="m 82.21,22.98 -0.57,-2.62 0.45,-0.07 c 0.53,-0.12 0.84,-0.33 0.94,-0.65 0.05,-0.26 0.02,-0.67 -0.1,-1.24 L 82.82,18.02 81.84,13.36 81.67,12.58 81.53,11.95 81.42,11.46 81.34,11.08 81.28,10.79 C 81.14,10.12 81.01,9.73 80.91,9.6 80.75,9.29 80.35,9.21 79.71,9.35 L 79.29,9.44 78.73,6.85 90.7,4.26 91.68,8.83 89.06,9.39 C 88.93,8.8 88.77,8.42 88.56,8.26 88.36,8.1 87.96,8.08 87.38,8.21 l -1.86,0.4 0.86,3.98 1.34,-0.29 c 0.63,-0.13 1,-0.37 1.13,-0.71 0.03,-0.07 0.04,-0.21 0.03,-0.4 0,-0.22 -0.02,-0.45 -0.08,-0.69 l 2.57,-0.55 1.26,5.84 -2.58,0.56 -0.04,-0.18 C 89.91,15.68 89.73,15.35 89.5,15.2 89.26,15.05 88.88,15.03 88.36,15.14 l -1.41,0.3 0.52,2.39 c 0.1,0.46 0.25,0.76 0.46,0.91 0.2,0.14 0.52,0.17 0.95,0.08 l 0.49,-0.11 0.56,2.59 -7.72,1.68"
       id="path355"
       inkscape:connector-curvature="0" /><path
       d="m 93.59,6.37 -0.18,-2.65 7.38,-0.49 0.18,2.65 -0.21,0.02 c -0.32,0.02 -0.57,0.11 -0.74,0.27 -0.17,0.15 -0.23,0.63 -0.18,1.44 l 0.46,6.9 c 0.04,0.69 0.18,1.22 0.4,1.6 0.31,0.53 0.99,0.76 2.04,0.69 0.49,-0.03 0.95,-0.16 1.37,-0.37 0.58,-0.3 0.83,-1.04 0.75,-2.23 l -0.45,-6.9 c -0.05,-0.79 -0.17,-1.26 -0.34,-1.4 -0.16,-0.14 -0.43,-0.2 -0.82,-0.18 l -0.18,0.01 -0.17,-2.63 7.4,-0.49 0.18,2.65 -0.41,0.02 c -0.41,0.03 -0.7,0.11 -0.88,0.26 -0.16,0.14 -0.21,0.64 -0.16,1.48 l 0.44,6.63 0.03,0.41 0.02,0.34 0.02,0.27 c 0.01,0.24 0.02,0.47 0.02,0.67 0.01,0.18 0,0.36 -0.03,0.55 -0.09,0.74 -0.4,1.41 -0.92,2.01 -0.63,0.68 -1.5,1.21 -2.63,1.59 -0.33,0.1 -0.75,0.19 -1.27,0.27 -0.5,0.08 -1.08,0.14 -1.75,0.19 -1.58,0.1 -2.82,0.04 -3.71,-0.19 -0.89,-0.25 -1.62,-0.61 -2.18,-1.1 -0.5,-0.42 -0.84,-0.88 -1.01,-1.36 -0.08,-0.24 -0.14,-0.57 -0.2,-0.99 C 95.8,15.88 95.75,15.3 95.7,14.55 L 95.26,7.92 C 95.21,7.16 95.09,6.67 94.89,6.48 94.7,6.36 94.39,6.31 93.98,6.33 l -0.39,0.04"
       id="path357"
       inkscape:connector-curvature="0" /><path
       d="m 127.35,4.83 -0.39,4.08 -4.33,-0.42 0.02,-0.2 c 0.13,-1.32 -0.4,-2.04 -1.59,-2.15 -1.17,-0.11 -1.91,0.38 -2.21,1.49 -0.29,1.11 -0.51,2.49 -0.67,4.15 -0.1,1.05 -0.14,2.07 -0.13,3.05 0.01,1.66 0.67,2.55 1.97,2.68 1.37,0.13 2.1,-0.35 2.21,-1.43 l 0.08,-0.91 c 0.05,-0.5 0.01,-0.85 -0.13,-1.05 -0.12,-0.21 -0.43,-0.34 -0.95,-0.39 l -0.32,-0.03 0.25,-2.62 7.2,0.69 -0.26,2.69 -0.32,-0.03 c -0.49,-0.04 -0.81,0.05 -0.97,0.28 -0.09,0.15 -0.16,0.48 -0.21,1.02 l -0.38,3.92 -1.34,0.33 c -1.67,0.33 -3.42,0.41 -5.25,0.23 -1.91,-0.18 -3.4,-0.64 -4.45,-1.37 -0.85,-0.57 -1.41,-1.34 -1.69,-2.3 -0.17,-0.65 -0.27,-1.42 -0.31,-2.33 -0.04,-0.92 0.01,-2 0.13,-3.23 0.27,-2.9 0.94,-5.01 2.01,-6.32 1.01,-1.25 2.91,-1.75 5.71,-1.48 1.03,0.1 2.03,0.26 2.99,0.49 0.97,0.21 2.08,0.6 3.33,1.16"
       id="path359"
       inkscape:connector-curvature="0" /><path
       d="m 128.07,20.79 0.66,-2.6 0.4,0.1 c 0.54,0.14 0.92,0.08 1.16,-0.18 0.15,-0.18 0.31,-0.57 0.46,-1.16 l 0.08,-0.33 0.88,-3.39 0.33,-1.21 c 0.54,-2.13 0.8,-3.39 0.77,-3.77 0,-0.36 -0.31,-0.62 -0.91,-0.77 l -0.42,-0.11 0.65,-2.57 11.92,3.02 -1.05,4.14 -2.64,-0.67 c 0.13,-0.54 0.08,-0.9 -0.17,-1.11 -0.13,-0.11 -0.49,-0.24 -1.08,-0.39 l -1.71,-0.43 -0.87,3.4 1.4,0.36 c 0.53,0.13 0.89,0.17 1.08,0.11 0.26,-0.09 0.46,-0.41 0.59,-0.94 l 2.62,0.66 -1.34,5.28 -2.62,-0.66 0.09,-0.36 c 0.08,-0.32 0.08,-0.57 0,-0.73 -0.14,-0.19 -0.47,-0.35 -0.98,-0.49 l -1.55,-0.4 -0.96,3.77 1.95,0.5 c 0.62,0.16 1.06,0.19 1.3,0.09 0.25,-0.11 0.43,-0.4 0.55,-0.88 l 0.06,-0.24 2.6,0.66 -1.11,4.37 -12.14,-3.07"
       id="path361"
       inkscape:connector-curvature="0" /><path
       d="m 141.37,24.13 1.08,-2.45 0.38,0.17 c 0.5,0.22 0.89,0.23 1.17,0.02 0.18,-0.16 0.4,-0.51 0.65,-1.07 l 0.14,-0.31 1.43,-3.2 0.53,-1.14 c 0.88,-2.01 1.34,-3.21 1.38,-3.59 0.05,-0.36 -0.2,-0.67 -0.77,-0.92 l -0.4,-0.18 1.07,-2.43 11.26,4.95 -1.72,3.92 -2.5,-1.1 c 0.22,-0.5 0.23,-0.88 0.02,-1.12 -0.11,-0.13 -0.44,-0.32 -1,-0.57 l -1.61,-0.71 -1.41,3.21 1.32,0.58 c 0.5,0.22 0.85,0.32 1.05,0.29 0.27,-0.05 0.52,-0.32 0.74,-0.82 l 2.47,1.09 -2.2,4.99 -2.47,-1.09 0.15,-0.34 c 0.14,-0.3 0.17,-0.55 0.12,-0.72 -0.11,-0.21 -0.4,-0.43 -0.89,-0.64 l -1.47,-0.64 -1.57,3.56 1.84,0.81 c 0.59,0.26 1.01,0.36 1.26,0.31 0.26,-0.07 0.5,-0.33 0.69,-0.77 l 0.1,-0.23 2.45,1.08 -1.82,4.13 -11.47,-5.07"
       id="path363"
       inkscape:connector-curvature="0" /><path
       d="m 173.51,24.25 -2.6,3.51 -3.18,-2.36 0.25,-0.3 0.2,-0.28 c 0.69,-0.92 0.58,-1.71 -0.32,-2.38 -0.96,-0.71 -1.74,-0.65 -2.35,0.17 -0.3,0.4 -0.4,0.85 -0.29,1.32 0.12,0.43 0.51,1.21 1.17,2.35 0.98,1.62 1.63,2.86 1.93,3.71 0.4,1.18 0.07,2.48 -0.99,3.91 -1.89,2.55 -4.58,2.53 -8.08,-0.06 l -0.22,-0.16 c -0.24,-0.18 -0.49,-0.37 -0.74,-0.58 -0.25,-0.2 -0.49,-0.42 -0.72,-0.65 -0.75,-0.67 -1.61,-1.62 -2.58,-2.86 l 2.88,-3.88 3.22,2.38 -0.52,0.7 c -0.45,0.61 -0.66,1.12 -0.62,1.53 0.06,0.41 0.4,0.83 1.01,1.29 1.01,0.74 1.83,0.69 2.46,-0.17 0.31,-0.42 0.45,-0.8 0.42,-1.14 -0.04,-0.48 -0.28,-1.07 -0.72,-1.76 l -0.73,-1.17 c -0.45,-0.73 -0.88,-1.51 -1.31,-2.34 -0.42,-0.82 -0.59,-1.59 -0.52,-2.3 0.11,-0.72 0.49,-1.5 1.12,-2.36 0.97,-1.31 2.12,-1.98 3.44,-1.99 1.32,-0.01 2.88,0.65 4.66,1.97 0.54,0.4 1.04,0.82 1.51,1.26 0.47,0.45 0.86,0.85 1.16,1.2 0.3,0.42 0.66,0.88 1.06,1.44"
       id="path365"
       inkscape:connector-curvature="0" /><path
       d="m 49.08,67.89 1.12,-2.43 6.57,3.03 -1.12,2.43 -0.29,-0.14 C 54.83,70.54 54.48,70.61 54.3,71 c -0.13,0.29 -0.24,0.61 -0.32,0.96 l -1.01,4.27 c -0.09,0.38 -0.2,0.77 -0.34,1.18 -0.12,0.41 -0.32,0.91 -0.59,1.49 0.39,-0.68 0.63,-1.08 0.71,-1.22 0.08,-0.13 0.31,-0.49 0.71,-1.08 l 5.41,-7.16 4.47,2.06 -1.9,8.78 -0.83,2.57 c 0.25,-0.54 0.49,-1 0.71,-1.39 0.24,-0.37 0.48,-0.73 0.72,-1.05 l 2.61,-3.54 0.52,-0.86 c 0.18,-0.39 0,-0.71 -0.54,-0.96 l -0.27,-0.13 1.12,-2.44 6.55,3.02 -1.12,2.43 -0.17,-0.08 c -0.47,-0.22 -0.84,-0.28 -1.1,-0.18 -0.24,0.09 -0.59,0.43 -1.04,1.01 -0.3,0.41 -0.69,0.91 -1.16,1.48 -0.58,0.67 -1.04,1.23 -1.39,1.65 -1.49,1.8 -3.2,4.05 -5.14,6.73 l -4.74,-2.19 2.12,-9.16 c 0.11,-0.43 0.2,-0.73 0.24,-0.9 0.16,-0.51 0.35,-1.04 0.6,-1.56 l -1.27,2.26 -5.62,7.54 -4.72,-2.17 c 0.84,-3.58 1.43,-6.34 1.77,-8.28 l 0.72,-3.98 c 0.16,-0.68 0.2,-1.16 0.1,-1.42 -0.08,-0.27 -0.36,-0.51 -0.84,-0.74 l -0.19,-0.05"
       id="path367"
       inkscape:connector-curvature="0" /><path
       d="m 68.27,91.45 0.65,-2.6 0.4,0.1 c 0.53,0.13 0.91,0.07 1.15,-0.19 0.16,-0.18 0.31,-0.57 0.45,-1.16 l 0.08,-0.33 0.87,-3.4 0.32,-1.21 c 0.53,-2.14 0.78,-3.39 0.75,-3.78 0,-0.36 -0.31,-0.62 -0.92,-0.77 l -0.42,-0.1 0.64,-2.58 11.93,2.96 -1.03,4.15 -2.64,-0.66 c 0.13,-0.53 0.07,-0.9 -0.17,-1.11 -0.13,-0.11 -0.49,-0.24 -1.08,-0.39 l -1.71,-0.43 -0.84,3.4 1.4,0.35 c 0.53,0.13 0.89,0.16 1.08,0.1 0.26,-0.1 0.45,-0.41 0.59,-0.94 l 2.62,0.65 -1.31,5.29 -2.62,-0.66 0.09,-0.35 c 0.08,-0.33 0.08,-0.57 0,-0.74 -0.14,-0.19 -0.47,-0.35 -0.99,-0.48 L 76,86.19 75.05,90 l 1.96,0.49 c 0.62,0.16 1.05,0.18 1.3,0.09 0.25,-0.12 0.43,-0.41 0.55,-0.88 l 0.06,-0.24 2.6,0.65 -1.09,4.38 -12.16,-3.04"
       id="path369"
       inkscape:connector-curvature="0" /><path
       d="m 84.57,95.21 0.34,-2.64 0.34,0.05 c 0.48,0.06 0.82,0 1.02,-0.2 0.14,-0.12 0.26,-0.43 0.37,-0.95 0.06,-0.47 0.16,-1.12 0.3,-1.97 0.16,-0.86 0.25,-1.4 0.28,-1.63 l 0.05,-0.43 0.04,-0.43 0.31,-2.41 c 0.14,-1.12 0.19,-1.89 0.13,-2.31 -0.04,-0.42 -0.38,-0.67 -1.01,-0.75 l -0.41,-0.05 0.34,-2.66 7.9,1 -0.34,2.66 -0.5,-0.06 c -0.39,-0.05 -0.68,-0.02 -0.87,0.1 -0.29,0.2 -0.61,1.72 -0.98,4.59 l -0.37,3.11 -0.33,2.75 1.88,0.24 c 0.73,0.09 1.17,-0.12 1.33,-0.63 l 0.15,-0.84 2.77,0.35 -0.59,4.66 -12.15,-1.55"
       id="path371"
       inkscape:connector-curvature="0" /><path
       d="m 113.61,81.34 -0.05,4.88 -4.28,-0.05 -0.01,-0.69 c 0,-0.36 -0.02,-0.67 -0.08,-0.92 -0.06,-0.26 -0.14,-0.47 -0.24,-0.64 -0.27,-0.42 -0.78,-0.63 -1.53,-0.63 -1.13,-0.02 -1.82,0.51 -2.06,1.58 -0.08,0.4 -0.15,0.99 -0.2,1.78 -0.05,0.78 -0.09,1.73 -0.1,2.86 -0.02,1.44 0.03,2.47 0.12,3.09 0.17,1.21 0.86,1.82 2.06,1.84 0.72,0.01 1.24,-0.19 1.56,-0.6 0.23,-0.32 0.36,-1.03 0.37,-2.13 l 0.01,-0.62 4.33,0.04 -0.05,5.08 c -1.28,0.46 -2.48,0.77 -3.61,0.94 -0.47,0.07 -0.99,0.13 -1.56,0.17 -0.55,0.04 -1.1,0.06 -1.65,0.05 -1.92,-0.02 -3.41,-0.38 -4.48,-1.06 -0.77,-0.5 -1.33,-1.26 -1.67,-2.3 -0.15,-0.52 -0.25,-1.17 -0.32,-1.93 -0.07,-0.78 -0.09,-1.73 -0.08,-2.86 0.03,-2.67 0.33,-4.74 0.89,-6.2 0.38,-0.97 1.06,-1.68 2.06,-2.13 1,-0.45 2.39,-0.66 4.17,-0.64 0.72,0 1.64,0.08 2.77,0.24 0.52,0.07 1.09,0.17 1.72,0.31 0.64,0.16 1.28,0.34 1.91,0.54"
       id="path373"
       inkscape:connector-curvature="0" /><path
       d="m 117.39,88.73 c -0.3,-2.46 -0.31,-4.37 -0.02,-5.74 0.17,-0.86 0.57,-1.56 1.21,-2.11 0.43,-0.36 1.05,-0.67 1.85,-0.92 0.8,-0.26 1.85,-0.46 3.13,-0.62 2.38,-0.3 4.12,-0.2 5.2,0.28 0.66,0.27 1.22,0.86 1.65,1.75 0.65,1.4 1.12,3.25 1.41,5.57 0.29,2.3 0.28,4.21 0,5.72 -0.17,0.86 -0.56,1.56 -1.17,2.11 -0.43,0.36 -1.05,0.66 -1.85,0.92 -0.8,0.26 -1.84,0.46 -3.13,0.62 -2.38,0.3 -4.11,0.2 -5.2,-0.28 -0.73,-0.32 -1.3,-0.91 -1.69,-1.75 -0.64,-1.34 -1.1,-3.18 -1.39,-5.55 m 4.58,-4.69 c -0.03,0.42 -0.02,0.98 0.02,1.68 0.04,0.69 0.12,1.49 0.23,2.42 0.08,0.67 0.15,1.21 0.2,1.64 0.05,0.41 0.08,0.75 0.08,1.01 -0.01,-0.1 -0.02,-0.18 -0.03,-0.25 0.06,0.48 0.15,0.91 0.27,1.28 0.14,0.36 0.31,0.67 0.51,0.95 0.46,0.65 1.14,0.92 2.01,0.81 0.67,-0.08 1.15,-0.26 1.43,-0.55 0.29,-0.28 0.46,-0.75 0.52,-1.4 0.02,-0.45 0.01,-1.02 -0.03,-1.7 -0.04,-0.69 -0.11,-1.48 -0.23,-2.38 -0.09,-0.75 -0.17,-1.36 -0.22,-1.79 -0.06,-0.44 -0.08,-0.74 -0.07,-0.89 0.02,0.12 0.03,0.22 0.04,0.3 -0.12,-0.96 -0.38,-1.7 -0.78,-2.23 -0.47,-0.65 -1.14,-0.92 -2.02,-0.82 -0.68,0.09 -1.17,0.27 -1.45,0.55 -0.26,0.25 -0.42,0.71 -0.48,1.37"
       id="path375"
       inkscape:connector-curvature="0" /><path
       d="m 136.96,94.65 -0.8,-2.55 0.5,-0.16 c 0.67,-0.21 0.93,-0.56 0.77,-1.05 l -1.35,-4.57 -0.45,-1.52 c -0.58,-1.87 -0.98,-2.96 -1.19,-3.28 -0.21,-0.32 -0.58,-0.4 -1.1,-0.24 l -0.5,0.16 -0.8,-2.56 7.13,-2.22 5.65,7.43 c 0.32,0.43 0.76,1.29 1.31,2.59 -0.26,-1.47 -0.38,-2.43 -0.37,-2.88 l 0.41,-9.31 7.17,-2.23 0.8,2.55 -0.55,0.17 c -0.47,0.15 -0.72,0.44 -0.76,0.88 l 0,0.22 1.35,4.59 0.15,0.55 0.17,0.56 c 0.66,2.13 1.1,3.34 1.33,3.64 0.22,0.29 0.58,0.35 1.09,0.19 l 0.53,-0.16 0.8,2.55 -6.6,2.06 -0.8,-2.56 0.24,-0.08 c 0.6,-0.19 0.82,-0.52 0.67,-1.02 l -1.78,-5.73 -0.33,-1.2 -0.45,-1.66 c 0.04,0.32 0.08,0.67 0.13,1.04 0.05,0.37 0.11,1 0.17,1.91 l -0.24,10.03 -3.37,1.05 -5.88,-8.12 c -0.2,-0.28 -0.67,-1.15 -1.41,-2.61 l 0.57,1.6 0.42,1.19 1.78,5.73 c 0.15,0.5 0.52,0.66 1.1,0.47 l 0.24,-0.07 0.8,2.56 -6.55,2.06"
       id="path377"
       inkscape:connector-curvature="0" /><path
       d="m 161.75,86.36 -1.31,-2.34 0.36,-0.2 c 0.48,-0.27 0.72,-0.57 0.72,-0.92 -0.01,-0.24 -0.17,-0.63 -0.46,-1.16 l -0.17,-0.3 -1.69,-3.07 -0.59,-1.11 c -1.07,-1.92 -1.75,-3 -2.04,-3.27 -0.25,-0.26 -0.65,-0.24 -1.19,0.07 l -0.38,0.21 -1.29,-2.32 10.73,-6 2.09,3.74 -2.38,1.33 c -0.27,-0.48 -0.56,-0.71 -0.88,-0.69 -0.17,0.01 -0.52,0.16 -1.05,0.46 l -1.54,0.86 1.71,3.05 1.26,-0.7 c 0.48,-0.27 0.77,-0.49 0.86,-0.66 0.13,-0.25 0.05,-0.61 -0.21,-1.09 l 2.36,-1.32 2.66,4.75 -2.36,1.32 -0.18,-0.32 c -0.16,-0.29 -0.33,-0.47 -0.51,-0.53 -0.23,-0.05 -0.58,0.07 -1.05,0.33 l -1.4,0.78 1.9,3.39 1.76,-0.98 c 0.56,-0.31 0.89,-0.58 1.01,-0.83 0.11,-0.25 0.04,-0.59 -0.2,-1.02 l -0.12,-0.22 2.34,-1.31 2.21,3.94 -10.97,6.13"
       id="path379"
       inkscape:connector-curvature="0" /></g></svg>