<?xml version="1.0" encoding="UTF-8" standalone="no"?>
<svg
   xmlns:dc="http://purl.org/dc/elements/1.1/"
   xmlns:cc="http://creativecommons.org/ns#"
   xmlns:rdf="http://www.w3.org/1999/02/22-rdf-syntax-ns#"
   xmlns:svg="http://www.w3.org/2000/svg"
   xmlns="http://www.w3.org/2000/svg"
   xmlns:sodipodi="http://sodipodi.sourceforge.net/DTD/sodipodi-0.dtd"
   xmlns:inkscape="http://www.inkscape.org/namespaces/inkscape"
   version="1.1"
   x="0px"
   y="0px"
   width="123.6"
   height="37.16"
   viewBox="0 0 123.6 37.16"
   enable-background="new 0 0 220 100"
   xml:space="preserve"
   id="svg387"
   inkscape:version="0.91 r13725"
   sodipodi:docname="logo.reply.svg"><metadata
     id="metadata412"><rdf:RDF><cc:Work
         rdf:about=""><dc:format>image/svg+xml</dc:format><dc:type
           rdf:resource="http://purl.org/dc/dcmitype/StillImage" /><dc:title></dc:title></cc:Work></rdf:RDF></metadata><defs
     id="defs410" /><sodipodi:namedview
     pagecolor="#ffffff"
     bordercolor="#666666"
     borderopacity="1"
     objecttolerance="10"
     gridtolerance="10"
     guidetolerance="10"
     inkscape:pageopacity="0"
     inkscape:pageshadow="2"
     inkscape:window-width="640"
     inkscape:window-height="480"
     id="namedview408"
     showgrid="false"
     fit-margin-top="0"
     fit-margin-left="0"
     fit-margin-right="0"
     fit-margin-bottom="0"
     inkscape:zoom="2.36"
     inkscape:cx="67.79"
     inkscape:cy="17.58"
     inkscape:window-x="0"
     inkscape:window-y="0"
     inkscape:window-maximized="0"
     inkscape:current-layer="svg387" /><g
     id="Reply"
     style="fill:#ffffff"
     transform="translate(-42.21,-30.42)"><path
       d="M 93.47,60.48 91.15,48.89 c 3,-1.04 4.67,-3.38 5.39,-6.62 1.08,-4.89 -1.12,-7.77 -7.09,-7.77 l -7.2,0 -5.76,25.98 4.96,0 2.34,-10.58 2.38,0 1.97,10.58 5.33,0 z M 86.3,38.6 l 2.55,0 c 2.2,0 3.29,1.08 2.73,3.6 -0.56,2.51 -2.13,3.6 -4.32,3.6 l -2.56,0 1.6,-7.2 z"
       id="path390"
       inkscape:connector-curvature="0" /><path
       d="m 125.08,45.51 c 1.11,-0.97 2.04,-1.4 3.04,-1.4 1.22,0 2.05,0.79 1.19,4.67 l -0.93,4.17 c -0.86,3.89 -2.05,4.68 -3.27,4.68 -1.01,0 -1.74,-0.43 -2.43,-1.4 l 2.4,-10.72 z m -3.56,-4.42 -5.87,26.49 4.53,0 1.93,-8.71 c 1.81,1.59 2.83,2.16 4.06,2.16 3.52,0 5.58,-2.73 6.69,-7.77 l 1.05,-4.75 c 1.12,-5.04 0.29,-7.77 -3.24,-7.77 -2.01,0 -4.37,1.51 -5.43,2.73 l -0.07,0 0.52,-2.38 -4.17,0 z"
       id="path392"
       inkscape:connector-curvature="0" /><polygon
       points="142.96,34.68 137.19,60.66 141.73,60.66 147.49,34.68 "
       id="polygon394" /><path
       d="m 145.53,67.51 c 0.5,0.03 0.99,0.07 1.42,0.07 4.54,0 6.75,-1.69 9.32,-6.98 l 9.54,-19.51 -4.61,0 -5.71,12.96 -0.08,0 -0.18,-12.96 -4.61,0 1.03,15.8 c 0.1,1.65 0.17,2.98 -0.09,4.14 -0.19,0.86 -1.87,2.59 -3.85,2.59 -0.47,0 -0.9,0 -1.32,-0.08 l -0.86,3.97 z"
       id="path396"
       inkscape:connector-curvature="0" /><path
       d="m 69.6,30.42 c -1.66,0 -3,1.34 -3,3.01 0,1.65 1.34,2.99 3,2.99 1.66,0 3,-1.34 3,-2.99 0,-1.66 -1.35,-3.01 -3,-3.01 z"
       id="path398"
       inkscape:connector-curvature="0" /><polygon
       points="57.69,34.39 57.69,34.39 53.04,34.38 55.01,35.97 61.84,37.26 53.74,45.96 42.21,47.6 44.18,49.71 55.52,49.52 58.48,47.72 64,52.1 65.13,60.39 66.96,60.25 66.99,50.97 62.07,44.33 63.02,43.05 67.08,37.7 64.99,34.33 "
       id="polygon400" /><path
       d="m 113.83,51.77 1.01,-4.57 c 0.89,-3.99 -1.51,-6.66 -5.72,-6.66 -4.32,0 -7.79,2.66 -8.74,6.95 l -1.42,6.41 c -0.95,4.28 1.34,6.94 5.65,6.94 4.57,0 7.51,-2.37 8.62,-6.41 l -4.54,0 c -0.33,1.51 -1.36,2.73 -3.27,2.73 -1.51,0 -2.47,-0.86 -2.04,-2.8 l 0.58,-2.59 9.87,0 z m -9.05,-3.67 0.24,-1.08 c 0.39,-1.73 1.46,-2.81 3.29,-2.81 1.84,0 2.42,1.08 2.04,2.81 l -0.24,1.08 -5.33,0 z"
       id="path402"
       inkscape:connector-curvature="0" /><polygon
       points="61.76,36.97 61.01,36.76 61.57,37.66 57.51,43.01 57.41,43.15 62.09,38.15 62.91,37.28 "
       id="polygon404" /><path
       d="m 61.54,34.97 c -0.14,-0.22 -0.25,-0.45 -0.32,-0.7 l -1.74,0.01 0.43,0.7 1.63,-0.01 z"
       id="path406"
       inkscape:connector-curvature="0" /></g></svg>