<?xml version="1.0" encoding="UTF-8" standalone="no"?>
<svg
   xmlns:dc="http://purl.org/dc/elements/1.1/"
   xmlns:cc="http://creativecommons.org/ns#"
   xmlns:rdf="http://www.w3.org/1999/02/22-rdf-syntax-ns#"
   xmlns:svg="http://www.w3.org/2000/svg"
   xmlns="http://www.w3.org/2000/svg"
   viewBox="0 0 354.32501 90.824997"
   height="90.824997"
   width="354.32501"
   xml:space="preserve"
   version="1.1"
   id="svg4176"><metadata
     id="metadata4182"><rdf:RDF><cc:Work
         rdf:about=""><dc:format>image/svg+xml</dc:format><dc:type
           rdf:resource="http://purl.org/dc/dcmitype/StillImage" /><dc:title></dc:title></cc:Work></rdf:RDF></metadata><defs
     id="defs4180" /><g
     transform="matrix(1.25,0,0,-1.25,0,90.825)"
     id="g4184"><path
       d="m 128.352,56.5234 4.984,0 c 4.281,0 6.41,-2.1082 5.32,-7.0277 -1.084,-4.9027 -4.154,-7.0172 -8.433,-7.0172 l -4.985,0 3.114,14.0449 z m 13.98,-42.6804 -4.533,22.6015 c 5.855,2.0332 9.113,6.5996 10.512,12.918 2.117,9.5473 -2.182,15.1625 -13.831,15.1625 l -14.041,0 -11.238,-50.682 9.688,0 4.574,20.6375 4.635,0 3.845,-20.6375 10.389,0"
       style="fill:#ffffff;fill-opacity:1;fill-rule:nonzero;stroke:none;opacity:1"
       id="path4188" /><path
       d="M 197.049,51.6691 185.596,0 l 8.843,0 3.764,16.9895 c 3.527,-3.0918 5.524,-4.2129 7.912,-4.2129 6.877,0 10.871,5.3308 13.053,15.1589 l 2.053,9.2668 c 2.179,9.825 0.554,15.1594 -6.323,15.1594 -3.931,0 -8.521,-2.948 -10.591,-5.3344 l -0.141,0 1.023,4.6418 -8.14,0 z m 6.935,-8.6386 c 2.172,1.8953 3.973,2.7351 5.938,2.7351 2.389,0 4.008,-1.5418 2.33,-9.1258 l -1.811,-8.1418 c -1.671,-7.5789 -3.99,-9.1218 -6.369,-9.1218 -1.967,0 -3.392,0.8359 -4.73,2.7351 l 4.642,20.9192"
       style="fill:#ffffff;fill-opacity:1;fill-rule:nonzero;stroke:none;opacity:1"
       id="path4190" /><path
       d="m 227.617,13.4797 8.846,0 11.24,50.6785 -8.842,0 -11.244,-50.6785"
       style="fill:#ffffff;fill-opacity:1;fill-rule:nonzero;stroke:none;opacity:1"
       id="path4192" /><path
       d="M 243.891,0.136719 C 244.854,0.0714844 245.82,0 246.664,0 c 8.846,0 13.158,3.29805 18.184,13.6164 l 18.615,38.0527 -8.983,0 -11.148,-25.2753 -0.144,0 -0.364,25.2753 -8.984,0 2.012,-30.8222 c 0.195,-3.2297 0.322,-5.8242 -0.174,-8.0703 -0.375,-1.6868 -3.645,-5.05668 -7.504,-5.05668 -0.92,0 -1.764,0 -2.572,0.14453 l -1.711,-7.727731"
       style="fill:#ffffff;fill-opacity:1;fill-rule:nonzero;stroke:none;opacity:1"
       id="path4194" /><path
       d="M 197.049,51.6691 185.596,0 l 8.843,0 3.764,16.9895 c 3.527,-3.0918 5.524,-4.2129 7.912,-4.2129 6.877,0 10.871,5.3308 13.053,15.1589 l 2.053,9.2668 c 2.179,9.825 0.554,15.1594 -6.323,15.1594 -3.931,0 -8.521,-2.948 -10.591,-5.3344 l -0.141,0 1.023,4.6418 -8.14,0 z m 6.935,-8.6386 c 2.172,1.8953 3.973,2.7351 5.938,2.7351 2.389,0 4.008,-1.5418 2.33,-9.1258 l -1.811,-8.1418 c -1.671,-7.5789 -3.99,-9.1218 -6.369,-9.1218 -1.967,0 -3.392,0.8359 -4.73,2.7351 l 4.642,20.9192"
       style="fill:#ffffff;fill-opacity:1;fill-rule:nonzero;stroke:none;opacity:1"
       id="path4196" /><path
       d="m 227.617,13.4797 8.846,0 11.24,50.6785 -8.842,0 -11.244,-50.6785"
       style="fill:#ffffff;fill-opacity:1;fill-rule:nonzero;stroke:none;opacity:1"
       id="path4198" /><path
       d="M 243.891,0.136719 C 244.854,0.0714844 245.82,0 246.664,0 c 8.846,0 13.158,3.29805 18.184,13.6164 l 18.615,38.0527 -8.983,0 -11.148,-25.2753 -0.144,0 -0.364,25.2753 -8.984,0 2.012,-30.8222 c 0.195,-3.2297 0.322,-5.8242 -0.174,-8.0703 -0.375,-1.6868 -3.645,-5.05668 -7.504,-5.05668 -0.92,0 -1.764,0 -2.572,0.14453 l -1.711,-7.727731"
       style="fill:#ffffff;fill-opacity:1;fill-rule:nonzero;stroke:none;opacity:1"
       id="path4200" /><path
       d="m 96.0574,72.6602 c -3.2359,0 -5.8554,-2.6227 -5.8554,-5.852 0,-3.2434 2.6195,-5.8555 5.8554,-5.8555 3.2332,0 5.8556,2.6121 5.8556,5.8555 0,3.2293 -2.6224,5.852 -5.8556,5.852"
       style="fill:#ffffff;fill-opacity:1;fill-rule:nonzero;stroke:none;opacity:1"
       id="path4202" /><path
       d="m 83.2191,48.0352 7.9364,10.4289 -4.0867,6.5714 -14.2407,-0.0988 0,0 -9.0742,0.0137 3.843,-3.1133 13.3148,-2.5094 -15.7902,-16.9625 -22.482,-3.198 10.6414,-0.7688 16.1879,1.3684 4.9089,-0.8301 10.7684,-8.5429 2.1836,-16.1809 3.575,0.2676 0.0621,18.1144 -9.5953,12.9379 1.8476,2.5024"
       style="fill:#ffffff;fill-opacity:1;fill-rule:nonzero;stroke:none;opacity:1"
       id="path4204" /><path
       d="m 96.0574,72.6602 c -3.2359,0 -5.8554,-2.6227 -5.8554,-5.852 0,-3.2434 2.6195,-5.8555 5.8554,-5.8555 3.2332,0 5.8556,2.6121 5.8556,5.8555 0,3.2293 -2.6224,5.852 -5.8556,5.852"
       style="fill:#ffffff;fill-opacity:1;fill-rule:nonzero;stroke:none;opacity:1"
       id="path4206" /><path
       d="m 85.0227,72.5434 c -3.2399,0 -5.859,-2.6157 -5.859,-5.852 0,-3.2363 2.6191,-5.8621 5.859,-5.8621 3.2355,0 5.8519,2.6258 5.8519,5.8621 0,3.2363 -2.6164,5.852 -5.8519,5.852"
       style="fill:#ffffff;fill-opacity:1;fill-rule:nonzero;stroke:none;opacity:1"
       id="path4210" /><path
       d="m 72.1977,47.9191 7.9191,10.4348 -4.0863,6.5691 -14.241,-0.1031 0,0 -9.0743,0.0137 3.843,-3.1129 13.3184,-2.5098 -15.7868,-16.9558 -22.4886,-3.2012 12.6328,-0.1094 15.0875,1.6446 4.0246,-1.7688 10.7644,-8.543 2.1938,-16.1804 3.5687,0.2773 0.0583,18.1141 -9.5989,12.9277 1.8653,2.5031"
       style="fill:#ffffff;fill-opacity:1;fill-rule:nonzero;stroke:none;opacity:1"
       id="path4212" /><path
       d="m 85.0227,72.5434 c -3.2399,0 -5.859,-2.6157 -5.859,-5.852 0,-3.2363 2.6191,-5.8621 5.859,-5.8621 3.2355,0 5.8519,2.6258 5.8519,5.8621 0,3.2363 -2.6164,5.852 -5.8519,5.852"
       style="fill:#ffffff;fill-opacity:1;fill-rule:nonzero;stroke:none;opacity:1"
       id="path4214" /><path
       d="m 74.3434,72.4648 c -3.236,0 -5.8516,-2.623 -5.8516,-5.8621 0,-3.2297 2.6156,-5.8488 5.8516,-5.8488 3.2293,0 5.8519,2.6191 5.8519,5.8488 0,3.2391 -2.6226,5.8621 -5.8519,5.8621"
       style="fill:#ffffff;fill-opacity:1;fill-rule:nonzero;stroke:none;opacity:1"
       id="path4218" /><path
       d="m 61.5082,47.8363 7.9328,10.4426 -4.0894,6.5613 -14.2371,-0.0996 0,0 -9.0786,0.0071 3.8469,-3.102 13.3219,-2.5098 -15.7902,-16.9699 -22.4891,-3.1941 3.8363,-4.1145 22.1223,0.3633 5.7762,3.5176 10.7679,-8.5469 2.1973,-16.1777 3.5621,0.2746 0.0688,18.1074 -9.5993,12.9383 1.8512,2.5023"
       style="fill:#ffffff;fill-opacity:1;fill-rule:nonzero;stroke:none;opacity:1"
       id="path4220" /><path
       d="m 74.3434,72.4648 c -3.236,0 -5.8516,-2.623 -5.8516,-5.8621 0,-3.2297 2.6156,-5.8488 5.8516,-5.8488 3.2293,0 5.8519,2.6191 5.8519,5.8488 0,3.2391 -2.6226,5.8621 -5.8519,5.8621"
       style="fill:#ffffff;fill-opacity:1;fill-rule:nonzero;stroke:none;opacity:1"
       id="path4222" /><path
       d="M 161.186,14.343 0,14.4465 0,10.134 l 68.9613,0 0,2.9961 92.2247,0 0,1.2129"
       style="fill:#ffffff;fill-opacity:1;fill-rule:nonzero;stroke:none;opacity:1"
       id="path4226" /><path
       d="m 164.391,37.9941 0.463,2.1047 c 0.755,3.3633 2.835,5.475 6.412,5.475 3.582,0 4.73,-2.1117 3.98,-5.475 l -0.463,-2.1047 -10.392,0 z m 17.646,-7.1609 1.975,8.9129 c 1.73,7.7953 -2.942,12.9894 -11.16,12.9894 -8.422,0 -15.19,-5.1941 -17.045,-13.5519 l -2.766,-12.4949 c -1.852,-8.3555 2.611,-13.5449 11.031,-13.5449 8.92,0 14.649,4.6308 16.817,12.4921 l -8.85,0 c -0.65,-2.9453 -2.656,-5.3339 -6.375,-5.3339 -2.949,0 -4.824,1.6863 -3.984,5.4707 l 1.125,5.0605 19.232,0"
       style="fill:#ffffff;fill-opacity:1;fill-rule:nonzero;stroke:none;opacity:1"
       id="path4228" /></g></svg>