<?xml version="1.0" encoding="UTF-8" standalone="no"?>
<svg
   xmlns:dc="http://purl.org/dc/elements/1.1/"
   xmlns:cc="http://creativecommons.org/ns#"
   xmlns:rdf="http://www.w3.org/1999/02/22-rdf-syntax-ns#"
   xmlns:svg="http://www.w3.org/2000/svg"
   xmlns="http://www.w3.org/2000/svg"
   xmlns:sodipodi="http://sodipodi.sourceforge.net/DTD/sodipodi-0.dtd"
   xmlns:inkscape="http://www.inkscape.org/namespaces/inkscape"
   version="1.1"
   x="0px"
   y="0px"
   width="182.92999"
   height="15.67"
   viewBox="0 0 182.92999 15.67"
   enable-background="new 0 0 220 100"
   xml:space="preserve"
   id="svg414"
   inkscape:version="0.91 r13725"
   sodipodi:docname="logo.sv.svg"><metadata
     id="metadata423"><rdf:RDF><cc:Work
         rdf:about=""><dc:format>image/svg+xml</dc:format><dc:type
           rdf:resource="http://purl.org/dc/dcmitype/StillImage" /><dc:title></dc:title></cc:Work></rdf:RDF></metadata><defs
     id="defs421" /><sodipodi:namedview
     pagecolor="#ffffff"
     bordercolor="#666666"
     borderopacity="1"
     objecttolerance="10"
     gridtolerance="10"
     guidetolerance="10"
     inkscape:pageopacity="0"
     inkscape:pageshadow="2"
     inkscape:window-width="3440"
     inkscape:window-height="1411"
     id="namedview419"
     showgrid="false"
     fit-margin-top="0"
     fit-margin-left="0"
     fit-margin-right="0"
     fit-margin-bottom="0"
     inkscape:zoom="2.36"
     inkscape:cx="-38.396907"
     inkscape:cy="101.50646"
     inkscape:window-x="0"
     inkscape:window-y="0"
     inkscape:window-maximized="1"
     inkscape:current-layer="svg414" /><g
     id="SV"
     style="fill:#ffffff"
     transform="translate(-18.54,-42.16)"><path
       d="m 28.43,45.86 -2.68,0.74 c -0.47,-1.35 -1.19,-2.03 -2.18,-2.03 -1.08,0 -1.62,0.55 -1.62,1.66 0,0.59 0.57,1.2 1.71,1.84 1.77,0.98 2.83,1.62 3.19,1.92 1.15,0.96 1.73,2.12 1.73,3.48 0,1.42 -0.48,2.51 -1.43,3.27 -0.89,0.72 -2.06,1.08 -3.52,1.08 -2.62,0 -4.32,-1.43 -5.09,-4.29 l 2.94,-0.61 c 0.31,1.66 1.08,2.49 2.3,2.49 0.56,0 1.01,-0.17 1.34,-0.49 0.32,-0.33 0.49,-0.77 0.49,-1.32 0,-0.79 -0.58,-1.52 -1.73,-2.2 -0.58,-0.32 -1.16,-0.65 -1.73,-0.97 -0.71,-0.39 -1.27,-0.74 -1.66,-1.05 -1,-0.84 -1.5,-1.83 -1.5,-2.96 0,-1.4 0.44,-2.48 1.31,-3.21 0.8,-0.7 1.92,-1.05 3.36,-1.05 1.24,0 2.27,0.32 3.1,0.96 0.81,0.65 1.37,1.56 1.67,2.74 z m 6.08,1.04 0,6.18 c 0,1.44 0.65,2.15 1.94,2.15 1.29,0 1.94,-0.72 1.94,-2.15 l 0,-0.99 2.98,0 0,0.63 c 0,3.41 -1.64,5.11 -4.92,5.11 -3.27,0 -4.9,-1.71 -4.9,-5.11 l 0,-5.44 c 0,-3.41 1.63,-5.11 4.9,-5.11 3.28,0 4.92,1.71 4.92,5.11 l 0,0.04 -2.98,0 0,-0.42 c 0,-1.43 -0.65,-2.15 -1.94,-2.15 -1.3,0 -1.94,0.71 -1.94,2.15 z m 13.27,10.72 -2.97,0 0,-15.22 2.97,0 0,6.06 4.2,0 0,-6.06 2.96,0 0,15.22 -2.96,0 0,-6.59 -4.2,0 0,6.59 z m 10.73,-4.9 0,-5.44 c 0,-3.41 1.63,-5.11 4.89,-5.11 3.11,0 4.67,1.71 4.67,5.11 l 0,5.44 c 0,3.41 -1.55,5.11 -4.67,5.11 -3.26,0 -4.89,-1.7 -4.89,-5.11 z m 2.95,-5.82 0,6.18 c 0,1.44 0.65,2.15 1.94,2.15 1.3,0 1.94,-0.72 1.94,-2.15 l 0,-6.18 c 0,-1.43 -0.64,-2.15 -1.94,-2.15 -1.29,0 -1.94,0.71 -1.94,2.15 z m 17.8,10.72 -7.54,0 0,-15.22 2.98,0 0,12.64 4.56,0 0,2.58 z m 3.18,-12.66 0,-2.56 8.62,0 0,2.43 -5.89,10.21 6.01,0 0,2.58 -9.35,0 0,-2.49 5.89,-10.17 -5.28,0 z m 23.01,5 2.39,0.65 c -0.6,1.54 -1.21,2.81 -1.84,3.8 0.72,0.48 1.43,0.75 2.15,0.82 l 0,2.6 c -0.82,0 -1.52,-0.13 -2.11,-0.38 -0.53,-0.22 -1.14,-0.62 -1.81,-1.18 -1.07,1.04 -2.37,1.56 -3.91,1.56 -1.47,0 -2.66,-0.33 -3.54,-1 -1,-0.73 -1.5,-1.81 -1.5,-3.23 0,-0.97 0.23,-1.8 0.7,-2.49 0.39,-0.59 1.03,-1.17 1.92,-1.73 -0.84,-1.24 -1.27,-2.38 -1.27,-3.42 0,-1.18 0.37,-2.11 1.1,-2.79 0.73,-0.67 1.7,-1.01 2.89,-1.01 1.02,0 1.89,0.32 2.6,0.96 0.7,0.64 1.06,1.46 1.06,2.48 0,0.86 -0.32,1.67 -0.95,2.43 -0.35,0.43 -1.03,1.03 -2.05,1.79 0.87,1.15 1.81,2.18 2.79,3.1 0.37,-0.65 0.63,-1.14 0.8,-1.46 0.26,-0.53 0.45,-1.04 0.58,-1.5 z m -7.2,3.27 c 0,0.66 0.2,1.19 0.61,1.6 0.41,0.39 0.94,0.6 1.61,0.6 0.84,0 1.51,-0.28 1.98,-0.84 -1.06,-0.92 -2.08,-2 -3.08,-3.25 -0.74,0.55 -1.12,1.19 -1.12,1.89 z m 2.2,-9.29 c -0.44,0 -0.77,0.16 -1.01,0.49 -0.24,0.32 -0.36,0.71 -0.36,1.16 0,0.64 0.3,1.45 0.89,2.41 0.72,-0.62 1.13,-1 1.25,-1.13 0.41,-0.48 0.62,-0.98 0.62,-1.52 0,-0.41 -0.13,-0.75 -0.39,-1.01 -0.28,-0.27 -0.61,-0.4 -1,-0.4 z m 13.63,13.68 -3.97,-15.22 2.92,0 2.74,10.87 0.04,0 2.7,-10.87 2.91,0 -3.97,15.22 -3.37,0 z m 9.71,-4.9 0,-5.44 c 0,-3.41 1.64,-5.11 4.92,-5.11 3.27,0 4.9,1.71 4.9,5.11 l 0,5.44 c 0,3.41 -1.63,5.11 -4.9,5.11 -3.28,0 -4.92,-1.7 -4.92,-5.11 z m 2.98,-5.82 0,6.18 c 0,1.44 0.65,2.15 1.95,2.15 1.3,0 1.94,-0.72 1.94,-2.15 l 0,-6.18 c 0,-1.43 -0.65,-2.15 -1.94,-2.15 -1.29,0 -1.95,0.71 -1.95,2.15 z m 18.32,10.72 -7.74,0 0,-15.22 2.97,0 0,12.64 4.77,0 0,2.58 z m 6.15,0 -2.97,0 0,-15.22 2.97,0 0,6.27 0.04,0 3.84,-6.27 3.25,0 -3.99,6.12 4.45,9.11 -3.34,0 -3.1,-6.4 -1.16,1.73 0,4.66 z m 12.85,0 -2.56,0 0,-15.22 4.6,0 2.89,9.99 0.04,0 2.91,-9.99 4.37,0 0,15.22 -2.54,0 0,-11.99 -3.65,11.99 -2.23,0 -3.8,-11.99 -0.04,0 0,11.99 z m 24.32,0 -8.34,0 0,-15.22 8.13,0 0,2.56 -5.17,0 0,3.5 3.95,0 0,2.57 -3.95,0 0,4.01 5.38,0 0,2.58 z m 13.06,0 -2.96,0 -2.59,-6.21 -1.42,0 0,6.21 -2.98,0 0,-15.22 4.31,0 c 3.52,0 5.28,1.51 5.28,4.54 0,2.01 -0.78,3.3 -2.34,3.88 l 2.7,6.8 z m -6.97,-12.83 0,4.22 1.53,0 c 1.4,0 2.11,-0.7 2.11,-2.11 0,-1.41 -0.7,-2.11 -2.11,-2.11 l -1.53,0 z"
       id="path417"
       style="fill:#ffffff"
       inkscape:connector-curvature="0" /></g></svg>